<svg width="21" height="21" viewBox="0 0 21 21" fill="none" xmlns="http://www.w3.org/2000/svg">
<path d="M2.6625 16.3128C2.74359 17.6562 3.8329 18.6215 5.17629 18.5404L16.2395 17.8726C17.5829 17.7915 18.5482 16.7022 18.4671 15.3588L18.0854 9.03698L2.28088 9.99102L2.6625 16.3128ZM15.3808 3.64849L13.8004 3.74389L13.7527 2.95366C13.7241 2.47953 13.3889 2.18252 12.9148 2.21114C12.4406 2.23976 12.1436 2.57493 12.1722 3.04907L12.2199 3.8393L7.47856 4.12551L7.43086 3.33528C7.40224 2.86114 7.06707 2.56413 6.59293 2.59275C6.1188 2.62138 5.82178 2.95655 5.85041 3.43068L5.89811 4.22091L4.31765 4.31632C2.97426 4.39741 2.00898 5.48672 2.09007 6.83011L2.18548 8.41057L17.99 7.45652L17.8946 5.87606C17.8135 4.53268 16.7242 3.56739 15.3808 3.64849Z" fill="#2049DB"/>
</svg>
