<svg width="25" height="25" viewBox="0 0 25 25" fill="none" xmlns="http://www.w3.org/2000/svg">
<g clip-path="url(#clip0_85_1527)">
<path d="M22.8406 4.34742L20.381 4.16769L20.3065 5.18744C20.2972 5.31501 20.1863 5.41111 20.0586 5.40177L19.5232 5.36265C19.3954 5.35331 19.2996 5.24206 19.3089 5.11454L19.3834 4.09479L16.924 3.91507C16.7395 3.90159 16.5789 4.04023 16.5654 4.22467L16.1819 9.47313C16.1684 9.65771 16.3072 9.81808 16.4916 9.83156L22.4083 10.2639C22.5927 10.2774 22.7531 10.1389 22.7666 9.95429L23.1502 4.70579C23.1636 4.52139 23.025 4.36089 22.8406 4.34742Z" fill="#2049DB"/>
<path d="M18.094 22.1731C16.6 22.064 15.4733 20.7597 15.5825 19.2654C15.6917 17.7711 16.996 16.6444 18.4901 16.7536C19.9845 16.8628 21.1113 18.1671 21.0021 19.6614C20.8929 21.1557 19.5884 22.2823 18.094 22.1731ZM18.3903 18.1191C17.6492 18.065 17.0019 18.624 16.9478 19.3652C16.8936 20.1062 17.4527 20.7536 18.1938 20.8077C18.9351 20.8619 19.5823 20.3027 19.6364 19.5616C19.6905 18.8205 19.1316 18.1733 18.3903 18.1191Z" fill="#2049DB"/>
<path d="M3.0681 21.0751C1.57404 20.966 0.447186 19.6617 0.556379 18.1674C0.665573 16.6731 1.97006 15.5464 3.46413 15.6556C4.95824 15.7648 6.08504 17.0691 5.97584 18.5634C5.86665 20.0577 4.56222 21.1843 3.0681 21.0751ZM3.36434 17.0211C2.62309 16.967 1.97596 17.526 1.9218 18.2672C1.86765 19.0082 2.42662 19.6556 3.16788 19.7098C3.90917 19.7639 4.55627 19.2047 4.61042 18.4636C4.66458 17.7225 4.10564 17.0753 3.36434 17.0211Z" fill="#2049DB"/>
<path d="M19.9736 14.2549L20.0279 13.5123L21.9167 13.6503C22.3441 13.6815 22.716 13.3606 22.7472 12.9332L22.7875 12.3824C22.8187 11.9552 22.4974 11.5835 22.07 11.5523L12.6031 10.8605C12.1757 10.8293 11.8038 11.1504 11.7726 11.5775L11.7318 12.1365C11.7005 12.5638 12.0218 12.9356 12.4491 12.9668L13.4959 13.0433L13.2786 16.0169L8.03423 15.6337C7.69381 15.0065 7.2277 14.4543 6.66736 14.0131L9.27391 6.72404L11.1805 6.86336C11.6078 6.89458 11.9795 6.57328 12.0107 6.14601C12.0419 5.71883 11.7209 5.3471 11.2935 5.31587C11.2935 5.31587 9.28765 5.1693 8.58357 5.11785C8.48723 5.11081 8.31635 5.13894 8.23109 5.17351C8.10746 5.22425 7.99674 5.30643 7.91237 5.41505L1.82103 13.2443C1.63984 13.4736 1.49701 13.7677 1.56787 14.0404C1.67792 14.4641 2.14133 14.6467 2.63765 14.5381C3.01463 14.4557 3.32438 14.4302 3.71378 14.4586C5.7295 14.6059 7.24956 16.3657 7.10226 18.3815C7.07103 18.8088 7.39194 19.1806 7.81931 19.2119L13.8254 19.6507C14.2528 19.682 14.6246 19.3608 14.6558 18.9334C14.8031 16.9177 16.5626 15.3975 18.5783 15.5448C20.594 15.6921 22.1142 17.4519 21.9669 19.4677C21.9356 19.895 22.2569 20.2669 22.684 20.2981C23.1116 20.3293 23.4832 20.0081 23.5144 19.5807C23.6914 17.1583 22.1763 14.9956 19.9736 14.2549Z" fill="#2049DB"/>
</g>
<defs>
<clipPath id="clip0_85_1527">
<rect width="23" height="23" fill="white" transform="translate(1.85681 0.369659) rotate(4.17935)"/>
</clipPath>
</defs>
</svg>
