<svg width="86" height="86" viewBox="0 0 86 86" fill="none" xmlns="http://www.w3.org/2000/svg">
<path d="M1 39.726C1 21.9418 1 13.0497 6.52485 7.52485C12.0497 2 20.9418 2 38.726 2L46.274 2C64.0582 2 72.9503 2 78.4752 7.52485C84 13.0497 84 21.9418 84 39.726L84 47.274C84 65.0582 84 73.9503 78.4752 79.4752C72.9503 85 64.0582 85 46.274 85H38.726C20.9418 85 12.0497 85 6.52485 79.4752C1 73.9503 1 65.0582 1 47.274L1 39.726Z" fill="#7EBC60"/>
<path d="M41.6632 30.5267C41.6632 36.0297 37.2021 40.4908 31.699 40.4908C26.196 40.4908 21.7349 36.0297 21.7349 30.5267C21.7349 25.0236 26.196 20.5625 31.699 20.5625C37.2021 20.5625 41.6632 25.0236 41.6632 30.5267Z" fill="white"/>
<path fill-rule="evenodd" clip-rule="evenodd" d="M31.699 39.3186C36.5547 39.3186 40.4909 35.3823 40.4909 30.5267C40.4909 25.671 36.5547 21.7348 31.699 21.7348C26.8434 21.7348 22.9071 25.671 22.9071 30.5267C22.9071 35.3823 26.8434 39.3186 31.699 39.3186ZM31.699 40.4908C37.2021 40.4908 41.6632 36.0297 41.6632 30.5267C41.6632 25.0236 37.2021 20.5625 31.699 20.5625C26.196 20.5625 21.7349 25.0236 21.7349 30.5267C21.7349 36.0297 26.196 40.4908 31.699 40.4908Z" fill="black"/>
<path d="M44.0077 30.5267C44.0077 36.0297 48.4688 40.4908 53.9719 40.4908C59.4749 40.4908 63.936 36.0297 63.936 30.5267C63.936 25.0236 59.4749 20.5625 53.9719 20.5625C48.4688 20.5625 44.0077 25.0236 44.0077 30.5267Z" fill="white"/>
<path fill-rule="evenodd" clip-rule="evenodd" d="M53.9719 39.3186C49.1162 39.3186 45.18 35.3823 45.18 30.5267C45.18 25.671 49.1162 21.7348 53.9719 21.7348C58.8275 21.7348 62.7638 25.671 62.7638 30.5267C62.7638 35.3823 58.8275 39.3186 53.9719 39.3186ZM53.9719 40.4908C48.4688 40.4908 44.0077 36.0297 44.0077 30.5267C44.0077 25.0236 48.4688 20.5625 53.9719 20.5625C59.4749 20.5625 63.936 25.0236 63.936 30.5267C63.936 36.0297 59.4749 40.4908 53.9719 40.4908Z" fill="black"/>
<path d="M38.7324 26.7168C38.7324 28.8209 37.0267 30.5266 34.9226 30.5266C32.8185 30.5266 31.1128 28.8209 31.1128 26.7168C31.1128 24.6127 32.8185 22.907 34.9226 22.907C37.0267 22.907 38.7324 24.6127 38.7324 26.7168Z" fill="black"/>
<path d="M46.9382 26.7168C46.9382 28.8209 48.6439 30.5266 50.748 30.5266C52.8521 30.5266 54.5579 28.8209 54.5579 26.7168C54.5579 24.6127 52.8521 22.907 50.748 22.907C48.6439 22.907 46.9382 24.6127 46.9382 26.7168Z" fill="black"/>
<path d="M36.9742 24.3724C36.9742 24.8579 36.5806 25.2515 36.095 25.2515C35.6094 25.2515 35.2158 24.8579 35.2158 24.3724C35.2158 23.8868 35.6094 23.4932 36.095 23.4932C36.5806 23.4932 36.9742 23.8868 36.9742 24.3724Z" fill="white"/>
<path d="M48.6967 24.3724C48.6967 24.8579 49.0903 25.2515 49.5759 25.2515C50.0615 25.2515 50.4551 24.8579 50.4551 24.3724C50.4551 23.8868 50.0615 23.4932 49.5759 23.4932C49.0903 23.4932 48.6967 23.8868 48.6967 24.3724Z" fill="white"/>
<path d="M39.3185 32.7887C39.3185 34.8062 37.0896 38.1464 32.1204 38.1464C27.1512 38.1464 24.6653 34.8062 24.6653 32.7887C24.6653 30.7712 27.1512 35.4676 32.1204 35.4676C37.0896 35.4676 39.3185 30.7712 39.3185 32.7887Z" fill="#DFECF1"/>
<path d="M46.3522 32.7887C46.3522 34.8062 48.581 38.1464 53.5502 38.1464C58.5195 38.1464 61.0054 34.8062 61.0054 32.7887C61.0054 30.7712 58.5195 35.4676 53.5502 35.4676C48.581 35.4676 46.3522 30.7712 46.3522 32.7887Z" fill="#DFECF1"/>
<path fill-rule="evenodd" clip-rule="evenodd" d="M26.788 19.6762C24.0779 22.9992 22.2548 28.4231 21.4236 32.4623C21.3258 32.9379 20.8609 33.2442 20.3853 33.1463C19.9097 33.0484 19.6035 32.5835 19.7013 32.1079C20.5522 27.9728 22.4473 22.2164 25.4253 18.5649C26.9206 16.7314 28.7734 15.3263 30.9969 15.0453C33.2448 14.7612 35.6422 15.6528 38.15 17.9214C38.5101 18.2471 38.5379 18.8031 38.2122 19.1632C37.8864 19.5233 37.3305 19.5511 36.9704 19.2254C34.6975 17.1694 32.7902 16.591 31.2174 16.7898C29.6204 16.9916 28.1367 18.0224 26.788 19.6762Z" fill="black"/>
<path fill-rule="evenodd" clip-rule="evenodd" d="M58.8827 19.6762C61.5927 22.9992 63.4159 28.4231 64.247 32.4623C64.3449 32.9379 64.8098 33.2442 65.2854 33.1463C65.761 33.0484 66.0672 32.5835 65.9693 32.1079C65.1184 27.9728 63.2233 22.2164 60.2454 18.5649C58.7501 16.7314 56.8973 15.3263 54.6737 15.0453C52.4258 14.7612 50.0285 15.6528 47.5207 17.9214C47.1606 18.2471 47.1328 18.8031 47.4585 19.1632C47.7842 19.5233 48.3402 19.5511 48.7003 19.2254C50.9731 17.1694 52.8805 16.591 54.4532 16.7898C56.0503 16.9916 57.5339 18.0224 58.8827 19.6762Z" fill="black"/>
<path d="M62.7636 58.7535C62.7636 64.5032 54.0532 63.1115 42.7033 63.1115C30.2345 63.1115 22.907 64.6251 22.907 60.025C22.907 54.4566 30.8325 42.8354 41.9115 42.8354C52.9905 42.8354 62.7636 53.0039 62.7636 58.7535Z" fill="black"/>
<path fill-rule="evenodd" clip-rule="evenodd" d="M21.2902 59.3076C21.5804 59.4511 21.6994 59.8026 21.5559 60.0928C21.1807 60.8521 20.9672 61.924 21.3539 62.7826C21.7131 63.5802 22.7048 64.4263 25.2735 64.5225C25.597 64.5346 25.8494 64.8067 25.8372 65.1302C25.8251 65.4537 25.5531 65.7061 25.2296 65.6939C22.435 65.5892 20.9024 64.635 20.285 63.264C19.695 61.9539 20.0526 60.4888 20.505 59.5734C20.6485 59.2832 21 59.1642 21.2902 59.3076Z" fill="black"/>
<path fill-rule="evenodd" clip-rule="evenodd" d="M64.2969 59.3208C64.014 59.4781 63.9121 59.835 64.0694 60.1179C64.4901 60.8745 64.7198 61.9225 64.2963 62.7584C63.8914 63.5575 62.7488 64.4246 59.8135 64.5224C59.49 64.5332 59.2365 64.8042 59.2472 65.1277C59.258 65.4512 59.529 65.7048 59.8525 65.694C62.9509 65.5908 64.6481 64.6577 65.342 63.2882C66.0172 61.9554 65.6044 60.4662 65.094 59.5482C64.9367 59.2653 64.5798 59.1635 64.2969 59.3208Z" fill="black"/>
<path d="M32.8583 65.3098C33.2727 64.4817 33.3763 63.412 33.3763 62.9807C33.5835 59.0469 37.4342 59.6163 39.3336 60.3927C41.4056 60.9103 42.7525 61.6349 45.0318 60.3927C47.8809 58.8399 52.2841 60.9103 51.507 62.7219C50.8854 64.1711 51.248 65.2236 51.507 65.5686C54.6151 68.1566 54.3561 71.521 53.0611 72.2974C51.766 73.0738 41.1466 73.8502 34.1534 72.815C27.1601 71.7798 32.3403 66.345 32.8583 65.3098Z" fill="#FF5757"/>
<path fill-rule="evenodd" clip-rule="evenodd" d="M42.8353 61.2983C42.9972 61.2983 43.1284 61.4295 43.1284 61.5914V68.0388C43.1284 68.2007 42.9972 68.3319 42.8353 68.3319C42.6734 68.3319 42.5422 68.2007 42.5422 68.0388V61.5914C42.5422 61.4295 42.6734 61.2983 42.8353 61.2983Z" fill="#FF8484"/>
</svg>
