<svg width="86" height="87" viewBox="0 0 86 87" fill="none" xmlns="http://www.w3.org/2000/svg">
<path d="M0.999999 39.726C1 21.9418 1 13.0497 6.52485 7.52485C12.0497 2 20.9418 2 38.726 2H47.274C65.0582 2 73.9503 2 79.4752 7.52485C85 13.0497 85 21.9418 85 39.726L85 48.274C85 66.0582 85 74.9503 79.4751 80.4752C73.9503 86 65.0582 86 47.274 86H38.726C20.9418 86 12.0497 86 6.52485 80.4752C0.999999 74.9503 0.999999 66.0582 0.999999 48.274L0.999999 39.726Z" fill="#FFB648"/>
<path fill-rule="evenodd" clip-rule="evenodd" d="M32.4287 20.0491C29.1648 21.3286 25.8788 23.5054 23.8569 25.1229C23.4554 25.4442 22.8695 25.3791 22.5483 24.9775C22.2271 24.576 22.2922 23.9902 22.6937 23.669C24.8096 21.9762 28.2579 19.6842 31.749 18.3155C33.494 17.6314 35.3022 17.1569 36.9893 17.1342C38.6889 17.1112 40.3237 17.549 41.6026 18.7526C41.977 19.105 41.9948 19.6942 41.6424 20.0686C41.29 20.4431 40.7008 20.4609 40.3264 20.1085C39.495 19.326 38.3807 18.9776 37.0144 18.996C35.6357 19.0146 34.0612 19.409 32.4287 20.0491Z" fill="black"/>
<path fill-rule="evenodd" clip-rule="evenodd" d="M55.5575 20.4404C53.5537 20.8838 51.6671 22.0244 50.5572 22.9413C50.1608 23.2688 49.5739 23.2129 49.2465 22.8165C48.919 22.42 48.9749 21.8332 49.3713 21.5057C50.6406 20.4572 52.7884 19.1461 55.1552 18.6223C57.5529 18.0917 60.2826 18.3585 62.4362 20.6557C62.7879 21.0309 62.7689 21.62 62.3938 21.9717C62.0187 22.3234 61.4295 22.3044 61.0778 21.9293C59.5075 20.2542 57.5304 20.0038 55.5575 20.4404Z" fill="black"/>
<path d="M44.0679 40.2232C44.0679 46.3933 39.066 51.3953 32.8958 51.3953C26.7256 51.3953 21.7236 46.3933 21.7236 40.2232C21.7236 34.053 26.7256 29.051 32.8958 29.051C39.066 29.051 44.0679 34.053 44.0679 40.2232Z" fill="white"/>
<path fill-rule="evenodd" clip-rule="evenodd" d="M32.8958 50.1539C38.3804 50.1539 42.8265 45.7078 42.8265 40.2232C42.8265 34.7385 38.3804 30.2924 32.8958 30.2924C27.4111 30.2924 22.965 34.7385 22.965 40.2232C22.965 45.7078 27.4111 50.1539 32.8958 50.1539ZM32.8958 51.3953C39.066 51.3953 44.0679 46.3933 44.0679 40.2232C44.0679 34.053 39.066 29.051 32.8958 29.051C26.7256 29.051 21.7236 34.053 21.7236 40.2232C21.7236 46.3933 26.7256 51.3953 32.8958 51.3953Z" fill="black"/>
<path d="M66.4121 40.2232C66.4121 46.3933 61.4102 51.3953 55.24 51.3953C49.0698 51.3953 44.0679 46.3933 44.0679 40.2232C44.0679 34.053 49.0698 29.051 55.24 29.051C61.4102 29.051 66.4121 34.053 66.4121 40.2232Z" fill="white"/>
<path fill-rule="evenodd" clip-rule="evenodd" d="M55.24 50.1539C60.7246 50.1539 65.1708 45.7078 65.1708 40.2232C65.1708 34.7385 60.7246 30.2924 55.24 30.2924C49.7554 30.2924 45.3092 34.7385 45.3092 40.2232C45.3092 45.7078 49.7554 50.1539 55.24 50.1539ZM55.24 51.3953C61.4102 51.3953 66.4121 46.3933 66.4121 40.2232C66.4121 34.053 61.4102 29.051 55.24 29.051C49.0698 29.051 44.0679 34.053 44.0679 40.2232C44.0679 46.3933 49.0698 51.3953 55.24 51.3953Z" fill="black"/>
<path d="M33.5163 35.2578C33.5163 37.6573 31.5711 39.6025 29.1716 39.6025C26.7721 39.6025 24.8269 37.6573 24.8269 35.2578C24.8269 32.8583 26.7721 30.9131 29.1716 30.9131C31.5711 30.9131 33.5163 32.8583 33.5163 35.2578Z" fill="black"/>
<path fill-rule="evenodd" clip-rule="evenodd" d="M29.1716 38.3612C30.8856 38.3612 32.275 36.9717 32.275 35.2578C32.275 33.5439 30.8856 32.1544 29.1716 32.1544C27.4577 32.1544 26.0683 33.5439 26.0683 35.2578C26.0683 36.9717 27.4577 38.3612 29.1716 38.3612ZM29.1716 39.6025C31.5711 39.6025 33.5163 37.6573 33.5163 35.2578C33.5163 32.8583 31.5711 30.9131 29.1716 30.9131C26.7721 30.9131 24.8269 32.8583 24.8269 35.2578C24.8269 37.6573 26.7721 39.6025 29.1716 39.6025Z" fill="black"/>
<path d="M55.8606 35.2578C55.8606 37.6573 53.9154 39.6025 51.5159 39.6025C49.1163 39.6025 47.1711 37.6573 47.1711 35.2578C47.1711 32.8583 49.1163 30.9131 51.5159 30.9131C53.9154 30.9131 55.8606 32.8583 55.8606 35.2578Z" fill="black"/>
<path fill-rule="evenodd" clip-rule="evenodd" d="M51.5159 38.3612C53.2298 38.3612 54.6192 36.9717 54.6192 35.2578C54.6192 33.5439 53.2298 32.1544 51.5159 32.1544C49.8019 32.1544 48.4125 33.5439 48.4125 35.2578C48.4125 36.9717 49.8019 38.3612 51.5159 38.3612ZM51.5159 39.6025C53.9154 39.6025 55.8606 37.6573 55.8606 35.2578C55.8606 32.8583 53.9154 30.9131 51.5159 30.9131C49.1163 30.9131 47.1711 32.8583 47.1711 35.2578C47.1711 37.6573 49.1163 39.6025 51.5159 39.6025Z" fill="black"/>
<path d="M30.413 34.0163C30.413 35.0447 29.5794 35.8783 28.551 35.8783C27.5226 35.8783 26.689 35.0447 26.689 34.0163C26.689 32.988 27.5226 32.1543 28.551 32.1543C29.5794 32.1543 30.413 32.988 30.413 34.0163Z" fill="white"/>
<path d="M52.7572 34.0163C52.7572 35.0447 51.9236 35.8783 50.8952 35.8783C49.8669 35.8783 49.0332 35.0447 49.0332 34.0163C49.0332 32.988 49.8669 32.1543 50.8952 32.1543C51.9236 32.1543 52.7572 32.988 52.7572 34.0163Z" fill="white"/>
<path fill-rule="evenodd" clip-rule="evenodd" d="M44.1822 56.3747C38.9264 57.1152 33.7763 59.81 30.6496 62.0794C30.2335 62.3814 29.6513 62.2889 29.3492 61.8728C29.0472 61.4567 29.1397 60.8745 29.5558 60.5725C32.8427 58.1868 38.2751 55.3266 43.9225 54.5309C49.6168 53.7286 55.6335 55.0283 59.7361 61.116C60.0234 61.5424 59.9107 62.121 59.4843 62.4083C59.0579 62.6957 58.4793 62.583 58.192 62.1566C54.5982 56.8238 49.3911 55.6408 44.1822 56.3747Z" fill="black"/>
<path fill-rule="evenodd" clip-rule="evenodd" d="M45.8514 60.1477C43.5162 60.4987 41.3241 61.4293 40.0332 62.174C39.7363 62.3453 39.3568 62.2435 39.1855 61.9466C39.0142 61.6497 39.116 61.2701 39.4129 61.0988C40.8117 60.2918 43.1505 59.2984 45.6669 58.9201C48.1772 58.5427 50.9706 58.7644 53.1486 60.534C53.4147 60.7502 53.4551 61.1411 53.2389 61.4071C53.0228 61.6732 52.6319 61.7136 52.3658 61.4975C50.5715 60.0396 48.1927 59.7957 45.8514 60.1477Z" fill="black"/>
<path fill-rule="evenodd" clip-rule="evenodd" d="M23.952 59.7768C24.2934 59.8078 24.545 60.1097 24.514 60.4511C24.4179 61.5078 24.5524 63.1043 25.2392 64.4403C25.9058 65.737 27.0921 66.8017 29.2042 66.9128C29.5465 66.9308 29.8094 67.2229 29.7914 67.5653C29.7734 67.9076 29.4812 68.1705 29.1389 68.1524C26.5339 68.0153 24.9789 66.649 24.1352 65.0079C23.3117 63.406 23.1669 61.5577 23.2777 60.3387C23.3087 59.9973 23.6106 59.7457 23.952 59.7768Z" fill="black"/>
<path d="M41.5852 42.7251C41.5852 45.2888 38.9417 49.5333 33.0482 49.5333C27.1546 49.5333 24.2063 45.2888 24.2063 42.7251C24.2063 40.1614 27.1546 46.1292 33.0482 46.1292C38.9417 46.1292 41.5852 40.1614 41.5852 42.7251Z" fill="#DFECF1"/>
<path d="M63.9294 42.7251C63.9294 45.2888 61.286 49.5333 55.3924 49.5333C49.4989 49.5333 46.5505 45.2888 46.5505 42.7251C46.5505 40.1614 49.4989 46.1292 55.3924 46.1292C61.286 46.1292 63.9294 40.1614 63.9294 42.7251Z" fill="#DFECF1"/>
</svg>
