<svg width="83" height="87" viewBox="0 0 83 87" fill="none" xmlns="http://www.w3.org/2000/svg">
<path d="M0.579409 40.3541C0.546233 22.5699 0.529646 13.6779 6.04419 8.15301C11.5587 2.62817 20.4508 2.62817 38.2351 2.62817L44.4214 2.62817C62.2056 2.62817 71.0977 2.62817 76.6329 8.15301C82.168 13.6779 82.1846 22.5699 82.2178 40.3541L82.2296 46.7103C82.2628 64.4945 82.2794 73.3866 76.7649 78.9114C71.2503 84.4363 62.3582 84.4363 44.574 84.4363H38.3876C20.6034 84.4363 11.7113 84.4363 6.17618 78.9114C0.641028 73.3866 0.624441 64.4945 0.591266 46.7103L0.579409 40.3541Z" fill="#F28585"/>
<path d="M26.73 56.3604C29.5573 51.3765 35.2709 50.4138 40.8666 52.6791C56.6526 48.3749 58.832 59.9472 57.9485 66.2713H25.2574C24.5702 64.7611 23.9026 61.3442 26.73 56.3604Z" fill="#DE3D3D"/>
<path d="M27.5531 63.8757C25.2368 64.5388 24.6577 67.0989 24.6577 68.2961C26.6845 71.6114 59.1128 71.8877 59.9814 68.8487C60.6763 66.4175 58.6639 63.9811 57.3756 63.8757C37.1079 62.2181 30.4485 63.0469 27.5531 63.8757Z" fill="white"/>
<path d="M25.1667 46.7265C23.3131 47.3798 22.2704 44.6399 21.9807 43.1882C23.0427 40.9201 26.6729 37.0371 32.6974 39.65C38.7218 42.2628 43.8967 41.8274 45.7311 41.283C56.3898 36.9282 60.2131 40.7387 60.7923 43.1882C60.6958 45.0028 59.46 48.0874 55.2892 45.91C50.0757 43.1882 27.4839 45.91 25.1667 46.7265Z" fill="white"/>
<path fill-rule="evenodd" clip-rule="evenodd" d="M22.8275 40.1134C24.3242 38.3788 26.2537 37.2923 28.6367 37.4529C31.8723 37.671 33.979 38.6013 35.7989 39.4049C36.5117 39.7197 37.1806 40.015 37.856 40.2405C40.2561 41.0419 43.2374 41.2369 49.7519 38.6832C53.4773 37.2228 56.4037 37.4167 58.6486 38.8055C60.8583 40.1727 62.2644 42.6127 63.1655 45.3407C64.9669 50.7952 64.8847 57.826 64.7381 61.3824C64.6141 64.3898 63.4508 66.8292 61.9963 68.5211C60.5703 70.1796 58.7743 71.2142 57.3258 71.2142C55.6898 71.2142 53.4338 71.2902 50.8351 71.3778C48.8529 71.4446 46.6713 71.5181 44.4131 71.5697C39.2266 71.6883 33.668 71.6898 29.3969 71.21C25.0212 70.7185 22.3319 69.0144 20.684 67.0217C19.0507 65.0467 18.4949 62.8537 18.2566 61.4686C17.6505 57.9453 17.9594 51.8887 19.4898 46.7746C20.2557 44.215 21.3446 41.832 22.8275 40.1134ZM20.7717 47.1598C19.2932 52.1006 19.0088 57.9465 19.5755 61.2408C19.7962 62.5234 20.2959 64.4506 21.7145 66.166C23.1185 67.8638 25.4774 69.4203 29.546 69.8773C33.7191 70.346 39.198 70.3475 44.3826 70.229C46.5986 70.1783 48.7669 70.1054 50.7491 70.0388C53.3758 69.9504 55.6755 69.8731 57.3258 69.8731C58.2229 69.8731 59.6815 69.1588 60.9823 67.6457C62.2546 66.1659 63.2903 64.0108 63.4009 61.327C63.5475 57.7693 63.6119 50.9607 61.8949 45.7621C61.0367 43.1637 59.7673 41.0738 57.9455 39.9467C56.1588 38.8413 53.6976 38.5765 50.2395 39.9321C43.5598 42.5506 40.2373 42.4492 37.433 41.5129C36.5816 41.2286 35.8238 40.8928 35.0612 40.5547C33.3118 39.7793 31.5367 38.9925 28.5469 38.791C26.6853 38.6656 25.1365 39.4879 23.8399 40.9906C22.5295 42.5092 21.5102 44.6919 20.7717 47.1598Z" fill="black"/>
<path fill-rule="evenodd" clip-rule="evenodd" d="M15.5352 55.5488C15.9013 55.5994 16.1572 55.9378 16.1067 56.3047C15.8754 57.986 15.8485 60.6636 16.5166 63.1839C17.1853 65.7066 18.5158 67.9588 20.9111 69.0101C21.2496 69.1586 21.4038 69.5541 21.2556 69.8933C21.1073 70.2325 20.7127 70.3871 20.3741 70.2385C17.4551 68.9574 15.9455 66.2533 15.2231 63.5282C14.5 60.8006 14.5309 57.9388 14.7809 56.1215C14.8314 55.7547 15.1691 55.4983 15.5352 55.5488Z" fill="black"/>
<path fill-rule="evenodd" clip-rule="evenodd" d="M67.5199 55.2102C67.1586 55.2883 66.9289 55.6451 67.0068 56.0071C67.3639 57.6661 67.5921 60.3341 67.1154 62.8976C66.6383 65.4637 65.481 67.81 63.1716 69.0391C62.8452 69.2128 62.7211 69.6188 62.8945 69.9458C63.0678 70.2729 63.4729 70.3972 63.7993 70.2235C66.6137 68.7256 67.9157 65.9152 68.4311 63.1433C68.947 60.3689 68.701 57.5175 68.3151 55.7243C68.2371 55.3623 67.8811 55.1321 67.5199 55.2102Z" fill="black"/>
<path d="M28.5802 23.3959C20.6695 22.6789 18.3194 31.729 18.1256 36.31C24.971 34.8914 34.6901 36.3478 39.341 37.4374C39.6319 35.3461 38.4685 24.2922 28.5802 23.3959Z" fill="white"/>
<path fill-rule="evenodd" clip-rule="evenodd" d="M17.4865 35.764C16.3503 36.0281 15.2851 36.3777 14.3324 36.832C13.9987 36.9912 13.857 37.3913 14.0158 37.7257C14.1746 38.0601 14.5739 38.2021 14.9076 38.043C15.8785 37.5799 17.0107 37.2258 18.261 36.9667C24.9585 35.5787 34.5598 37.006 39.1886 38.0905L39.9025 38.2577L40.0037 37.5301C40.0894 36.9135 40.0612 35.7559 39.8329 34.3775C39.6023 32.985 39.1594 31.3167 38.3819 29.6803C36.82 26.3933 33.8827 23.2033 28.6403 22.7282C24.3539 22.3396 21.5714 24.6288 19.8812 27.528C18.327 30.1939 17.6541 33.426 17.4865 35.764ZM18.8516 35.4918C25.3886 34.3881 33.9969 35.5862 38.7089 36.6079C38.7006 36.0949 38.6462 35.4031 38.5127 34.5971C38.298 33.3008 37.8865 31.7574 37.1735 30.2569C35.7543 27.2701 33.1658 24.4849 28.5198 24.0638C24.8955 23.7353 22.5477 25.6128 21.0367 28.2045C19.6923 30.5107 19.0507 33.3341 18.8516 35.4918Z" fill="black"/>
<path d="M54.8625 23.394C62.7732 22.7111 65.1144 31.3286 65.3083 35.6914C58.4633 34.3432 48.7505 35.7296 44.1016 36.7669C43.8108 34.7752 44.9741 24.2476 54.8625 23.394Z" fill="white"/>
<path fill-rule="evenodd" clip-rule="evenodd" d="M65.9451 35.1395C67.0814 35.3908 68.1465 35.7235 69.0989 36.1561C69.4355 36.309 69.5847 36.7064 69.4321 37.0437C69.2795 37.381 68.883 37.5305 68.5464 37.3776C67.5716 36.9349 66.4347 36.5966 65.1794 36.3494C58.4753 35.029 48.8746 36.3889 44.2471 37.4214L43.5439 37.5783L43.4396 36.864C43.3525 36.2677 43.3817 35.158 43.6106 33.842C43.842 32.5112 44.2864 30.9172 45.0664 29.3538C46.6356 26.2085 49.5774 23.1772 54.8051 22.726C59.0729 22.3576 61.8537 24.526 63.5499 27.3003C65.1003 29.8361 65.7739 32.908 65.9451 35.1395ZM64.579 34.8803C58.0461 33.8316 49.4424 34.9727 44.7343 35.9454C44.7443 35.4647 44.7988 34.8213 44.9291 34.0723C45.1429 32.8424 45.5529 31.3777 46.2635 29.9535C47.6753 27.1238 50.2593 24.4644 54.92 24.0621C58.5629 23.7477 60.9081 25.5465 62.4087 28.0009C63.7387 30.1763 64.3768 32.8372 64.579 34.8803Z" fill="black"/>
<path d="M36.7579 34.8897C37.5975 35.2701 37.7367 36.0731 36.8213 35.9671C35.2393 35.7839 32.2684 34.9581 28.5696 34.8843C24.3821 34.8008 21.2736 35.0195 19.9921 34.9223C19.5207 34.8866 19.4794 34.466 19.9019 34.2536C21.2399 33.5811 24.5779 33.2589 28.8923 33.152C32.4681 33.2234 35.2348 34.1996 36.7579 34.8897Z" fill="#DFECF1"/>
<path d="M62.8848 33.1714C63.7645 33.4463 64.0004 34.2263 63.0789 34.233C61.4865 34.2447 58.4372 33.7885 54.757 34.1676C50.5907 34.5969 47.5321 35.1941 46.2483 35.2544C45.7761 35.2766 45.6839 34.8642 46.0774 34.6017C47.3234 33.7706 50.5972 33.0426 54.8664 32.4088C58.4241 32.0422 61.2891 32.6728 62.8848 33.1714Z" fill="#DFECF1"/>
<path d="M33.3569 32.0732C33.3569 34.2952 31.5593 36.0965 29.3419 36.0965C27.1245 36.0965 25.3269 34.2952 25.3269 32.0732C25.3269 29.8511 27.1245 28.0498 29.3419 28.0498C31.5593 28.0498 33.3569 29.8511 33.3569 32.0732Z" fill="black"/>
<path d="M50.086 31.4023C50.086 33.6243 51.8836 35.4256 54.101 35.4256C56.3184 35.4256 58.116 33.6243 58.116 31.4023C58.116 29.1802 56.3184 27.3789 54.101 27.3789C51.8836 27.3789 50.086 29.1802 50.086 31.4023Z" fill="black"/>
<path d="M30.6801 33.4141C30.6801 34.1548 30.0809 34.7552 29.3417 34.7552C28.6026 34.7552 28.0034 34.1548 28.0034 33.4141C28.0034 32.6734 28.6026 32.073 29.3417 32.073C30.0809 32.073 30.6801 32.6734 30.6801 33.4141Z" fill="white"/>
<path d="M52.7623 33.4141C52.7623 34.1548 53.3615 34.7552 54.1006 34.7552C54.8398 34.7552 55.439 34.1548 55.439 33.4141C55.439 32.6734 54.8398 32.073 54.1006 32.073C53.3615 32.073 52.7623 32.6734 52.7623 33.4141Z" fill="white"/>
<path fill-rule="evenodd" clip-rule="evenodd" d="M27.3034 16.3221C35.5219 16.07 39.4176 22.5304 40.3438 25.7603C40.4969 26.2942 40.1891 26.8514 39.6563 27.0048C39.1235 27.1583 38.5675 26.8498 38.4144 26.3159C37.6198 23.5452 34.2885 18.1204 27.3648 18.3328C26.8107 18.3498 26.3478 17.9135 26.3308 17.3583C26.3138 16.803 26.7493 16.3391 27.3034 16.3221Z" fill="black"/>
<path fill-rule="evenodd" clip-rule="evenodd" d="M56.1393 15.6515C47.9207 15.3993 44.0251 21.8597 43.0989 25.0897C42.9458 25.6236 43.2536 26.1808 43.7864 26.3342C44.3191 26.4876 44.8752 26.1792 45.0283 25.6453C45.8228 22.8745 49.1541 17.4498 56.0778 17.6622C56.6319 17.6792 57.0949 17.2429 57.1118 16.6876C57.1288 16.1324 56.6934 15.6685 56.1393 15.6515Z" fill="black"/>
</svg>
