<svg width="163" height="148" viewBox="0 0 163 148" fill="none" xmlns="http://www.w3.org/2000/svg">
<path d="M24.5237 32.0806C29.3015 14.9501 31.6904 6.38493 38.4936 2.55738C45.2969 -1.27016 53.8576 1.1347 70.9791 5.94443L139.035 25.0627C156.157 29.8724 164.718 32.2773 168.552 39.0932C172.387 45.9091 169.998 54.4743 165.22 71.6048L146.135 140.035C141.357 157.165 138.968 165.73 132.165 169.558C125.362 173.386 116.801 170.981 99.6794 166.171L31.623 147.053C14.5015 142.243 5.94079 139.838 2.10609 133.022C-1.7286 126.206 0.660299 117.641 5.43809 100.511L24.5237 32.0806Z" fill="#F28585"/>
<path d="M59.0599 109.029C64.1212 100.105 74.3492 98.3806 84.3663 102.437C112.625 94.7297 116.527 115.452 114.945 126.777H56.4238C55.1936 124.072 53.9986 117.954 59.0599 109.029Z" fill="#DE3D3D"/>
<path d="M60.5334 122.487C56.387 123.674 55.3503 128.259 55.3503 130.403C58.9785 136.339 117.029 136.834 118.584 131.392C119.828 127.038 116.226 122.676 113.919 122.487C77.6377 119.519 65.7165 121.003 60.5334 122.487Z" fill="white"/>
<path d="M56.2615 91.7776C52.9432 92.9474 51.0766 88.041 50.5581 85.4416C52.4592 81.3801 58.9576 74.4267 69.7422 79.1056C80.5268 83.7845 89.7905 83.0047 93.0742 82.0299C112.155 74.2318 118.999 81.0552 120.036 85.4416C119.863 88.6909 117.651 94.2146 110.184 90.3155C100.852 85.4416 60.4094 90.3155 56.2615 91.7776Z" fill="white"/>
<path fill-rule="evenodd" clip-rule="evenodd" d="M52.0741 79.9357C54.7534 76.8296 58.2075 74.884 62.4733 75.1716C68.2655 75.5621 72.0366 77.2279 75.2946 78.667C76.5706 79.2307 77.7679 79.7595 78.977 80.1634C83.2734 81.5984 88.6104 81.9476 100.272 77.3746C106.941 74.7596 112.18 75.1067 116.198 77.5937C120.154 80.0419 122.671 84.4112 124.284 89.2963C127.509 99.0635 127.362 111.654 127.099 118.022C126.877 123.407 124.795 127.776 122.191 130.805C119.638 133.775 116.423 135.628 113.83 135.628C110.902 135.628 106.863 135.764 102.211 135.921C98.6628 136.04 94.7574 136.172 90.7151 136.265C81.4305 136.477 71.48 136.48 63.8341 135.62C56.0011 134.74 51.1869 131.689 48.237 128.12C45.3132 124.584 44.3182 120.657 43.8917 118.176C42.8067 111.867 43.3596 101.022 46.0991 91.8639C47.4702 87.2804 49.4195 83.0133 52.0741 79.9357ZM48.3939 92.5536C45.7473 101.401 45.2382 111.869 46.2527 117.768C46.6477 120.065 47.5422 123.516 50.0817 126.588C52.595 129.628 56.8177 132.415 64.101 133.234C71.5714 134.073 81.3792 134.076 90.6604 133.864C94.6273 133.773 98.5089 133.642 102.057 133.523C106.759 133.365 110.876 133.226 113.83 133.226C115.436 133.226 118.047 131.947 120.376 129.238C122.653 126.588 124.507 122.729 124.705 117.923C124.968 111.552 125.083 99.3599 122.01 90.0509C120.473 85.3978 118.201 81.6555 114.94 79.6372C111.741 77.6577 107.335 77.1836 101.145 79.6111C89.1875 84.3 83.2397 84.1184 78.2197 82.4418C76.6956 81.9327 75.3391 81.3313 73.9739 80.726C70.8423 79.3375 67.6647 77.9286 62.3125 77.5677C58.9801 77.3431 56.2075 78.8157 53.8864 81.5065C51.5407 84.2258 49.7159 88.1344 48.3939 92.5536Z" fill="black"/>
<path fill-rule="evenodd" clip-rule="evenodd" d="M39.0198 107.576C39.6751 107.666 40.1332 108.272 40.0428 108.929C39.6287 111.94 39.5805 116.735 40.7765 121.248C41.9737 125.765 44.3554 129.798 48.6432 131.681C49.2492 131.947 49.5253 132.655 49.2598 133.262C48.9944 133.87 48.288 134.147 47.682 133.881C42.4566 131.586 39.7542 126.744 38.461 121.864C37.1667 116.98 37.2219 111.856 37.6695 108.601C37.7598 107.944 38.3644 107.485 39.0198 107.576Z" fill="black"/>
<path fill-rule="evenodd" clip-rule="evenodd" d="M132.079 106.969C131.432 107.109 131.021 107.748 131.16 108.396C131.8 111.367 132.208 116.145 131.355 120.735C130.501 125.33 128.429 129.532 124.295 131.733C123.711 132.044 123.488 132.771 123.799 133.356C124.109 133.942 124.834 134.165 125.419 133.854C130.457 131.171 132.787 126.139 133.71 121.175C134.634 116.207 134.193 111.101 133.502 107.89C133.363 107.242 132.725 106.83 132.079 106.969Z" fill="black"/>
<path d="M62.3718 49.9997C48.2107 48.7158 44.0038 64.9218 43.6568 73.1249C55.911 70.5846 73.3094 73.1927 81.6351 75.1438C82.1557 71.399 80.0732 51.6047 62.3718 49.9997Z" fill="white"/>
<path fill-rule="evenodd" clip-rule="evenodd" d="M42.5129 72.1472C40.4789 72.6202 38.5721 73.2462 36.8667 74.0597C36.2694 74.3447 36.0156 75.0612 36.2999 75.66C36.5842 76.2588 37.2989 76.5132 37.8963 76.2282C39.6345 75.399 41.6612 74.7649 43.8993 74.3009C55.8888 71.8155 73.0762 74.3713 81.3623 76.3132L82.6403 76.6127L82.8215 75.3097C82.975 74.2056 82.9245 72.1328 82.5158 69.6644C82.1029 67.1709 81.3101 64.1835 79.9182 61.2532C77.1223 55.3671 71.864 49.6549 62.4796 48.804C54.8064 48.1083 49.8253 52.2074 46.7996 57.3991C44.0175 62.1729 42.8129 67.9606 42.5129 72.1472ZM44.9566 71.6597C56.6586 69.6833 72.0685 71.8289 80.5036 73.6584C80.4888 72.7398 80.3913 71.501 80.1523 70.0576C79.768 67.7363 79.0314 64.9727 77.7551 62.2857C75.2146 56.9372 70.5808 51.9498 62.2638 51.1958C55.776 50.6075 51.5731 53.9694 48.8683 58.6105C46.4616 62.7401 45.313 67.796 44.9566 71.6597Z" fill="black"/>
<path d="M109.42 49.9963C123.582 48.7735 127.773 64.2047 128.12 72.0172C115.866 69.603 98.4793 72.0856 90.1571 73.9431C89.6365 70.3765 91.719 51.5248 109.42 49.9963Z" fill="white"/>
<path fill-rule="evenodd" clip-rule="evenodd" d="M129.26 71.0289C131.294 71.479 133.2 72.0748 134.905 72.8495C135.508 73.1232 135.775 73.8348 135.502 74.4388C135.229 75.0429 134.519 75.3106 133.916 75.0368C132.171 74.244 130.136 73.6382 127.889 73.1954C115.888 70.831 98.7013 73.2663 90.4175 75.1152L89.1586 75.3962L88.9719 74.117C88.8161 73.0492 88.8684 71.0621 89.2781 68.7056C89.6924 66.3224 90.4879 63.468 91.8841 60.6685C94.6933 55.0362 99.9594 49.6081 109.318 48.8C116.957 48.1403 121.936 52.0234 124.972 56.9913C127.747 61.5322 128.953 67.0331 129.26 71.0289ZM126.814 70.5649C115.119 68.6869 99.7177 70.7303 91.2897 72.4721C91.3076 71.6112 91.4051 70.4591 91.6383 69.1179C92.0212 66.9155 92.755 64.2928 94.027 61.7424C96.5543 56.6752 101.18 51.9131 109.523 51.1927C116.045 50.6296 120.243 53.8507 122.929 58.2459C125.31 62.1413 126.452 66.9063 126.814 70.5649Z" fill="black"/>
<path d="M77.0109 70.5814C78.5139 71.2627 78.7631 72.7006 77.1244 72.5107C74.2924 72.1827 68.9741 70.704 62.3528 70.5719C54.8567 70.4223 49.292 70.8138 46.998 70.6399C46.1542 70.5759 46.0802 69.8227 46.8366 69.4424C49.2318 68.2382 55.2072 67.6612 62.9305 67.4698C69.3316 67.5976 74.2844 69.3457 77.0109 70.5814Z" fill="#DFECF1"/>
<path d="M123.781 67.5047C125.356 67.997 125.779 69.3936 124.129 69.4057C121.278 69.4266 115.82 68.6096 109.232 69.2886C101.774 70.0572 96.2982 71.1267 94.0001 71.2347C93.1549 71.2745 92.9897 70.5359 93.6941 70.066C95.9247 68.5777 101.785 67.274 109.427 66.1391C115.796 65.4827 120.925 66.6118 123.781 67.5047Z" fill="#DFECF1"/>
<path d="M70.9225 65.5379C70.9225 69.5168 67.7046 72.7425 63.7352 72.7425C59.7657 72.7425 56.5479 69.5168 56.5479 65.5379C56.5479 61.5589 59.7657 58.3333 63.7352 58.3333C67.7046 58.3333 70.9225 61.5589 70.9225 65.5379Z" fill="black"/>
<path d="M100.87 64.3367C100.87 68.3157 104.088 71.5413 108.058 71.5413C112.027 71.5413 115.245 68.3157 115.245 64.3367C115.245 60.3577 112.027 57.1321 108.058 57.1321C104.088 57.1321 100.87 60.3577 100.87 64.3367Z" fill="black"/>
<path d="M66.1309 67.9391C66.1309 69.2655 65.0583 70.3407 63.7351 70.3407C62.412 70.3407 61.3394 69.2655 61.3394 67.9391C61.3394 66.6128 62.412 65.5376 63.7351 65.5376C65.0583 65.5376 66.1309 66.6128 66.1309 67.9391Z" fill="white"/>
<path d="M105.661 67.9391C105.661 69.2655 106.734 70.3407 108.057 70.3407C109.38 70.3407 110.453 69.2655 110.453 67.9391C110.453 66.6128 109.38 65.5376 108.057 65.5376C106.734 65.5376 105.661 66.6128 105.661 67.9391Z" fill="white"/>
<path fill-rule="evenodd" clip-rule="evenodd" d="M60.0863 37.3327C74.7985 36.8811 81.7723 48.4498 83.4303 54.2337C83.7044 55.1897 83.1533 56.1875 82.1996 56.4622C81.2458 56.7369 80.2505 56.1846 79.9764 55.2285C78.5541 50.267 72.5907 40.5529 60.1963 40.9333C59.2044 40.9637 58.3757 40.1824 58.3453 39.1881C58.315 38.1938 59.0944 37.3631 60.0863 37.3327Z" fill="black"/>
<path fill-rule="evenodd" clip-rule="evenodd" d="M111.706 36.1317C96.9937 35.6802 90.02 47.2489 88.3619 53.0327C88.0879 53.9888 88.6389 54.9865 89.5927 55.2613C90.5464 55.536 91.5418 54.9837 91.8158 54.0276C93.2381 49.0661 99.2016 39.352 111.596 39.7324C112.588 39.7628 113.417 38.9814 113.447 37.9872C113.477 36.9929 112.698 36.1622 111.706 36.1317Z" fill="black"/>
</svg>
