<svg width="86" height="86" viewBox="0 0 86 86" fill="none" xmlns="http://www.w3.org/2000/svg">
<path d="M0 37.726C0 19.9418 0 11.0497 5.52485 5.52485C11.0497 0 19.9418 0 37.726 0H48.274C66.0582 0 74.9503 0 80.4752 5.52485C86 11.0497 86 19.9418 86 37.726V48.274C86 66.0582 86 74.9503 80.4752 80.4752C74.9503 86 66.0582 86 48.274 86H37.726C19.9418 86 11.0497 86 5.52485 80.4752C0 74.9503 0 66.0582 0 48.274V37.726Z" fill="#FF6FD7"/>
<path d="M37.891 42.1013C37.891 48.6893 32.5504 54.03 25.9624 54.03C19.3743 54.03 14.0337 48.6893 14.0337 42.1013C14.0337 35.5133 19.3743 30.1726 25.9624 30.1726C32.5504 30.1726 37.891 35.5133 37.891 42.1013Z" fill="white"/>
<path fill-rule="evenodd" clip-rule="evenodd" d="M25.9624 52.6266C31.7753 52.6266 36.4877 47.9142 36.4877 42.1013C36.4877 36.2883 31.7753 31.576 25.9624 31.576C20.1494 31.576 15.4371 36.2883 15.4371 42.1013C15.4371 47.9142 20.1494 52.6266 25.9624 52.6266ZM25.9624 54.03C32.5504 54.03 37.891 48.6893 37.891 42.1013C37.891 35.5133 32.5504 30.1726 25.9624 30.1726C19.3743 30.1726 14.0337 35.5133 14.0337 42.1013C14.0337 48.6893 19.3743 54.03 25.9624 54.03Z" fill="black"/>
<path d="M43.1536 42.1013C43.1536 48.6893 48.4943 54.03 55.0823 54.03C61.6703 54.03 67.011 48.6893 67.011 42.1013C67.011 35.5133 61.6703 30.1726 55.0823 30.1726C48.4943 30.1726 43.1536 35.5133 43.1536 42.1013Z" fill="white"/>
<path fill-rule="evenodd" clip-rule="evenodd" d="M55.0823 52.6266C49.2693 52.6266 44.557 47.9142 44.557 42.1013C44.557 36.2883 49.2693 31.576 55.0823 31.576C60.8953 31.576 65.6076 36.2883 65.6076 42.1013C65.6076 47.9142 60.8953 52.6266 55.0823 52.6266ZM55.0823 54.03C48.4943 54.03 43.1536 48.6893 43.1536 42.1013C43.1536 35.5133 48.4943 30.1726 55.0823 30.1726C61.6703 30.1726 67.011 35.5133 67.011 42.1013C67.011 48.6893 61.6703 54.03 55.0823 54.03Z" fill="black"/>
<path d="M32.9791 42.1013C32.9791 44.814 30.78 47.0131 28.0673 47.0131C25.3546 47.0131 23.1555 44.814 23.1555 42.1013C23.1555 39.3885 25.3546 37.1895 28.0673 37.1895C30.78 37.1895 32.9791 39.3885 32.9791 42.1013Z" fill="black"/>
<path d="M48.0655 42.1013C48.0655 44.814 50.2646 47.0131 52.9774 47.0131C55.6901 47.0131 57.8892 44.814 57.8892 42.1013C57.8892 39.3885 55.6901 37.1895 52.9774 37.1895C50.2646 37.1895 48.0655 39.3885 48.0655 42.1013Z" fill="black"/>
<path d="M30.8741 41.3995C30.8741 42.1745 30.2458 42.8028 29.4708 42.8028C28.6957 42.8028 28.0674 42.1745 28.0674 41.3995C28.0674 40.6244 28.6957 39.9961 29.4708 39.9961C30.2458 39.9961 30.8741 40.6244 30.8741 41.3995Z" fill="white"/>
<path d="M50.1705 41.3995C50.1705 42.1745 50.7989 42.8028 51.5739 42.8028C52.349 42.8028 52.9773 42.1745 52.9773 41.3995C52.9773 40.6244 52.349 39.9961 51.5739 39.9961C50.7989 39.9961 50.1705 40.6244 50.1705 41.3995Z" fill="white"/>
<path fill-rule="evenodd" clip-rule="evenodd" d="M10.1746 36.8384C10.1746 36.2571 10.6458 35.7859 11.2271 35.7859H37.8912C38.4725 35.7859 38.9437 36.2571 38.9437 36.8384C38.9437 37.4197 38.4725 37.8909 37.8912 37.8909H11.2271C10.6458 37.8909 10.1746 37.4197 10.1746 36.8384Z" fill="black"/>
<path fill-rule="evenodd" clip-rule="evenodd" d="M70.8704 36.8384C70.8704 36.2571 70.3991 35.7859 69.8178 35.7859H43.1537C42.5724 35.7859 42.1012 36.2571 42.1012 36.8384C42.1012 37.4197 42.5724 37.8909 43.1537 37.8909H69.8178C70.3991 37.8909 70.8704 37.4197 70.8704 36.8384Z" fill="black"/>
<path d="M35.0842 44.8694C35.0842 47.5262 32.3092 51.9249 26.1223 51.9249C19.9354 51.9249 16.8403 47.5262 16.8403 44.8694C16.8403 42.2126 19.9354 48.3971 26.1223 48.3971C32.3092 48.3971 35.0842 42.2126 35.0842 44.8694Z" fill="#DFECF1"/>
<path d="M45.9605 44.8694C45.9605 47.5262 48.7355 51.9249 54.9224 51.9249C61.1093 51.9249 64.2043 47.5262 64.2043 44.8694C64.2043 42.2126 61.1093 48.3971 54.9224 48.3971C48.7355 48.3971 45.9605 42.2126 45.9605 44.8694Z" fill="#DFECF1"/>
<path fill-rule="evenodd" clip-rule="evenodd" d="M25.5751 19.488C22.9231 22.2027 20.159 25.9816 18.4238 28.6424C18.1062 29.1293 17.4541 29.2665 16.9672 28.949C16.4803 28.6315 16.343 27.9793 16.6605 27.4924C18.4337 24.7735 21.2831 20.869 24.0693 18.017C25.4509 16.6027 26.8877 15.3727 28.2219 14.706C28.8917 14.3713 29.6135 14.1386 30.3366 14.1562C31.1013 14.1749 31.8041 14.4743 32.3547 15.0799C35.1318 18.1347 39.3166 22.1576 41.0651 23.7895C41.4901 24.1861 41.5131 24.8522 41.1164 25.2771C40.7198 25.7021 40.0538 25.725 39.6288 25.3284C37.8689 23.6858 33.6335 19.6159 30.7971 16.4959C30.6459 16.3296 30.4936 16.2657 30.2852 16.2606C30.0353 16.2545 29.6662 16.3375 29.1629 16.5891C28.1508 17.0948 26.9124 18.119 25.5751 19.488Z" fill="black"/>
<path fill-rule="evenodd" clip-rule="evenodd" d="M55.4696 19.488C58.1216 22.2027 60.8857 25.9816 62.6209 28.6424C62.9385 29.1293 63.5906 29.2665 64.0775 28.949C64.5644 28.6315 64.7017 27.9793 64.3841 27.4924C62.6109 24.7735 59.7615 20.869 56.9754 18.017C55.5938 16.6027 54.1569 15.3727 52.8228 14.706C52.153 14.3713 51.4312 14.1386 50.7081 14.1562C49.9434 14.1749 49.2405 14.4743 48.69 15.0799C45.9129 18.1347 41.728 22.1576 39.9795 23.7895C39.5546 24.1861 39.5316 24.8522 39.9282 25.2771C40.3249 25.7021 40.9909 25.725 41.4159 25.3284C43.1758 23.6858 47.4112 19.6159 50.2476 16.4959C50.3987 16.3296 50.551 16.2657 50.7594 16.2606C51.0094 16.2545 51.3784 16.3375 51.8818 16.5891C52.8939 17.0948 54.1322 18.119 55.4696 19.488Z" fill="black"/>
<path fill-rule="evenodd" clip-rule="evenodd" d="M67.7829 56.2229C68.3157 56.4554 68.5591 57.0757 68.3267 57.6085C64.7729 65.7526 58.0173 69.1031 51.1556 69.9848C44.3392 70.8606 37.3363 69.3243 32.9532 67.6431C32.4105 67.4349 32.1393 66.8261 32.3474 66.2834C32.5556 65.7407 33.1644 65.4694 33.7071 65.6776C37.8612 67.271 44.5061 68.7168 50.8873 67.8969C57.2231 67.0828 63.2149 64.0596 66.3973 56.7666C66.6298 56.2338 67.2501 55.9904 67.7829 56.2229Z" fill="black"/>
<path fill-rule="evenodd" clip-rule="evenodd" d="M64.0975 53.356C64.4696 52.9095 65.1333 52.8491 65.5799 53.2213L71.8951 58.4839C72.3416 58.8561 72.402 59.5198 72.0298 59.9663C71.6577 60.4129 70.994 60.4732 70.5474 60.1011L64.2323 54.8384C63.7857 54.4663 63.7254 53.8026 64.0975 53.356Z" fill="black"/>
<path fill-rule="evenodd" clip-rule="evenodd" d="M67.3715 49.3535C67.4352 48.9713 67.7967 48.713 68.179 48.7767C70.4836 49.1608 75.2747 51.4228 76.4702 57.4007C76.5462 57.7807 76.2998 58.1503 75.9198 58.2263C75.5398 58.3023 75.1701 58.0559 75.0941 57.6759C74.0443 52.4268 69.8538 50.4786 67.9483 50.161C67.566 50.0973 67.3078 49.7358 67.3715 49.3535Z" fill="black"/>
</svg>
