<svg width="86" height="86" viewBox="0 0 86 86" fill="none" xmlns="http://www.w3.org/2000/svg">
<path d="M0 37.726C0 19.9418 0 11.0497 5.52485 5.52485C11.0497 0 19.9418 0 37.726 0L48.274 0C66.0582 0 74.9503 0 80.4752 5.52485C86 11.0497 86 19.9418 86 37.726V48.274C86 66.0582 86 74.9503 80.4752 80.4752C74.9503 86 66.0582 86 48.274 86H37.726C19.9418 86 11.0497 86 5.52485 80.4752C0 74.9503 0 66.0582 0 48.274L0 37.726Z" fill="#1FBCFF"/>
<path d="M29.4707 24.9099C43.7824 24.9099 42.1011 39.4907 39.6452 45.0268C32.8296 41.5666 22.9956 42.3887 17.542 43.5312C15.6709 36.1546 16.1387 24.9099 29.4707 24.9099Z" fill="white"/>
<path fill-rule="evenodd" clip-rule="evenodd" d="M21.3502 26.1855C23.3753 24.9321 26.04 24.2082 29.4709 24.2083C33.1703 24.2083 35.9145 25.1524 37.8821 26.7268C39.8476 28.2993 40.9694 30.4455 41.5275 32.7255C42.5612 36.9485 41.694 41.7512 40.5383 44.707C41.1023 45.0208 41.6459 45.3659 42.1644 45.7448C42.4773 45.9735 42.5456 46.4125 42.317 46.7254C42.0883 47.0383 41.6493 47.1066 41.3364 46.8779C40.7097 46.42 40.0375 46.0129 39.3277 45.6525C36.0511 43.989 32.0068 43.3376 28.0683 43.2545C24.1377 43.1717 20.3696 43.6558 17.6861 44.218C17.1875 44.3225 16.7277 44.4293 16.3125 44.5354C15.937 44.6312 15.5549 44.4046 15.459 44.0291C15.3631 43.6536 15.5898 43.2715 15.9653 43.1756C16.1961 43.1167 16.439 43.0577 16.6931 42.9993C15.8704 39.3605 15.6243 34.8787 17.1573 31.1854C17.981 29.2008 19.3204 27.4419 21.3502 26.1855ZM18.0666 42.7104C20.7744 42.19 24.3604 41.7727 28.0978 41.8515C31.8864 41.9314 35.8807 42.5219 39.2793 44.072C40.3306 41.3137 41.1 36.8816 40.1644 33.0592C39.6609 31.002 38.6732 29.157 37.0054 27.8226C35.3399 26.49 32.9274 25.6116 29.4709 25.6116C26.2358 25.6116 23.8425 26.2934 22.0888 27.3788C20.3397 28.4614 19.1793 29.9747 18.4535 31.7234C17.0741 35.0465 17.2721 39.2103 18.0666 42.7104Z" fill="black"/>
<path d="M35.786 37.8911C35.786 40.6038 33.5869 42.8029 30.8742 42.8029C28.1615 42.8029 25.9624 40.6038 25.9624 37.8911C25.9624 35.1783 28.1615 32.9792 30.8742 32.9792C33.5869 32.9792 35.786 35.1783 35.786 37.8911Z" fill="black"/>
<path d="M32.9794 39.2945C32.9794 40.0696 32.351 40.6979 31.576 40.6979C30.8009 40.6979 30.1726 40.0696 30.1726 39.2945C30.1726 38.5194 30.8009 37.8911 31.576 37.8911C32.351 37.8911 32.9794 38.5194 32.9794 39.2945Z" fill="white"/>
<path fill-rule="evenodd" clip-rule="evenodd" d="M32.2199 13.7661C28.9635 15.0642 25.5824 17.3469 23.4676 19.0615C23.0161 19.4276 22.3533 19.3584 21.9872 18.9069C21.6211 18.4553 21.6904 17.7925 22.1419 17.4264C24.3542 15.6327 27.9198 13.214 31.4405 11.8106C33.1976 11.1102 35.0184 10.632 36.6923 10.6593C38.395 10.6871 40.0072 11.245 41.1638 12.6684C41.5304 13.1196 41.4618 13.7825 41.0107 14.149C40.5595 14.5156 39.8966 14.447 39.53 13.9959C38.8622 13.174 37.9104 12.7845 36.658 12.7641C35.3768 12.7432 33.8514 13.1157 32.2199 13.7661Z" fill="black"/>
<path fill-rule="evenodd" clip-rule="evenodd" d="M54.4385 13.7661C57.695 15.0642 61.076 17.3469 63.1908 19.0615C63.6423 19.4276 64.3051 19.3584 64.6712 18.9069C65.0373 18.4553 64.9681 17.7925 64.5166 17.4264C62.3043 15.6327 58.7386 13.214 55.218 11.8106C53.4608 11.1102 51.6401 10.632 49.9661 10.6593C48.2634 10.6871 46.6512 11.245 45.4946 12.6684C45.1281 13.1196 45.1966 13.7825 45.6478 14.149C46.0989 14.5156 46.7618 14.447 47.1284 13.9959C47.7962 13.174 48.7481 12.7845 50.0005 12.7641C51.2817 12.7432 52.8071 13.1158 54.4385 13.7661Z" fill="black"/>
<path d="M69.4669 38.5927C69.4669 44.7932 64.4404 49.8197 58.2399 49.8197C52.0394 49.8197 47.0129 44.7932 47.0129 38.5927C47.0129 32.3922 52.0394 27.3657 58.2399 27.3657C64.4404 27.3657 69.4669 32.3922 69.4669 38.5927Z" fill="white"/>
<path fill-rule="evenodd" clip-rule="evenodd" d="M58.2399 48.4163C63.6654 48.4163 68.0635 44.0181 68.0635 38.5927C68.0635 33.1673 63.6654 28.7691 58.2399 28.7691C52.8145 28.7691 48.4163 33.1673 48.4163 38.5927C48.4163 44.0181 52.8145 48.4163 58.2399 48.4163ZM58.2399 49.8197C64.4404 49.8197 69.4669 44.7932 69.4669 38.5927C69.4669 32.3922 64.4404 27.3657 58.2399 27.3657C52.0394 27.3657 47.0129 32.3922 47.0129 38.5927C47.0129 44.7932 52.0394 49.8197 58.2399 49.8197Z" fill="black"/>
<path d="M66.6603 40.0178C66.6603 42.9161 63.9921 47.7147 58.0431 47.7147C52.0942 47.7147 49.1182 42.9161 49.1182 40.0178C49.1182 37.1195 52.0942 43.8663 58.0431 43.8663C63.9921 43.8663 66.6603 37.1195 66.6603 40.0178Z" fill="#DFECF1"/>
<path d="M63.1517 42.8029C63.1517 45.5156 60.9527 47.7147 58.2399 47.7147C55.5272 47.7147 53.3281 45.5156 53.3281 42.8029C53.3281 40.0902 55.5272 37.8911 58.2399 37.8911C60.9527 37.8911 63.1517 40.0902 63.1517 42.8029Z" fill="black"/>
<path d="M59.6434 44.908C59.6434 45.6831 59.0151 46.3114 58.24 46.3114C57.465 46.3114 56.8367 45.6831 56.8367 44.908C56.8367 44.1329 57.465 43.5046 58.24 43.5046C59.0151 43.5046 59.6434 44.1329 59.6434 44.908Z" fill="white"/>
<path fill-rule="evenodd" clip-rule="evenodd" d="M36.2178 48.7132C29.7133 46.003 22.385 47.5858 19.557 48.717C19.1971 48.861 18.7888 48.6859 18.6449 48.3261C18.5009 47.9663 18.6759 47.558 19.0358 47.414C22.0551 46.2063 29.7897 44.5145 36.7576 47.4178C37.1153 47.5669 37.2844 47.9777 37.1354 48.3354C36.9863 48.6931 36.5755 48.8623 36.2178 48.7132Z" fill="black"/>
<path fill-rule="evenodd" clip-rule="evenodd" d="M20.6728 57.9873C19.2303 58.7471 17.9788 59.8831 17.2849 60.6837C16.9042 61.123 16.2395 61.1705 15.8002 60.7897C15.3609 60.409 15.3135 59.7443 15.6942 59.305C16.5207 58.3514 17.9706 57.0315 19.6916 56.1248C21.3988 55.2255 23.5638 54.6387 25.6655 55.5144C25.873 55.6009 26.108 55.7002 26.3684 55.8104C28.7769 56.8293 33.3672 58.7713 38.6934 59.9765C44.62 61.3175 51.2611 61.698 56.7282 59.0473C61.4451 56.7603 64.7458 56.2667 66.9816 56.7558C69.2785 57.2584 70.4259 58.8163 70.5174 60.2795C70.5537 60.8597 70.1127 61.3594 69.5326 61.3957C68.9524 61.4319 68.4527 60.991 68.4164 60.4109C68.3909 60.0029 68.0298 59.14 66.5317 58.8123C64.9725 58.4711 62.1919 58.7376 57.6466 60.9414C51.5359 63.9042 44.3187 63.4076 38.2288 62.0296C32.708 60.7804 27.9522 58.767 25.5477 57.7491C25.2893 57.6396 25.058 57.5417 24.8558 57.4575C23.5894 56.9298 22.129 57.2201 20.6728 57.9873Z" fill="black"/>
<path fill-rule="evenodd" clip-rule="evenodd" d="M13.7108 57.4315C14.1573 57.0593 14.821 57.1197 15.1932 57.5662L18.7016 61.7764C19.0737 62.2229 19.0134 62.8866 18.5668 63.2588C18.1203 63.6309 17.4566 63.5706 17.0844 63.124L13.576 58.9139C13.2039 58.4673 13.2642 57.8036 13.7108 57.4315Z" fill="black"/>
<path fill-rule="evenodd" clip-rule="evenodd" d="M73.5418 58.7767C73.8268 59.2833 73.6471 59.9251 73.1405 60.2101L67.527 63.3677C67.0203 63.6526 66.3786 63.473 66.0936 62.9663C65.8086 62.4597 65.9883 61.8179 66.495 61.5329L72.1084 58.3753C72.6151 58.0904 73.2568 58.27 73.5418 58.7767Z" fill="black"/>
<path fill-rule="evenodd" clip-rule="evenodd" d="M10.2015 58.5913C10.5888 58.6062 10.8906 58.9322 10.8757 59.3195C10.8214 60.7314 11.1698 62.8089 12.3487 64.4428C13.4925 66.0281 15.4723 67.2762 18.8918 67.0131C19.2782 66.9834 19.6155 67.2726 19.6453 67.6589C19.675 68.0453 19.3858 68.3827 18.9995 68.4124C15.1214 68.7107 12.6572 67.269 11.2106 65.2639C9.79911 63.3076 9.41074 60.8942 9.47339 59.2655C9.48828 58.8783 9.81428 58.5765 10.2015 58.5913Z" fill="black"/>
<path fill-rule="evenodd" clip-rule="evenodd" d="M76.65 59.3174C77.0239 59.2154 77.4096 59.4358 77.5116 59.8097C77.9006 61.2362 77.8987 63.3833 76.5246 65.1144C75.1325 66.8682 72.49 67.9999 68.0184 67.7114C67.6316 67.6865 67.3383 67.3528 67.3633 66.966C67.3882 66.5793 67.722 66.286 68.1087 66.311C72.338 66.5838 74.4319 65.4935 75.4255 64.2419C76.4372 62.9673 76.4703 61.3254 76.1577 60.179C76.0557 59.8051 76.2761 59.4193 76.65 59.3174Z" fill="black"/>
</svg>
