<svg width="87" height="87" viewBox="0 0 87 87" fill="none" xmlns="http://www.w3.org/2000/svg">
<path d="M0 37.726C0 19.9418 0 11.0497 5.52485 5.52485C11.0497 0 19.9418 0 37.726 0L49.274 0C67.0582 0 75.9503 0 81.4752 5.52485C87 11.0497 87 19.9418 87 37.726V49.274C87 67.0582 87 75.9503 81.4752 81.4752C75.9503 87 67.0582 87 49.274 87H37.726C19.9418 87 11.0497 87 5.52485 81.4752C0 75.9503 0 67.0582 0 49.274L0 37.726Z" fill="#07D974"/>
<path fill-rule="evenodd" clip-rule="evenodd" d="M25.5509 24.1994C23.5005 26.298 21.9599 28.9052 21.1786 30.6517C20.9844 31.0858 20.4751 31.2803 20.0409 31.0861C19.6068 30.8918 19.4123 30.3825 19.6065 29.9484C20.4518 28.0589 22.0973 25.2698 24.3191 22.9958C26.5262 20.7368 29.4411 18.8495 32.8014 19.108C33.2755 19.1445 33.6304 19.5584 33.5939 20.0326C33.5574 20.5068 33.1434 20.8616 32.6693 20.8252C30.0591 20.6244 27.616 22.0858 25.5509 24.1994Z" fill="black"/>
<path fill-rule="evenodd" clip-rule="evenodd" d="M54.2654 20.1924C54.2993 19.718 54.7113 19.3609 55.1857 19.3948C58.1561 19.607 64.5281 22.0663 67.4152 30.0059C67.5778 30.4528 67.3472 30.9469 66.9002 31.1094C66.4533 31.2719 65.9592 31.0414 65.7967 30.5944C63.1726 23.3783 57.4506 21.2832 55.063 21.1127C54.5886 21.0788 54.2315 20.6668 54.2654 20.1924Z" fill="black"/>
<path d="M42.7817 44.3651C35.2039 40.9207 26.4205 43.6954 22.976 45.5133C21.5408 40.5379 21.2537 29.439 32.1613 29.152C43.0111 28.8665 43.7385 38.8157 42.7817 44.3651Z" fill="white"/>
<path fill-rule="evenodd" clip-rule="evenodd" d="M42.4224 34.3343C43.9074 37.6271 43.8355 41.6327 43.3476 44.4625L43.2213 45.1953L42.5443 44.8876C38.884 43.2238 34.9112 43.0536 31.407 43.5344C27.9015 44.0154 24.9086 45.1424 23.2441 46.0209L22.6201 46.3502L22.4245 45.6723C21.6871 43.1158 21.2352 38.9737 22.3941 35.3974C22.9771 33.5982 23.9751 31.9216 25.5695 30.6772C27.1668 29.4306 29.3184 28.6524 32.1463 28.578C34.9482 28.5043 37.1435 29.091 38.8352 30.1402C40.5274 31.1897 41.6748 32.6765 42.4224 34.3343ZM38.2301 31.1159C36.7638 30.2066 34.7995 29.6567 32.1765 29.7257C29.5506 29.7949 27.6478 30.5116 26.2759 31.5823C24.9013 32.6552 24.0156 34.118 23.4863 35.7514C22.5142 38.7515 22.7694 42.256 23.3514 44.6844C25.1895 43.8139 28.0146 42.841 31.2509 42.3969C34.6802 41.9264 38.6099 42.0446 42.3269 43.5454C42.6821 40.9105 42.6117 37.5467 41.3758 34.8063C40.705 33.3189 39.6959 32.025 38.2301 31.1159Z" fill="black"/>
<path d="M65.9115 44.549C58.6377 40.5017 49.6583 42.5554 46.0778 44.0882C45.0505 39.0129 45.664 27.9273 56.5589 28.5252C67.3962 29.1199 67.3149 39.0953 65.9115 44.549Z" fill="white"/>
<path fill-rule="evenodd" clip-rule="evenodd" d="M66.3662 34.5222C67.5795 37.9245 67.1831 41.9111 66.4675 44.6921L66.2822 45.4123L65.6324 45.0507C62.119 43.0957 58.173 42.6041 54.6414 42.7993C51.1084 42.9947 48.034 43.8753 46.3038 44.616L45.6551 44.8937L45.5152 44.2022C44.9873 41.5943 44.8727 37.4292 46.3176 33.9586C47.0445 32.2126 48.1751 30.6223 49.8651 29.5113C51.5581 28.3983 53.7658 27.797 56.5904 27.952C59.389 28.1056 61.5295 28.8683 63.1307 30.0512C64.7323 31.2344 65.7554 32.8093 66.3662 34.5222ZM62.4485 30.9747C61.0608 29.9495 59.1475 29.2422 56.5275 29.0984C53.9046 28.9545 51.95 29.5147 50.4959 30.4707C49.0388 31.4286 48.0375 32.8149 47.3776 34.3999C46.1654 37.3114 46.1358 40.8251 46.5191 43.2926C48.4217 42.574 51.3164 41.8332 54.578 41.6529C58.0342 41.4618 61.9414 41.8982 65.5244 43.6952C66.092 41.0978 66.2945 37.7394 65.2848 34.9079C64.7367 33.3709 63.8358 31.9996 62.4485 30.9747Z" fill="black"/>
<path d="M31.0132 40.3466C31.0132 42.2489 29.4711 43.7911 27.5687 43.7911C25.6664 43.7911 24.1243 42.2489 24.1243 40.3466C24.1243 38.4442 25.6664 36.9021 27.5687 36.9021C29.4711 36.9021 31.0132 38.4442 31.0132 40.3466Z" fill="black"/>
<path d="M54.2329 39.7454C54.0787 41.6415 52.4167 43.0535 50.5206 42.8994C48.6245 42.7452 47.2124 41.0831 47.3666 39.1871C47.5208 37.291 49.1828 35.8789 51.0789 36.0331C52.975 36.1872 54.3871 37.8493 54.2329 39.7454Z" fill="black"/>
<path d="M26.9946 41.4948C26.9946 42.129 26.4805 42.643 25.8464 42.643C25.2123 42.643 24.6982 42.129 24.6982 41.4948C24.6982 40.8607 25.2123 40.3467 25.8464 40.3467C26.4805 40.3467 26.9946 40.8607 26.9946 41.4948Z" fill="white"/>
<path d="M50.6173 40.529C50.566 41.161 50.0119 41.6317 49.3799 41.5803C48.7479 41.5289 48.2772 40.9749 48.3286 40.3429C48.38 39.7108 48.934 39.2401 49.566 39.2915C50.198 39.3429 50.6687 39.8969 50.6173 40.529Z" fill="white"/>
<path fill-rule="evenodd" clip-rule="evenodd" d="M62.154 55.0793C62.4193 55.474 62.3144 56.0091 61.9197 56.2744C47.5076 65.9612 32.3129 60.3042 26.5031 56.2668C26.1125 55.9954 26.016 55.4588 26.2874 55.0683C26.5588 54.6777 27.0954 54.5812 27.4859 54.8526C32.9663 58.661 47.356 63.988 60.959 54.845C61.3537 54.5797 61.8887 54.6846 62.154 55.0793Z" fill="black"/>
<path fill-rule="evenodd" clip-rule="evenodd" d="M26.2537 54.3828C25.4165 55.0928 24.892 56.1321 24.675 56.8697C24.5856 57.1739 24.2665 57.348 23.9623 57.2585C23.6581 57.169 23.4841 56.8499 23.5735 56.5458C23.835 55.6568 24.4586 54.3998 25.5111 53.5072C26.595 52.5879 28.1174 52.0756 30.0466 52.7187C30.3474 52.8189 30.51 53.144 30.4097 53.4448C30.3094 53.7456 29.9843 53.9082 29.6835 53.8079C28.1683 53.3028 27.0595 53.6994 26.2537 54.3828Z" fill="black"/>
<path fill-rule="evenodd" clip-rule="evenodd" d="M58.5704 52.9341C58.5937 52.6179 58.8688 52.3804 59.185 52.4037C60.207 52.4788 61.7153 52.8434 62.9273 53.723C64.1726 54.6267 65.0972 56.0767 64.841 58.2113C64.8032 58.5261 64.5174 58.7507 64.2026 58.7129C63.8878 58.6751 63.6632 58.3893 63.701 58.0745C63.9006 56.4109 63.2108 55.3474 62.2529 54.6522C61.2618 53.9329 59.9782 53.6132 59.1009 53.5487C58.7847 53.5255 58.5472 53.2503 58.5704 52.9341Z" fill="black"/>
</svg>
