<svg width="21" height="21" viewBox="0 0 21 21" fill="none" xmlns="http://www.w3.org/2000/svg">
<g clip-path="url(#clip0_84_1505)">
<path d="M5.38027 16.2794L8.85179 12.827L10.1908 14.7048L7.11869 17.907C5.94221 19.1323 4.03774 17.6147 5.38027 16.2794ZM9.72879 8.16111C10.1021 7.23925 10.0198 6.42264 8.9587 5.14195L6.385 1.74472C6.01899 1.27336 5.03449 1.85602 5.38761 2.42043L7.44159 5.19866C7.83056 5.71719 6.99598 6.30624 6.59418 5.77209L4.46951 2.89919C4.07145 2.39909 3.13389 2.95429 3.54716 3.52303C4.14741 4.31526 5.07148 5.60517 5.67173 6.3974C6.09369 6.8669 5.3577 7.46451 4.9497 6.88733L2.84072 4.03318C2.52801 3.66113 1.96033 3.83761 1.78457 4.23324C1.59601 4.65585 1.96028 5.00077 2.20086 5.34119L4.54381 8.67041C5.27813 9.60299 6.13219 10.1859 7.18972 9.96681C7.35183 9.93296 7.55278 9.8549 7.76971 9.74862L14.0649 18.6877C14.4038 19.1688 15.1175 19.2687 15.6096 18.9355L15.7221 18.8599C16.2762 18.4842 16.4154 17.7349 16.0017 17.2146L9.26452 8.73128C9.49355 8.52161 9.66468 8.31951 9.72879 8.16111ZM11.5502 10.1427L12.7809 8.9184C11.5661 5.37963 17.3135 1.19371 19.7884 3.48675C22.7951 6.27483 17.6087 12.099 14.3857 10.3352L12.9227 11.8585L11.5502 10.1427Z" fill="#2049DB"/>
</g>
<defs>
<clipPath id="clip0_84_1505">
<rect width="19" height="18" fill="white" transform="translate(2.00049 0.718185) rotate(4.11855)"/>
</clipPath>
</defs>
</svg>
