<svg width="1440" height="194" viewBox="0 0 1440 194" fill="none" xmlns="http://www.w3.org/2000/svg">
<rect width="2024" height="70" transform="translate(-292 123.497) rotate(-3.49815)" fill="white"/>
<path d="M13.5431 149.903L12.3561 130.486C12.3313 130.081 12.4559 129.729 12.7299 129.43C13.0038 129.132 13.3436 128.97 13.7491 128.945L31.7311 127.846C32.1366 127.821 32.4886 127.946 32.7871 128.22C33.0961 128.493 33.2629 128.832 33.2877 129.238L33.3773 130.704C33.4021 131.109 33.2778 131.467 33.0045 131.776C32.7409 132.073 32.4064 132.235 32.0009 132.26L18.4169 133.09L18.7525 138.58L29.81 137.904C30.2155 137.879 30.5675 138.004 30.866 138.277C31.1749 138.551 31.3415 138.885 31.3656 139.28L31.4562 140.762C31.481 141.167 31.3567 141.524 31.0834 141.833C30.8198 142.131 30.4853 142.293 30.0798 142.317L19.0223 142.993L19.4227 149.544C19.4488 149.97 19.3251 150.337 19.0518 150.646C18.7883 150.944 18.4537 151.106 18.0482 151.13L15.1162 151.31C14.7107 151.334 14.3538 151.215 14.0455 150.952C13.7366 150.679 13.5691 150.329 13.5431 149.903ZM59.3451 147.933C59.3724 148.38 59.1209 148.62 58.5907 148.652L54.8477 148.881C54.4526 148.905 54.0073 148.791 53.5119 148.54C53.0262 148.277 52.6462 147.951 52.3719 147.561L49.467 143.574C48.271 141.936 46.8985 141.164 45.3493 141.259L41.5439 141.491L41.9538 148.198C41.9786 148.603 41.8543 148.96 41.581 149.269C41.3174 149.567 40.9829 149.728 40.5774 149.753L37.6454 149.932C37.2399 149.957 36.883 149.838 36.5747 149.575C36.2658 149.302 36.099 148.962 36.0742 148.557L34.8872 129.14C34.8624 128.735 34.9815 128.378 35.2444 128.069C35.5074 127.761 35.8416 127.595 36.2471 127.57L49.1137 126.783C51.4946 126.638 53.4832 127.158 55.0794 128.344C56.686 129.529 57.5557 131.209 57.6885 133.382C57.8735 136.407 56.0296 138.425 52.1568 139.434C52.7947 139.624 53.3959 139.984 53.9604 140.513C54.5244 141.032 55.1819 141.8 55.9329 142.819L59.0469 147.153C59.2311 147.434 59.3305 147.694 59.3451 147.933ZM41.2741 137.078L47.9179 136.672C48.9888 136.606 49.9168 136.335 50.7017 135.86C51.497 135.383 51.8661 134.677 51.8089 133.741C51.7517 132.805 51.2993 132.15 50.4519 131.773C49.6148 131.397 48.6609 131.241 47.5899 131.307L40.9461 131.713L41.2741 137.078ZM60.9408 147.006L59.7539 127.589C59.7291 127.183 59.8537 126.831 60.1276 126.533C60.4016 126.234 60.7413 126.072 61.1468 126.048L79.1289 124.948C79.5344 124.924 79.8864 125.048 80.1849 125.322C80.4938 125.596 80.6607 125.935 80.6855 126.34L80.7751 127.806C80.7999 128.212 80.6756 128.569 80.4023 128.878C80.1387 129.176 79.8042 129.337 79.3987 129.362L65.8147 130.192L66.0921 134.731L77.789 134.016C78.1945 133.991 78.5465 134.116 78.8451 134.39C79.1533 134.653 79.3199 134.987 79.3447 135.392L79.4343 136.858C79.4591 137.264 79.3348 137.621 79.0615 137.93C78.7979 138.228 78.4634 138.389 78.0579 138.414L66.361 139.129L66.6422 143.73L80.195 142.901C80.5901 142.877 80.9366 142.997 81.2345 143.26C81.5324 143.524 81.6937 143.858 81.7185 144.264L81.81 145.761C81.8348 146.167 81.7106 146.524 81.4372 146.833C81.1633 147.131 80.8235 147.293 80.4181 147.318L62.514 148.412C62.1085 148.437 61.7516 148.318 61.4433 148.055C61.1344 147.782 60.9669 147.432 60.9408 147.006ZM83.782 145.609L82.595 126.192C82.5702 125.787 82.6948 125.435 82.9688 125.136C83.2427 124.838 83.5825 124.676 83.9879 124.651L101.97 123.552C102.375 123.527 102.728 123.652 103.026 123.926C103.335 124.199 103.502 124.539 103.527 124.944L103.616 126.41C103.641 126.816 103.517 127.173 103.243 127.482C102.98 127.78 102.645 127.941 102.24 127.966L88.6558 128.796L88.9332 133.335L100.63 132.62C101.036 132.595 101.388 132.719 101.686 132.993C101.994 133.256 102.161 133.59 102.186 133.996L102.275 135.462C102.3 135.867 102.176 136.225 101.903 136.534C101.639 136.831 101.304 136.993 100.899 137.018L89.2021 137.733L89.4833 142.333L103.036 141.505C103.431 141.481 103.778 141.6 104.076 141.864C104.374 142.128 104.535 142.462 104.56 142.868L104.651 144.365C104.676 144.77 104.552 145.128 104.278 145.436C104.004 145.735 103.665 145.897 103.259 145.921L85.3551 147.016C84.9496 147.041 84.5927 146.922 84.2844 146.659C83.9755 146.385 83.808 146.036 83.782 145.609ZM137.446 141.515C135.439 143.506 132.377 144.627 128.26 144.878C124.153 145.129 120.977 144.39 118.731 142.659C116.486 140.918 115.239 138.025 114.992 133.98C114.745 129.936 115.63 126.918 117.647 124.926C119.665 122.935 122.727 121.814 126.834 121.563C130.952 121.311 134.128 122.051 136.362 123.782C138.608 125.513 139.854 128.401 140.101 132.445C140.348 136.49 139.464 139.513 137.446 141.515ZM132.306 127.333C131.18 126.15 129.441 125.63 127.092 125.773C124.752 125.916 123.091 126.644 122.106 127.957C121.132 129.269 120.721 131.162 120.872 133.636C121.023 136.101 121.662 137.924 122.788 139.108C123.924 140.28 125.662 140.795 128.001 140.652C130.351 140.508 132.013 139.786 132.988 138.484C133.961 137.172 134.373 135.284 134.222 132.82C134.071 130.346 133.432 128.517 132.306 127.333ZM142.95 142.024L141.763 122.607C141.738 122.201 141.857 121.844 142.12 121.536C142.383 121.228 142.717 121.061 143.123 121.037L147.708 120.756C148.072 120.734 148.465 120.856 148.889 121.122C149.312 121.389 149.666 121.717 149.951 122.106L160.256 136.019L159.369 121.499C159.344 121.094 159.463 120.742 159.727 120.444C160.001 120.146 160.34 119.984 160.746 119.959L163.428 119.795C163.834 119.77 164.186 119.89 164.483 120.153C164.792 120.416 164.959 120.761 164.985 121.187L166.172 140.604C166.197 141.01 166.072 141.367 165.799 141.676C165.536 141.974 165.201 142.135 164.796 142.16L159.618 142.476C159.212 142.501 158.788 142.386 158.344 142.131C157.9 141.866 157.541 141.539 157.267 141.148L147.824 128.294L148.642 141.676C148.667 142.081 148.543 142.438 148.269 142.747C148.006 143.045 147.671 143.207 147.266 143.231L144.521 143.399C144.115 143.424 143.759 143.305 143.45 143.042C143.141 142.769 142.974 142.429 142.95 142.024ZM179.223 141.403C175.771 141.614 173.062 140.846 171.098 139.098C169.144 137.349 168.05 134.562 167.816 130.735C167.581 126.899 168.37 124.002 170.181 122.044C172.001 120.075 174.84 118.972 178.698 118.737L182.176 118.524C184.474 118.383 186.576 118.808 188.484 119.798C190.401 120.776 191.41 122.087 191.511 123.73C191.548 124.343 191.393 124.796 191.046 125.089C190.698 125.371 190.352 125.522 190.009 125.543L188.153 125.657C187.259 125.712 186.516 125.246 185.923 124.259C185.331 123.273 183.99 122.843 181.9 122.971L179.124 123.141C176.847 123.28 175.333 123.863 174.581 124.89C173.83 125.917 173.535 127.74 173.695 130.36C173.855 132.98 174.33 134.773 175.119 135.737C175.908 136.69 177.238 137.11 179.11 136.995L182.307 136.8C183.981 136.698 185.157 136.307 185.836 135.629C186.514 134.941 186.827 133.998 186.774 132.801L183.25 133.017C182.844 133.041 182.487 132.922 182.179 132.659C181.88 132.386 181.719 132.046 181.694 131.64L181.62 130.424C181.595 130.018 181.714 129.667 181.978 129.369C182.251 129.06 182.59 128.893 182.996 128.868L190.825 128.39C191.231 128.365 191.583 128.489 191.881 128.763C192.189 129.026 192.356 129.36 192.381 129.766L192.487 131.497C192.665 134.408 191.928 136.702 190.277 138.379C188.626 140.045 186.111 140.982 182.732 141.189L179.223 141.403ZM218.374 138.196C218.402 138.653 218.146 138.898 217.605 138.931L214.034 139.15C213.628 139.175 213.183 139.061 212.698 138.809C212.212 138.546 211.827 138.22 211.542 137.831L208.531 133.647C207.812 132.627 207.103 131.872 206.405 131.382C205.706 130.882 204.889 130.661 203.953 130.718L200.6 130.923L201.064 138.502C201.089 138.908 200.964 139.26 200.69 139.558C200.426 139.846 200.091 140.002 199.685 140.027L196.753 140.206C196.348 140.231 195.991 140.107 195.682 139.833C195.372 139.55 195.205 139.205 195.18 138.799L193.995 119.414C193.97 119.008 194.094 118.646 194.367 118.327C194.64 118.007 194.979 117.835 195.384 117.81L198.316 117.631C198.722 117.606 199.074 117.736 199.373 118.021C199.683 118.304 199.85 118.649 199.875 119.054L200.332 126.525L203.685 126.32C204.6 126.264 205.385 125.965 206.041 125.424C206.707 124.883 207.318 124.037 207.874 122.886L210.028 118.434C210.518 117.402 211.236 116.852 212.181 116.784L215.784 116.563C216.283 116.533 216.546 116.736 216.572 117.173C216.587 117.412 216.516 117.703 216.36 118.047L213.35 124.383C212.916 125.307 212.41 126.079 211.832 126.698C211.265 127.318 210.5 127.777 209.537 128.075C210.232 128.179 210.96 128.568 211.722 129.241C212.493 129.914 213.18 130.655 213.783 131.463L218.061 137.432C218.257 137.723 218.361 137.977 218.374 138.196ZM219.616 137.368L218.427 117.92C218.402 117.515 218.527 117.158 218.8 116.849C219.073 116.54 219.413 116.373 219.818 116.348L222.719 116.171C223.145 116.145 223.508 116.269 223.806 116.543C224.115 116.816 224.282 117.155 224.307 117.561L225.494 136.978C225.518 137.383 225.389 137.741 225.105 138.05C224.831 138.349 224.492 138.51 224.086 138.535L221.185 138.713C220.78 138.737 220.423 138.624 220.116 138.371C219.807 138.108 219.641 137.774 219.616 137.368ZM252.282 136.138C252.31 136.586 252.058 136.825 251.528 136.858L247.785 137.087C247.39 137.111 246.945 136.997 246.449 136.746C245.964 136.483 245.584 136.157 245.309 135.766L242.404 131.78C241.208 130.142 239.836 129.37 238.287 129.464L234.481 129.697L234.891 136.403C234.916 136.809 234.792 137.166 234.518 137.475C234.255 137.773 233.92 137.934 233.515 137.959L230.583 138.138C230.177 138.163 229.82 138.044 229.512 137.781C229.203 137.508 229.036 137.168 229.012 136.763L227.825 117.346C227.8 116.94 227.919 116.583 228.182 116.275C228.445 115.967 228.779 115.8 229.184 115.776L242.051 114.989C244.432 114.843 246.421 115.364 248.017 116.55C249.623 117.735 250.493 119.414 250.626 121.587C250.811 124.613 248.967 126.63 245.094 127.639C245.732 127.83 246.333 128.19 246.898 128.719C247.462 129.237 248.119 130.006 248.87 131.025L251.984 135.358C252.168 135.639 252.268 135.899 252.282 136.138ZM234.211 125.283L240.855 124.877C241.926 124.812 242.854 124.541 243.639 124.065C244.434 123.589 244.803 122.883 244.746 121.947C244.689 121.011 244.237 120.355 243.389 119.979C242.552 119.602 241.598 119.447 240.527 119.512L233.883 119.918L234.211 125.283Z" fill="#2049DB"/>
<g clip-path="url(#clip0_84_346)">
<path d="M293.344 111.259L297.794 118.501L305.524 122.035L298.282 126.486L294.747 134.216L290.297 126.974L282.567 123.439L289.809 118.989L293.344 111.259Z" fill="#2049DB"/>
</g>
<path d="M359.631 127.933C357.624 129.923 354.562 131.045 350.444 131.296C346.337 131.547 343.161 130.807 340.916 129.077C338.67 127.335 337.424 124.443 337.176 120.398C336.929 116.353 337.814 113.335 339.832 111.344C341.85 109.353 344.912 108.231 349.019 107.98C353.136 107.729 356.312 108.469 358.547 110.2C360.792 111.931 362.039 114.819 362.286 118.863C362.533 122.908 361.648 125.931 359.631 127.933ZM354.491 113.751C353.364 112.568 351.626 112.048 349.276 112.191C346.937 112.334 345.275 113.062 344.291 114.375C343.317 115.686 342.906 117.58 343.057 120.054C343.208 122.518 343.846 124.342 344.973 125.526C346.109 126.698 347.846 127.213 350.186 127.07C352.536 126.926 354.198 126.204 355.172 124.902C356.146 123.59 356.558 121.702 356.407 119.238C356.256 116.764 355.617 114.935 354.491 113.751ZM388.405 127.817C388.433 128.264 388.181 128.504 387.651 128.537L383.908 128.765C383.513 128.789 383.067 128.676 382.572 128.424C382.086 128.162 381.706 127.835 381.432 127.445L378.527 123.459C377.331 121.82 375.959 121.048 374.409 121.143L370.604 121.376L371.014 128.082C371.039 128.488 370.914 128.845 370.641 129.154C370.378 129.452 370.043 129.613 369.638 129.638L366.706 129.817C366.3 129.842 365.943 129.723 365.635 129.46C365.326 129.186 365.159 128.847 365.134 128.441L363.947 109.025C363.923 108.619 364.042 108.262 364.305 107.954C364.567 107.646 364.902 107.479 365.307 107.454L378.174 106.668C380.555 106.522 382.543 107.042 384.14 108.229C385.746 109.414 386.616 111.093 386.749 113.266C386.934 116.292 385.09 118.309 381.217 119.318C381.855 119.509 382.456 119.869 383.021 120.398C383.584 120.916 384.242 121.685 384.993 122.703L388.107 127.037C388.291 127.318 388.391 127.578 388.405 127.817ZM370.334 116.962L376.978 116.556C378.049 116.491 378.977 116.22 379.762 115.744C380.557 115.268 380.926 114.561 380.869 113.626C380.812 112.69 380.359 112.034 379.512 111.658C378.675 111.281 377.721 111.126 376.65 111.191L370.006 111.597L370.334 116.962ZM390.005 126.952L388.818 107.536C388.792 107.109 388.915 106.742 389.189 106.433C389.462 106.124 389.801 105.957 390.207 105.932L398.925 105.399C403.437 105.123 406.773 105.827 408.932 107.511C411.101 109.184 412.303 111.949 412.539 115.807C412.774 119.654 411.917 122.54 409.968 124.464C408.03 126.388 404.805 127.488 400.292 127.764L391.574 128.297C391.169 128.321 390.812 128.208 390.504 127.955C390.196 127.692 390.03 127.358 390.005 126.952ZM395.702 123.614L399.851 123.361C402.648 123.19 404.519 122.564 405.465 121.483C406.412 120.403 406.81 118.63 406.659 116.166C406.508 113.692 405.897 111.976 404.826 111.018C403.754 110.051 401.82 109.652 399.023 109.823L394.875 110.077L395.702 123.614ZM415.369 125.339L414.182 105.922C414.157 105.517 414.281 105.165 414.555 104.866C414.829 104.568 415.169 104.406 415.575 104.381L433.557 103.282C433.962 103.257 434.314 103.382 434.613 103.656C434.922 103.929 435.088 104.269 435.113 104.674L435.203 106.14C435.228 106.546 435.103 106.903 434.83 107.212C434.566 107.51 434.232 107.671 433.826 107.696L420.242 108.526L420.52 113.065L432.217 112.35C432.622 112.325 432.974 112.449 433.273 112.723C433.581 112.986 433.748 113.321 433.772 113.726L433.862 115.192C433.887 115.598 433.763 115.955 433.489 116.264C433.226 116.562 432.891 116.723 432.486 116.748L420.789 117.463L421.07 122.063L434.623 121.235C435.018 121.211 435.364 121.331 435.662 121.594C435.96 121.858 436.121 122.192 436.146 122.598L436.238 124.095C436.263 124.5 436.138 124.858 435.865 125.167C435.591 125.465 435.251 125.627 434.846 125.651L416.942 126.746C416.536 126.771 416.179 126.652 415.871 126.389C415.562 126.115 415.395 125.766 415.369 125.339ZM461.483 123.35C461.51 123.797 461.258 124.037 460.728 124.069L456.985 124.298C456.59 124.322 456.145 124.209 455.649 123.957C455.164 123.695 454.784 123.368 454.509 122.978L451.604 118.992C450.408 117.353 449.036 116.581 447.487 116.676L443.681 116.909L444.091 123.615C444.116 124.02 443.992 124.378 443.718 124.686C443.455 124.984 443.12 125.146 442.715 125.17L439.783 125.35C439.377 125.374 439.02 125.255 438.712 124.992C438.403 124.719 438.236 124.38 438.212 123.974L437.025 104.557C437 104.152 437.119 103.795 437.382 103.487C437.645 103.178 437.979 103.012 438.385 102.987L451.251 102.201C453.632 102.055 455.621 102.575 457.217 103.761C458.823 104.947 459.693 106.626 459.826 108.799C460.011 111.825 458.167 113.842 454.294 114.851C454.932 115.042 455.533 115.401 456.098 115.93C456.662 116.449 457.319 117.218 458.07 118.236L461.184 122.57C461.369 122.851 461.468 123.111 461.483 123.35ZM443.412 112.495L450.055 112.089C451.126 112.023 452.054 111.753 452.839 111.277C453.634 110.8 454.004 110.094 453.946 109.158C453.889 108.223 453.437 107.567 452.589 107.191C451.752 106.814 450.798 106.658 449.727 106.724L443.084 107.13L443.412 112.495ZM471.781 117.649C471.743 117.035 471.898 116.587 472.246 116.305C472.594 116.013 472.939 115.856 473.282 115.835L475.138 115.721C476.074 115.664 476.817 116.13 477.368 117.119C477.919 118.108 479.047 118.551 480.752 118.446L486.218 118.222C488.047 118.11 488.926 117.456 488.853 116.261C488.798 115.356 487.636 114.712 485.369 114.329C484.356 114.151 483.24 113.984 482.02 113.829C480.799 113.664 479.58 113.441 478.363 113.16C477.156 112.879 476.039 112.53 475.011 112.113C473.984 111.696 473.133 111.09 472.458 110.297C471.793 109.492 471.426 108.523 471.357 107.39C471.229 105.3 471.875 103.648 473.293 102.434C474.71 101.21 477.233 100.487 480.862 100.265L484.829 100.117C486.96 99.9863 488.912 100.42 490.685 101.418C492.467 102.405 493.409 103.72 493.509 105.362C493.547 105.976 493.392 106.429 493.044 106.721C492.697 107.014 492.357 107.17 492.024 107.191L490.168 107.304C489.232 107.361 488.489 106.896 487.938 105.906C487.387 104.907 486.258 104.459 484.553 104.564L479.853 104.757C478.023 104.869 477.145 105.523 477.218 106.718C477.258 107.373 477.867 107.874 479.047 108.219C480.237 108.564 481.663 108.847 483.326 109.069C484.998 109.28 486.679 109.558 488.37 109.903C490.061 110.249 491.515 110.901 492.732 111.859C493.959 112.807 494.619 114.045 494.712 115.574C494.84 117.663 494.19 119.321 492.762 120.546C491.344 121.759 488.826 122.477 485.208 122.698L480.476 122.893C478.345 123.024 476.388 122.595 474.606 121.609C472.823 120.611 471.881 119.291 471.781 117.649ZM497.251 120.334L496.064 100.917C496.039 100.511 496.164 100.159 496.438 99.861C496.712 99.5624 497.051 99.4008 497.457 99.376L515.439 98.2768C515.844 98.252 516.196 98.3766 516.495 98.6505C516.804 98.9238 516.971 99.2633 516.995 99.6688L517.085 101.135C517.11 101.54 516.986 101.897 516.712 102.206C516.449 102.504 516.114 102.666 515.709 102.69L502.125 103.521L502.402 108.059L514.099 107.344C514.504 107.319 514.856 107.444 515.155 107.718C515.463 107.981 515.63 108.315 515.655 108.721L515.744 110.187C515.769 110.592 515.645 110.949 515.371 111.258C515.108 111.556 514.773 111.717 514.368 111.742L502.671 112.457L502.952 117.058L516.505 116.23C516.9 116.205 517.247 116.325 517.544 116.589C517.842 116.852 518.004 117.187 518.028 117.592L518.12 119.089C518.145 119.495 518.02 119.852 517.747 120.161C517.473 120.46 517.133 120.621 516.728 120.646L498.824 121.741C498.418 121.765 498.061 121.646 497.753 121.383C497.444 121.11 497.277 120.76 497.251 120.334ZM543.286 118.334C543.314 118.791 543.057 119.037 542.517 119.07L538.945 119.288C538.54 119.313 538.094 119.199 537.609 118.947C537.124 118.684 536.739 118.358 536.454 117.969L533.443 113.785C532.723 112.765 532.014 112.01 531.316 111.52C530.618 111.02 529.801 110.799 528.865 110.856L525.512 111.061L525.975 118.641C526 119.046 525.876 119.398 525.602 119.697C525.337 119.984 525.003 120.14 524.597 120.165L521.665 120.344C521.26 120.369 520.902 120.245 520.593 119.971C520.284 119.688 520.117 119.343 520.092 118.938L518.907 99.5519C518.882 99.1464 519.006 98.784 519.279 98.4647C519.551 98.1454 519.89 97.9733 520.296 97.9485L523.228 97.7693C523.633 97.7445 523.986 97.8743 524.285 98.1587C524.595 98.4424 524.762 98.787 524.786 99.1925L525.243 106.663L528.596 106.458C529.511 106.402 530.297 106.104 530.952 105.563C531.618 105.021 532.229 104.175 532.785 103.024L534.939 98.5718C535.429 97.54 536.147 96.99 537.093 96.9217L540.695 96.7015C541.194 96.671 541.457 96.8741 541.484 97.3108C541.499 97.5499 541.428 97.8412 541.271 98.1848L538.262 104.521C537.828 105.445 537.322 106.217 536.744 106.836C536.176 107.456 535.411 107.915 534.449 108.213C535.144 108.317 535.872 108.706 536.633 109.379C537.405 110.052 538.092 110.793 538.695 111.601L542.973 117.57C543.168 117.861 543.272 118.115 543.286 118.334ZM542.687 117.619L545.694 102.532C546.507 98.423 549.835 96.1845 555.678 95.8169L564.084 95.3031C564.469 95.2795 564.795 95.4057 565.062 95.6816C565.34 95.9568 565.491 96.2868 565.514 96.6715L566.705 116.151C566.73 116.556 566.605 116.908 566.331 117.207C566.057 117.495 565.717 117.651 565.311 117.676L562.379 117.855C561.953 117.881 561.591 117.768 561.294 117.515C561.006 117.251 560.849 116.905 560.823 116.479L560.583 112.549L549.494 113.227L548.69 117.221C548.612 117.653 548.4 118.021 548.053 118.324C547.705 118.617 547.329 118.775 546.923 118.8L543.851 118.988C543.446 119.013 543.147 118.916 542.957 118.698C542.765 118.47 542.664 118.267 542.653 118.091C542.653 117.913 542.664 117.756 542.687 117.619ZM550.379 108.742L560.313 108.135L559.816 99.9941L555.371 100.266C554.373 100.327 553.517 100.666 552.803 101.284C552.099 101.89 551.647 102.68 551.445 103.652L550.379 108.742ZM593.476 115.281C593.503 115.728 593.252 115.968 592.722 116.001L588.979 116.229C588.584 116.253 588.138 116.14 587.643 115.888C587.157 115.626 586.777 115.299 586.503 114.909L583.598 110.923C582.402 109.284 581.029 108.512 579.48 108.607L575.675 108.84L576.085 115.546C576.11 115.952 575.985 116.309 575.712 116.618C575.448 116.916 575.114 117.077 574.708 117.102L571.776 117.281C571.371 117.306 571.014 117.187 570.706 116.924C570.397 116.65 570.23 116.311 570.205 115.905L569.018 96.4886C568.993 96.0831 569.113 95.7262 569.375 95.4179C569.638 95.1096 569.973 94.9431 570.378 94.9183L583.245 94.1318C585.626 93.9862 587.614 94.5065 589.21 95.6925C590.817 96.878 591.687 98.5572 591.82 100.73C592.005 103.756 590.161 105.773 586.288 106.782C586.926 106.973 587.527 107.333 588.091 107.862C588.655 108.38 589.313 109.149 590.064 110.167L593.178 114.501C593.362 114.782 593.461 115.042 593.476 115.281ZM575.405 104.426L582.049 104.02C583.12 103.955 584.048 103.684 584.833 103.208C585.628 102.732 585.997 102.025 585.94 101.09C585.883 100.154 585.43 99.498 584.583 99.1219C583.746 98.7452 582.792 98.5896 581.721 98.655L575.077 99.0612L575.405 104.426ZM593.235 114.529L596.242 99.4424C597.056 95.333 600.384 93.0945 606.226 92.7269L614.632 92.213C615.017 92.1895 615.343 92.3157 615.61 92.5916C615.888 92.8668 616.039 93.1968 616.062 93.5815L617.253 113.061C617.278 113.466 617.153 113.818 616.879 114.117C616.605 114.405 616.265 114.561 615.859 114.586L612.927 114.765C612.501 114.791 612.139 114.678 611.842 114.425C611.554 114.16 611.398 113.815 611.371 113.389L611.131 109.459L600.043 110.137L599.238 114.131C599.16 114.563 598.948 114.931 598.601 115.234C598.254 115.527 597.877 115.685 597.472 115.71L594.399 115.898C593.994 115.923 593.696 115.826 593.505 115.608C593.313 115.38 593.212 115.177 593.202 115.001C593.201 114.823 593.212 114.666 593.235 114.529ZM600.927 105.652L610.861 105.045L610.364 96.9041L605.919 97.1758C604.921 97.2368 604.065 97.5762 603.351 98.1938C602.647 98.8003 602.195 99.5899 601.993 100.562L600.927 105.652ZM620.753 112.815L619.566 93.3986C619.542 92.9931 619.661 92.6362 619.924 92.3279C620.187 92.0196 620.521 91.8531 620.926 91.8283L625.511 91.548C625.875 91.5258 626.269 91.6478 626.692 91.9141C627.116 92.1805 627.47 92.5084 627.754 92.898L638.06 106.811L637.172 92.291C637.147 91.8855 637.267 91.5338 637.53 91.2359C637.804 90.9374 638.144 90.7758 638.55 90.751L641.232 90.587C641.638 90.5622 641.989 90.6816 642.287 90.9452C642.595 91.2081 642.763 91.5527 642.789 91.979L643.976 111.396C644 111.801 643.876 112.159 643.603 112.467C643.339 112.765 643.005 112.927 642.599 112.951L637.421 113.268C637.016 113.293 636.591 113.178 636.148 112.923C635.704 112.658 635.345 112.33 635.07 111.94L625.628 99.0862L626.446 112.467C626.471 112.873 626.346 113.23 626.073 113.539C625.81 113.837 625.475 113.998 625.069 114.023L622.325 114.191C621.919 114.216 621.562 114.097 621.254 113.834C620.945 113.56 620.778 113.221 620.753 112.815ZM657.026 112.195C653.574 112.406 650.866 111.637 648.902 109.889C646.948 108.141 645.854 105.353 645.62 101.527C645.385 97.6906 646.173 94.7933 647.984 92.8354C649.805 90.8665 652.644 89.7641 656.502 89.5283L659.979 89.3157C662.277 89.1753 664.38 89.5998 666.288 90.5895C668.205 91.568 669.214 92.8787 669.314 94.5215C669.352 95.1349 669.197 95.5879 668.85 95.8805C668.502 96.1627 668.156 96.3142 667.813 96.3352L665.957 96.4487C665.063 96.5033 664.32 96.0374 663.727 95.0509C663.134 94.0644 661.793 93.635 659.703 93.7627L656.927 93.9324C654.65 94.0716 653.136 94.6547 652.385 95.6816C651.634 96.7085 651.338 98.532 651.498 101.152C651.659 103.772 652.133 105.564 652.923 106.528C653.712 107.482 655.042 107.902 656.913 107.787L660.11 107.592C661.784 107.489 662.961 107.099 663.639 106.421C664.317 105.733 664.63 104.79 664.578 103.593L661.053 103.808C660.648 103.833 660.291 103.714 659.983 103.451C659.684 103.177 659.522 102.838 659.498 102.432L659.423 101.216C659.398 100.81 659.518 100.458 659.781 100.161C660.055 99.8516 660.394 99.6847 660.8 99.66L668.629 99.1814C669.034 99.1566 669.386 99.2812 669.685 99.5551C669.993 99.8181 670.16 100.152 670.184 100.558L670.29 102.289C670.468 105.2 669.732 107.494 668.081 109.171C666.43 110.837 663.914 111.774 660.535 111.98L657.026 112.195Z" fill="#2049DB"/>
<g clip-path="url(#clip1_84_346)">
<path d="M735.362 80.7593L731.295 81.0079L731.398 82.6941C731.411 82.905 731.251 83.0868 731.04 83.0997L730.154 83.1539C729.943 83.1668 729.761 83.0058 729.749 82.7949L729.646 81.1088L725.579 81.3574C725.274 81.376 725.041 81.6385 725.06 81.9434L725.591 90.6217C725.609 90.9269 725.872 91.1589 726.177 91.1402L735.96 90.5422C736.265 90.5236 736.497 90.2614 736.478 89.9561L735.948 81.2778C735.929 80.9729 735.667 80.7407 735.362 80.7593Z" fill="#2049DB"/>
<path d="M731.525 110.994C729.054 111.145 726.922 109.258 726.77 106.788C726.619 104.317 728.506 102.184 730.977 102.033C733.448 101.882 735.581 103.769 735.732 106.24C735.883 108.711 733.995 110.843 731.525 110.994ZM731.115 104.291C729.889 104.366 728.953 105.424 729.028 106.65C729.103 107.875 730.161 108.811 731.387 108.737C732.612 108.662 733.548 107.603 733.474 106.378C733.399 105.152 732.341 104.216 731.115 104.291Z" fill="#2049DB"/>
<path d="M706.679 112.513C704.209 112.664 702.076 110.777 701.925 108.306C701.774 105.836 703.661 103.703 706.132 103.552C708.602 103.401 710.735 105.288 710.886 107.759C711.037 110.229 709.15 112.362 706.679 112.513ZM706.27 105.81C705.044 105.885 704.108 106.943 704.183 108.168C704.258 109.394 705.316 110.33 706.541 110.255C707.767 110.18 708.703 109.122 708.628 107.897C708.553 106.671 707.495 105.735 706.27 105.81Z" fill="#2049DB"/>
<path d="M732.855 97.6142L732.779 96.3864L735.903 96.1954C736.609 96.1522 737.147 95.5447 737.104 94.8381L737.049 93.9273C737.005 93.221 736.397 92.6832 735.691 92.7264L720.037 93.6833C719.33 93.7265 718.792 94.3343 718.836 95.0407L718.892 95.965C718.935 96.6715 719.543 97.2092 720.25 97.166L721.981 97.0602L722.281 101.977L713.61 102.507C712.914 101.555 712.029 100.754 711.014 100.155L713.673 87.6452L716.826 87.4525C717.532 87.4093 718.07 86.8012 718.027 86.0947C717.983 85.3884 717.376 84.8506 716.669 84.8938C716.669 84.8938 713.352 85.0965 712.188 85.1677C712.029 85.1774 711.755 85.2612 711.623 85.3366C711.432 85.447 711.269 85.606 711.155 85.8025L702.909 99.9664C702.663 100.382 702.494 100.895 702.67 101.326C702.944 101.995 703.743 102.192 704.532 101.904C705.131 101.686 705.632 101.576 706.276 101.537C709.609 101.333 712.487 103.879 712.69 107.212C712.734 107.919 713.341 108.457 714.048 108.413L723.979 107.806C724.685 107.763 725.223 107.155 725.18 106.449C724.976 103.115 727.522 100.238 730.855 100.034C734.188 99.8306 737.065 102.376 737.269 105.71C737.312 106.416 737.92 106.954 738.626 106.911C739.333 106.868 739.871 106.26 739.828 105.553C739.583 101.548 736.625 98.3409 732.855 97.6142Z" fill="#2049DB"/>
</g>
<path d="M772.127 103.531L770.94 84.1138C770.915 83.7083 771.04 83.3563 771.314 83.0577C771.588 82.7592 771.927 82.5976 772.333 82.5728L790.315 81.4735C790.72 81.4487 791.072 81.5733 791.371 81.8473C791.68 82.1206 791.847 82.46 791.871 82.8655L791.961 84.3315C791.986 84.737 791.862 85.0942 791.588 85.4032C791.325 85.701 790.99 85.8624 790.585 85.8872L777.001 86.7176L777.336 92.2073L788.394 91.5314C788.799 91.5066 789.151 91.6312 789.45 91.9051C789.759 92.1785 789.925 92.5127 789.949 92.9078L790.04 94.3894C790.065 94.7949 789.94 95.1521 789.667 95.461C789.404 95.7589 789.069 95.9202 788.664 95.945L777.606 96.621L778.006 103.171C778.033 103.598 777.909 103.965 777.636 104.274C777.372 104.572 777.037 104.733 776.632 104.758L773.7 104.937C773.294 104.962 772.938 104.843 772.629 104.58C772.32 104.307 772.153 103.957 772.127 103.531ZM817.929 101.56C817.956 102.008 817.705 102.247 817.174 102.28L813.431 102.508C813.036 102.533 812.591 102.419 812.096 102.167C811.61 101.905 811.23 101.579 810.956 101.188L808.051 97.2019C806.855 95.5635 805.482 94.7916 803.933 94.8863L800.128 95.119L800.538 101.825C800.562 102.231 800.438 102.588 800.165 102.897C799.901 103.195 799.567 103.356 799.161 103.381L796.229 103.56C795.824 103.585 795.467 103.466 795.158 103.203C794.85 102.93 794.683 102.59 794.658 102.185L793.471 82.7677C793.446 82.3623 793.565 82.0054 793.828 81.6971C794.091 81.3888 794.425 81.2223 794.831 81.1975L807.697 80.4109C810.078 80.2654 812.067 80.7856 813.663 81.9717C815.27 83.1571 816.139 84.8364 816.272 87.0094C816.457 90.035 814.613 92.0523 810.741 93.0613C811.378 93.2519 811.98 93.6117 812.544 94.1408C813.108 94.6594 813.766 95.428 814.517 96.4466L817.631 100.78C817.815 101.061 817.914 101.321 817.929 101.56ZM799.858 90.7053L806.502 90.2992C807.573 90.2337 808.5 89.9631 809.285 89.4872C810.081 89.0107 810.45 88.3046 810.393 87.3688C810.335 86.4331 809.883 85.7772 809.036 85.4011C808.199 85.0244 807.245 84.8687 806.174 84.9342L799.53 85.3404L799.858 90.7053ZM819.525 100.633L818.338 81.2163C818.313 80.8108 818.437 80.4588 818.711 80.1603C818.985 79.8618 819.325 79.7001 819.731 79.6753L837.713 78.5761C838.118 78.5513 838.47 78.6759 838.769 78.9499C839.078 79.2232 839.244 79.5626 839.269 79.9681L839.359 81.4341C839.384 81.8396 839.259 82.1968 838.986 82.5057C838.722 82.8036 838.388 82.965 837.982 82.9897L824.398 83.8201L824.676 88.3585L836.373 87.6435C836.778 87.6187 837.13 87.7433 837.429 88.0173C837.737 88.2802 837.904 88.6144 837.928 89.0199L838.018 90.4859C838.043 90.8914 837.919 91.2486 837.645 91.5575C837.382 91.8554 837.047 92.0168 836.642 92.0415L824.945 92.7566L825.226 97.3574L838.779 96.5289C839.174 96.5047 839.52 96.6244 839.818 96.888C840.116 97.1516 840.277 97.4861 840.302 97.8916L840.394 99.3888C840.419 99.7943 840.294 100.151 840.021 100.46C839.747 100.759 839.407 100.921 839.002 100.945L821.098 102.04C820.692 102.065 820.335 101.946 820.027 101.683C819.718 101.409 819.551 101.06 819.525 100.633ZM842.366 99.2369L841.179 79.8201C841.154 79.4146 841.279 79.0626 841.553 78.764C841.826 78.4655 842.166 78.3039 842.572 78.2791L860.554 77.1798C860.959 77.155 861.311 77.2796 861.61 77.5536C861.919 77.8269 862.086 78.1663 862.11 78.5718L862.2 80.0378C862.225 80.4433 862.1 80.8005 861.827 81.1094C861.564 81.4073 861.229 81.5687 860.824 81.5935L847.24 82.4239L847.517 86.9623L859.214 86.2472C859.619 86.2224 859.971 86.347 860.27 86.621C860.578 86.8839 860.745 87.2181 860.77 87.6236L860.859 89.0896C860.884 89.4951 860.76 89.8523 860.486 90.1612C860.223 90.4591 859.888 90.6205 859.483 90.6453L847.786 91.3603L848.067 95.9611L861.62 95.1326C862.015 95.1084 862.361 95.2281 862.659 95.4917C862.957 95.7553 863.119 96.0898 863.143 96.4953L863.235 97.9925C863.26 98.398 863.135 98.7552 862.862 99.0641C862.588 99.3626 862.248 99.5243 861.843 99.5491L843.939 100.644C843.533 100.668 843.176 100.549 842.868 100.286C842.559 100.013 842.392 99.6632 842.366 99.2369ZM896.03 95.1424C894.023 97.1332 890.961 98.2544 886.843 98.5061C882.736 98.7571 879.56 98.0173 877.315 96.2865C875.069 94.5452 873.823 91.6524 873.576 87.6078C873.328 83.5633 874.213 80.5453 876.231 78.5539C878.249 76.5625 881.311 75.4413 885.418 75.1902C889.535 74.9385 892.711 75.6784 894.946 77.4099C897.191 79.1407 898.438 82.0284 898.685 86.0729C898.932 90.1174 898.047 93.1406 896.03 95.1424ZM890.89 80.9609C889.763 79.7774 888.025 79.2575 885.675 79.4011C883.336 79.5441 881.674 80.2719 880.69 81.5844C879.716 82.8963 879.305 84.7895 879.456 87.264C879.607 89.7282 880.245 91.552 881.372 92.7354C882.508 93.9079 884.246 94.4226 886.585 94.2796C888.935 94.136 890.597 93.4134 891.571 92.1119C892.545 90.8001 892.957 88.9121 892.806 86.4479C892.655 83.9734 892.016 82.1444 890.89 80.9609ZM901.533 95.6513L900.346 76.2344C900.322 75.8289 900.441 75.4721 900.704 75.1638C900.967 74.8555 901.301 74.6889 901.706 74.6642L906.291 74.3839C906.655 74.3616 907.049 74.4837 907.472 74.75C907.896 75.0163 908.25 75.3443 908.534 75.7339L918.84 89.6466L917.952 75.1269C917.928 74.7214 918.047 74.3697 918.31 74.0718C918.584 73.7733 918.924 73.6116 919.33 73.5868L922.012 73.4229C922.418 73.3981 922.769 73.5175 923.067 73.781C923.375 74.044 923.543 74.3886 923.569 74.8149L924.756 94.2317C924.78 94.6372 924.656 94.9944 924.383 95.3034C924.119 95.6012 923.785 95.7626 923.379 95.7874L918.201 96.1039C917.796 96.1287 917.371 96.0137 916.928 95.7591C916.484 95.494 916.125 95.1663 915.85 94.7761L906.408 81.9221L907.226 95.3033C907.251 95.7088 907.126 96.066 906.853 96.3749C906.59 96.6728 906.255 96.8342 905.85 96.859L903.105 97.0268C902.699 97.0515 902.342 96.9325 902.034 96.6695C901.725 96.3962 901.558 96.0568 901.533 95.6513ZM937.806 95.0307C934.354 95.2417 931.646 94.4732 929.682 92.7252C927.728 90.9766 926.634 88.1892 926.4 84.363C926.165 80.5264 926.953 77.6292 928.764 75.6713C930.585 73.7024 933.424 72.6 937.282 72.3642L940.76 72.1516C943.057 72.0111 945.16 72.4357 947.068 73.4253C948.985 74.4039 949.994 75.7146 950.095 77.3573C950.132 77.9708 949.977 78.4238 949.63 78.7164C949.282 78.9985 948.936 79.1501 948.593 79.1711L946.737 79.2845C945.843 79.3392 945.1 78.8733 944.507 77.8867C943.914 76.9002 942.573 76.4708 940.483 76.5986L937.707 76.7683C935.43 76.9075 933.916 77.4906 933.165 78.5175C932.414 79.5444 932.118 81.3679 932.278 83.988C932.439 86.6081 932.913 88.4002 933.703 89.3642C934.492 90.3179 935.822 90.7375 937.693 90.6231L940.891 90.4277C942.564 90.3253 943.741 89.9351 944.419 89.257C945.097 88.5685 945.41 87.6258 945.358 86.4289L941.833 86.6443C941.428 86.6691 941.071 86.55 940.763 86.2871C940.464 86.0132 940.302 85.6734 940.278 85.2679L940.203 84.0515C940.179 83.646 940.298 83.2943 940.561 82.9964C940.835 82.6875 941.174 82.5206 941.58 82.4958L949.409 82.0172C949.814 81.9924 950.166 82.117 950.465 82.391C950.773 82.6539 950.94 82.9881 950.964 83.3936L951.07 85.1248C951.248 88.036 950.512 90.33 948.861 92.0068C947.21 93.6731 944.694 94.6096 941.315 94.8162L937.806 95.0307ZM976.958 91.8233C976.986 92.2808 976.729 92.5261 976.189 92.5591L972.617 92.7774C972.212 92.8022 971.767 92.6886 971.282 92.4364C970.796 92.1739 970.411 91.8478 970.126 91.4582L967.115 87.2748C966.395 86.2543 965.686 85.4993 964.989 85.0097C964.29 84.5097 963.473 84.2883 962.537 84.3455L959.184 84.5505L959.647 92.1301C959.672 92.5356 959.548 92.8876 959.274 93.1861C959.01 93.4736 958.675 93.6298 958.269 93.6545L955.337 93.8338C954.932 93.8586 954.574 93.7343 954.266 93.461C953.956 93.1772 953.789 92.8326 953.764 92.4271L952.579 73.0415C952.554 72.636 952.678 72.2736 952.951 71.9542C953.223 71.6349 953.563 71.4629 953.968 71.4381L956.9 71.2588C957.306 71.2341 957.658 71.3638 957.957 71.6482C958.267 71.9319 958.434 72.2765 958.459 72.682L958.915 80.1525L962.268 79.9475C963.183 79.8916 963.969 79.5931 964.624 79.0521C965.29 78.5104 965.901 77.6643 966.457 76.5136L968.612 72.0614C969.102 71.0296 969.819 70.4795 970.765 70.4113L974.368 70.1911C974.867 70.1606 975.129 70.3636 975.156 70.8003C975.171 71.0395 975.1 71.3308 974.943 71.6743L971.934 78.0104C971.5 78.9344 970.994 79.7063 970.416 80.326C969.849 80.9452 969.084 81.4042 968.121 81.703C968.816 81.8067 969.544 82.1952 970.305 82.8688C971.077 83.5417 971.764 84.2824 972.367 85.0909L976.645 91.0597C976.84 91.3504 976.945 91.605 976.958 91.8233ZM978.2 90.996L977.011 71.5479C976.986 71.1424 977.11 70.7852 977.384 70.4763C977.657 70.1674 977.996 70.0005 978.402 69.9757L981.303 69.7984C981.729 69.7724 982.091 69.8963 982.39 70.1703C982.699 70.4436 982.866 70.783 982.89 71.1885L984.077 90.6054C984.102 91.0109 983.973 91.3684 983.689 91.678C983.415 91.9765 983.075 92.1381 982.67 92.1629L979.769 92.3402C979.364 92.365 979.007 92.2512 978.699 91.9986C978.391 91.7357 978.224 91.4015 978.2 90.996ZM1010.87 89.7661C1010.89 90.2132 1010.64 90.453 1010.11 90.4854L1006.37 90.7142C1005.97 90.7384 1005.53 90.6247 1005.03 90.3732C1004.55 90.1107 1004.17 89.7843 1003.89 89.3941L1000.99 85.4076C999.792 83.7692 998.42 82.9974 996.87 83.0921L993.065 83.3247L993.475 90.0309C993.5 90.4364 993.375 90.7936 993.102 91.1025C992.839 91.4004 992.504 91.5618 992.099 91.5865L989.166 91.7658C988.761 91.7906 988.404 91.6715 988.096 91.4086C987.787 91.1352 987.62 90.7958 987.595 90.3903L986.408 70.9735C986.384 70.568 986.503 70.2111 986.766 69.9028C987.028 69.5945 987.363 69.428 987.768 69.4032L1000.63 68.6166C1003.02 68.4711 1005 68.9914 1006.6 70.1774C1008.21 71.3629 1009.08 73.0421 1009.21 75.2151C1009.39 78.2407 1007.55 80.258 1003.68 81.267C1004.32 81.4576 1004.92 81.8175 1005.48 82.3465C1006.05 82.8651 1006.7 83.6337 1007.45 84.6523L1010.57 88.986C1010.75 89.267 1010.85 89.527 1010.87 89.7661ZM992.795 78.911L999.439 78.5049C1000.51 78.4394 1001.44 78.1688 1002.22 77.6929C1003.02 77.2164 1003.39 76.5103 1003.33 75.5745C1003.27 74.6388 1002.82 73.9829 1001.97 73.6068C1001.14 73.2301 1000.18 73.0745 999.111 73.1399L992.467 73.5461L992.795 78.911Z" fill="#2049DB"/>
<g clip-path="url(#clip2_84_346)">
<path d="M1051.93 64.8863L1056.38 72.1282L1064.11 75.6632L1056.87 80.1133L1053.33 87.8434L1048.88 80.6014L1041.15 77.0665L1048.39 72.6164L1051.93 64.8863Z" fill="#2049DB"/>
</g>
<path d="M1118.21 81.5602C1116.21 83.551 1113.15 84.6722 1109.03 84.9239C1104.92 85.175 1101.75 84.4351 1099.5 82.7043C1097.25 80.9631 1096.01 78.0702 1095.76 74.0257C1095.51 69.9811 1096.4 66.9632 1098.42 64.9718C1100.43 62.9803 1103.5 61.8591 1107.6 61.6081C1111.72 61.3564 1114.9 62.0962 1117.13 63.8277C1119.38 65.5585 1120.62 68.4462 1120.87 72.4907C1121.12 76.5353 1120.23 79.5584 1118.21 81.5602ZM1113.07 67.3787C1111.95 66.1952 1110.21 65.6753 1107.86 65.8189C1105.52 65.962 1103.86 66.6897 1102.87 68.0022C1101.9 69.3141 1101.49 71.2073 1101.64 73.6818C1101.79 76.146 1102.43 77.9698 1103.56 79.1533C1104.69 80.3257 1106.43 80.8404 1108.77 80.6974C1111.12 80.5538 1112.78 79.8312 1113.76 78.5298C1114.73 77.2179 1115.14 75.3299 1114.99 72.8657C1114.84 70.3912 1114.2 68.5622 1113.07 67.3787ZM1146.99 81.4449C1147.02 81.892 1146.76 82.1318 1146.23 82.1642L1142.49 82.393C1142.1 82.4172 1141.65 82.3035 1141.16 82.052C1140.67 81.7895 1140.29 81.4631 1140.02 81.0729L1137.11 77.0864C1135.91 75.448 1134.54 74.6762 1132.99 74.7709L1129.19 75.0035L1129.6 81.7097C1129.62 82.1152 1129.5 82.4724 1129.22 82.7813C1128.96 83.0792 1128.63 83.2406 1128.22 83.2653L1125.29 83.4446C1124.88 83.4694 1124.53 83.3503 1124.22 83.0874C1123.91 82.814 1123.74 82.4746 1123.72 82.0691L1122.53 62.6523C1122.51 62.2468 1122.63 61.8899 1122.89 61.5816C1123.15 61.2733 1123.49 61.1068 1123.89 61.082L1136.76 60.2954C1139.14 60.1499 1141.13 60.6702 1142.72 61.8562C1144.33 63.0417 1145.2 64.7209 1145.33 66.8939C1145.52 69.9195 1143.67 71.9368 1139.8 72.9458C1140.44 73.1364 1141.04 73.4963 1141.6 74.0253C1142.17 74.5439 1142.83 75.3125 1143.58 76.3311L1146.69 80.6648C1146.88 80.9458 1146.97 81.2058 1146.99 81.4449ZM1128.92 70.5898L1135.56 70.1837C1136.63 70.1182 1137.56 69.8476 1138.35 69.3717C1139.14 68.8952 1139.51 68.1891 1139.45 67.2533C1139.4 66.3176 1138.94 65.6617 1138.1 65.2856C1137.26 64.9089 1136.3 64.7533 1135.23 64.8187L1128.59 65.2249L1128.92 70.5898ZM1148.59 80.5801L1147.4 61.1632C1147.38 60.7369 1147.5 60.3693 1147.77 60.0604C1148.05 59.7515 1148.39 59.5846 1148.79 59.5599L1157.51 59.0269C1162.02 58.7511 1165.36 59.4551 1167.52 61.139C1169.68 62.8119 1170.89 65.577 1171.12 69.4344C1171.36 73.2814 1170.5 76.1672 1168.55 78.0917C1166.61 80.0157 1163.39 81.1156 1158.88 81.3914L1150.16 81.9244C1149.75 81.9491 1149.4 81.8353 1149.09 81.5827C1148.78 81.3198 1148.61 80.9856 1148.59 80.5801ZM1154.29 77.2419L1158.43 76.9883C1161.23 76.8173 1163.1 76.1915 1164.05 75.1109C1165 74.0304 1165.39 72.258 1165.24 69.7938C1165.09 67.3193 1164.48 65.6034 1163.41 64.6461C1162.34 63.6784 1160.4 63.2801 1157.61 63.451L1153.46 63.7046L1154.29 77.2419ZM1173.95 78.967L1172.77 59.5501C1172.74 59.1446 1172.87 58.7926 1173.14 58.4941C1173.41 58.1956 1173.75 58.0339 1174.16 58.0091L1192.14 56.9099C1192.55 56.8851 1192.9 57.0097 1193.2 57.2836C1193.51 57.557 1193.67 57.8964 1193.7 58.3019L1193.79 59.7679C1193.81 60.1734 1193.69 60.5306 1193.41 60.8395C1193.15 61.1374 1192.82 61.2987 1192.41 61.3235L1178.83 62.1539L1179.1 66.6923L1190.8 65.9773C1191.21 65.9525 1191.56 66.0771 1191.86 66.351C1192.16 66.614 1192.33 66.9482 1192.36 67.3537L1192.45 68.8197C1192.47 69.2252 1192.35 69.5824 1192.07 69.8913C1191.81 70.1892 1191.47 70.3505 1191.07 70.3753L1179.37 71.0904L1179.65 75.6911L1193.21 74.8627C1193.6 74.8385 1193.95 74.9582 1194.25 75.2218C1194.54 75.4853 1194.71 75.8199 1194.73 76.2254L1194.82 77.7226C1194.85 78.1281 1194.72 78.4853 1194.45 78.7942C1194.17 79.0927 1193.84 79.2544 1193.43 79.2791L1175.53 80.3736C1175.12 80.3984 1174.76 80.2793 1174.45 80.0164C1174.15 79.7431 1173.98 79.3933 1173.95 78.967ZM1220.07 76.9777C1220.09 77.4248 1219.84 77.6645 1219.31 77.697L1215.57 77.9258C1215.17 77.9499 1214.73 77.8363 1214.23 77.5848C1213.75 77.3222 1213.37 76.9959 1213.09 76.6056L1210.19 72.6192C1208.99 70.9808 1207.62 70.2089 1206.07 70.3036L1202.27 70.5363L1202.68 77.2425C1202.7 77.648 1202.58 78.0052 1202.3 78.3141C1202.04 78.612 1201.7 78.7733 1201.3 78.7981L1198.37 78.9773C1197.96 79.0021 1197.6 78.8831 1197.3 78.6201C1196.99 78.3468 1196.82 78.0074 1196.8 77.6019L1195.61 58.185C1195.58 57.7795 1195.7 57.4226 1195.97 57.1144C1196.23 56.8061 1196.56 56.6395 1196.97 56.6148L1209.83 55.8282C1212.22 55.6827 1214.2 56.2029 1215.8 57.389C1217.41 58.5744 1218.28 60.2537 1218.41 62.4267C1218.59 65.4523 1216.75 67.4696 1212.88 68.4786C1213.52 68.6692 1214.12 69.029 1214.68 69.5581C1215.25 70.0767 1215.9 70.8453 1216.65 71.8639L1219.77 76.1976C1219.95 76.4785 1220.05 76.7386 1220.07 76.9777ZM1202 66.1226L1208.64 65.7165C1209.71 65.651 1210.64 65.3803 1211.42 64.9045C1212.22 64.428 1212.59 63.7219 1212.53 62.7861C1212.47 61.8504 1212.02 61.1944 1211.17 60.8184C1210.34 60.4416 1209.38 60.286 1208.31 60.3515L1201.67 60.7576L1202 66.1226ZM1230.36 71.2762C1230.33 70.6628 1230.48 70.215 1230.83 69.9328C1231.18 69.6402 1231.52 69.4835 1231.87 69.4625L1233.72 69.349C1234.66 69.2918 1235.4 69.7578 1235.95 70.7468C1236.5 71.7359 1237.63 72.1783 1239.34 72.0741L1244.8 71.8495C1246.63 71.7377 1247.51 71.0839 1247.44 69.8882C1247.38 68.9837 1246.22 68.3398 1243.95 67.9566C1242.94 67.7784 1241.82 67.6119 1240.6 67.4569C1239.38 67.2915 1238.16 67.0685 1236.95 66.7881C1235.74 66.5071 1234.62 66.1579 1233.6 65.7407C1232.57 65.3234 1231.72 64.718 1231.04 63.9243C1230.38 63.1196 1230.01 62.1506 1229.94 61.0173C1229.81 58.9275 1230.46 57.2757 1231.88 56.0619C1233.29 54.8377 1235.82 54.1147 1239.45 53.8929L1243.41 53.7443C1245.54 53.614 1247.5 54.0478 1249.27 55.0457C1251.05 56.0325 1251.99 57.3473 1252.09 58.9901C1252.13 59.6035 1251.98 60.0565 1251.63 60.3491C1251.28 60.6417 1250.94 60.7981 1250.61 60.8185L1248.75 60.9319C1247.82 60.9891 1247.07 60.5232 1246.52 59.5341C1245.97 58.5347 1244.84 58.0871 1243.14 58.1913L1238.44 58.3847C1236.61 58.4965 1235.73 59.1503 1235.8 60.346C1235.84 61.001 1236.45 61.5012 1237.63 61.8466C1238.82 62.1913 1240.25 62.4746 1241.91 62.6964C1243.58 62.9073 1245.26 63.1854 1246.95 63.5308C1248.65 63.8762 1250.1 64.5283 1251.32 65.4871C1252.54 66.4348 1253.2 67.6729 1253.3 69.2013C1253.42 71.2911 1252.77 72.9485 1251.35 74.1733C1249.93 75.3871 1247.41 76.1046 1243.79 76.3258L1239.06 76.5211C1236.93 76.6514 1234.97 76.2231 1233.19 75.2362C1231.41 74.239 1230.46 72.919 1230.36 71.2762ZM1255.83 73.9615L1254.65 54.5446C1254.62 54.1392 1254.75 53.7871 1255.02 53.4886C1255.3 53.1901 1255.64 53.0284 1256.04 53.0037L1274.02 51.9044C1274.43 51.8796 1274.78 52.0042 1275.08 52.2782C1275.39 52.5515 1275.55 52.8909 1275.58 53.2964L1275.67 54.7624C1275.69 55.1679 1275.57 55.5251 1275.3 55.834C1275.03 56.1319 1274.7 56.2933 1274.29 56.318L1260.71 57.1484L1260.99 61.6868L1272.68 60.9718C1273.09 60.947 1273.44 61.0716 1273.74 61.3456C1274.05 61.6085 1274.21 61.9427 1274.24 62.3482L1274.33 63.8142C1274.35 64.2197 1274.23 64.5769 1273.96 64.8858C1273.69 65.1837 1273.36 65.3451 1272.95 65.3699L1261.25 66.0849L1261.54 70.6857L1275.09 69.8572C1275.48 69.833 1275.83 69.9527 1276.13 70.2163C1276.43 70.4799 1276.59 70.8144 1276.61 71.2199L1276.7 72.7171C1276.73 73.1226 1276.6 73.4798 1276.33 73.7887C1276.06 74.0872 1275.72 74.2489 1275.31 74.2737L1257.41 75.3682C1257 75.3929 1256.65 75.2739 1256.34 75.0109C1256.03 74.7376 1255.86 74.3878 1255.83 73.9615ZM1301.87 71.9614C1301.9 72.4189 1301.64 72.6642 1301.1 72.6972L1297.53 72.9155C1297.12 72.9403 1296.68 72.8267 1296.19 72.5745C1295.71 72.312 1295.32 71.9859 1295.04 71.5963L1292.03 67.4129C1291.31 66.3924 1290.6 65.6374 1289.9 65.1478C1289.2 64.6478 1288.38 64.4264 1287.45 64.4836L1284.1 64.6886L1284.56 72.2682C1284.58 72.6737 1284.46 73.0257 1284.19 73.3242C1283.92 73.6117 1283.59 73.7679 1283.18 73.7926L1280.25 73.9719C1279.84 73.9967 1279.49 73.8724 1279.18 73.5991C1278.87 73.3153 1278.7 72.9707 1278.68 72.5652L1277.49 53.1796C1277.47 52.7741 1277.59 52.4117 1277.86 52.0923C1278.14 51.773 1278.47 51.601 1278.88 51.5762L1281.81 51.397C1282.22 51.3722 1282.57 51.5019 1282.87 51.7863C1283.18 52.07 1283.35 52.4146 1283.37 52.8201L1283.83 60.2906L1287.18 60.0856C1288.1 60.0297 1288.88 59.7312 1289.54 59.1902C1290.2 58.6485 1290.81 57.8024 1291.37 56.6517L1293.52 52.1995C1294.01 51.1677 1294.73 50.6176 1295.68 50.5494L1299.28 50.3292C1299.78 50.2987 1300.04 50.5017 1300.07 50.9384C1300.08 51.1776 1300.01 51.4689 1299.86 51.8124L1296.85 58.1485C1296.41 59.0725 1295.91 59.8444 1295.33 60.4642C1294.76 61.0833 1294 61.5423 1293.03 61.8411C1293.73 61.9448 1294.46 62.3333 1295.22 63.0069C1295.99 63.6798 1296.68 64.4205 1297.28 65.229L1301.56 71.1978C1301.75 71.4885 1301.86 71.7431 1301.87 71.9614ZM1301.27 71.2466L1304.28 56.16C1305.09 52.0507 1308.42 49.8122 1314.26 49.4446L1322.67 48.9307C1323.05 48.9072 1323.38 49.0334 1323.65 49.3092C1323.92 49.5845 1324.07 49.9144 1324.1 50.2991L1325.29 69.7784C1325.31 70.1839 1325.19 70.5359 1324.92 70.8344C1324.64 71.1225 1324.3 71.279 1323.89 71.3038L1320.96 71.483C1320.54 71.5091 1320.17 71.3955 1319.88 71.1424C1319.59 70.8782 1319.43 70.5329 1319.41 70.1066L1319.17 66.1765L1308.08 66.8543L1307.27 70.8484C1307.2 71.281 1306.98 71.6488 1306.64 71.9518C1306.29 72.2444 1305.91 72.403 1305.51 72.4278L1302.43 72.6156C1302.03 72.6404 1301.73 72.5439 1301.54 72.3259C1301.35 72.0976 1301.25 71.895 1301.24 71.7183C1301.24 71.5409 1301.25 71.3837 1301.27 71.2466ZM1308.96 62.3701L1318.9 61.7628L1318.4 53.6218L1313.95 53.8935C1312.96 53.9545 1312.1 54.2938 1311.39 54.9114C1310.68 55.518 1310.23 56.3075 1310.03 57.28L1308.96 62.3701ZM1352.06 68.9089C1352.09 69.356 1351.84 69.5958 1351.31 69.6282L1347.56 69.857C1347.17 69.8811 1346.72 69.7675 1346.23 69.516C1345.74 69.2535 1345.36 68.9271 1345.09 68.5368L1342.18 64.5504C1340.99 62.912 1339.61 62.1401 1338.06 62.2348L1334.26 62.4675L1334.67 69.1737C1334.69 69.5792 1334.57 69.9364 1334.3 70.2453C1334.03 70.5432 1333.7 70.7045 1333.29 70.7293L1330.36 70.9086C1329.95 70.9333 1329.6 70.8143 1329.29 70.5513C1328.98 70.278 1328.81 69.9386 1328.79 69.5331L1327.6 50.1162C1327.58 49.7107 1327.7 49.3539 1327.96 49.0456C1328.22 48.7373 1328.56 48.5708 1328.96 48.546L1341.83 47.7594C1344.21 47.6139 1346.2 48.1341 1347.79 49.3202C1349.4 50.5056 1350.27 52.1849 1350.4 54.3579C1350.59 57.3835 1348.74 59.4008 1344.87 60.4098C1345.51 60.6004 1346.11 60.9602 1346.68 61.4893C1347.24 62.0079 1347.9 62.7765 1348.65 63.7951L1351.76 68.1288C1351.95 68.4097 1352.05 68.6698 1352.06 68.9089ZM1333.99 58.0538L1340.63 57.6477C1341.7 57.5822 1342.63 57.3116 1343.42 56.8357C1344.21 56.3592 1344.58 55.6531 1344.52 54.7173C1344.47 53.7816 1344.01 53.1256 1343.17 52.7496C1342.33 52.3729 1341.38 52.2172 1340.3 52.2827L1333.66 52.6888L1333.99 58.0538ZM1351.82 68.1566L1354.83 53.07C1355.64 48.9606 1358.97 46.7222 1364.81 46.3546L1373.22 45.8407C1373.6 45.8172 1373.93 45.9434 1374.19 46.2192C1374.47 46.4945 1374.62 46.8244 1374.65 47.2091L1375.84 66.6884C1375.86 67.0939 1375.74 67.4459 1375.46 67.7444C1375.19 68.0325 1374.85 68.189 1374.44 68.2138L1371.51 68.393C1371.08 68.4191 1370.72 68.3055 1370.43 68.0524C1370.14 67.7881 1369.98 67.4429 1369.96 67.0166L1369.72 63.0865L1358.63 63.7643L1357.82 67.7583C1357.74 68.191 1357.53 68.5588 1357.18 68.8618C1356.84 69.1543 1356.46 69.313 1356.06 69.3378L1352.98 69.5256C1352.58 69.5504 1352.28 69.4538 1352.09 69.2359C1351.9 69.0076 1351.8 68.805 1351.79 68.6283C1351.79 68.4509 1351.8 68.2937 1351.82 68.1566ZM1359.51 59.2801L1369.45 58.6728L1368.95 50.5318L1364.5 50.8035C1363.5 50.8645 1362.65 51.2038 1361.94 51.8214C1361.23 52.428 1360.78 53.2175 1360.58 54.1899L1359.51 59.2801ZM1379.34 66.4431L1378.15 47.0262C1378.13 46.6207 1378.24 46.2638 1378.51 45.9556C1378.77 45.6473 1379.1 45.4807 1379.51 45.4559L1384.1 45.1757C1384.46 45.1534 1384.85 45.2755 1385.28 45.5418C1385.7 45.8081 1386.05 46.1361 1386.34 46.5257L1396.64 60.4384L1395.76 45.9187C1395.73 45.5132 1395.85 45.1615 1396.11 44.8636C1396.39 44.5651 1396.73 44.4034 1397.13 44.3786L1399.82 44.2146C1400.22 44.1899 1400.57 44.3092 1400.87 44.5728C1401.18 44.8357 1401.35 45.1804 1401.37 45.6066L1402.56 65.0235C1402.58 65.429 1402.46 65.7862 1402.19 66.0951C1401.92 66.393 1401.59 66.5544 1401.18 66.5792L1396.01 66.8957C1395.6 66.9205 1395.18 66.8055 1394.73 66.5509C1394.29 66.2858 1393.93 65.9581 1393.65 65.5679L1384.21 52.7138L1385.03 66.0951C1385.05 66.5006 1384.93 66.8578 1384.66 67.1667C1384.39 67.4646 1384.06 67.626 1383.65 67.6507L1380.91 67.8185C1380.5 67.8433 1380.15 67.7243 1379.84 67.4613C1379.53 67.188 1379.36 66.8486 1379.34 66.4431ZM1415.61 65.8225C1412.16 66.0335 1409.45 65.265 1407.49 63.517C1405.53 61.7684 1404.44 58.981 1404.2 55.1548C1403.97 51.3182 1404.76 48.421 1406.57 46.4631C1408.39 44.4942 1411.23 43.3918 1415.09 43.156L1418.56 42.9434C1420.86 42.8029 1422.96 43.2275 1424.87 44.2171C1426.79 45.1957 1427.8 46.5064 1427.9 48.1491C1427.94 48.7626 1427.78 49.2156 1427.43 49.5081C1427.09 49.7903 1426.74 49.9419 1426.4 49.9629L1424.54 50.0763C1423.65 50.131 1422.9 49.6651 1422.31 48.6785C1421.72 47.692 1420.38 47.2626 1418.29 47.3904L1415.51 47.5601C1413.23 47.6993 1411.72 48.2823 1410.97 49.3093C1410.22 50.3362 1409.92 52.1597 1410.08 54.7798C1410.24 57.3999 1410.72 59.192 1411.51 60.156C1412.3 61.1097 1413.63 61.5293 1415.5 61.4149L1418.69 61.2194C1420.37 61.1171 1421.54 60.7269 1422.22 60.0488C1422.9 59.3603 1423.21 58.4176 1423.16 57.2207L1419.64 57.4361C1419.23 57.4609 1418.87 57.3418 1418.57 57.0789C1418.27 56.8049 1418.11 56.4652 1418.08 56.0597L1418.01 54.8432C1417.98 54.4378 1418.1 54.0861 1418.37 53.7882C1418.64 53.4793 1418.98 53.3124 1419.38 53.2876L1427.21 52.809C1427.62 52.7842 1427.97 52.9088 1428.27 53.1828C1428.58 53.4457 1428.74 53.7799 1428.77 54.1854L1428.87 55.9166C1429.05 58.8278 1428.32 61.1218 1426.66 62.7986C1425.01 64.4649 1422.5 65.4014 1419.12 65.608L1415.61 65.8225Z" fill="#2049DB"/>
<defs>
<clipPath id="clip0_84_346">
<rect width="24" height="24" fill="white" transform="translate(281.336 111.492) rotate(-3.49815)"/>
</clipPath>
<clipPath id="clip1_84_346">
<rect width="38" height="38" fill="white" transform="translate(700.126 78.8779) rotate(-3.49815)"/>
</clipPath>
<clipPath id="clip2_84_346">
<rect width="24" height="24" fill="white" transform="translate(1039.92 65.1194) rotate(-3.49815)"/>
</clipPath>
</defs>
</svg>
