<svg width="782" height="781" viewBox="0 0 782 781" fill="none" xmlns="http://www.w3.org/2000/svg">
<g opacity="0.3">
<g opacity="0.1">
<path d="M-39.7648 6.74141L-112 78.9766L-39.7648 151.212L32.4703 78.9766L-39.7648 6.74141Z" fill="white"/>
<path d="M104.735 6.68524L32.5 78.9204L104.735 151.156L176.97 78.9204L104.735 6.68524Z" fill="white"/>
<path d="M249.162 6.70221L176.927 78.9374L249.162 151.173L321.398 78.9374L249.162 6.70221Z" fill="white"/>
<path d="M-39.7089 151.241L-111.944 223.477L-39.7089 295.712L32.5262 223.477L-39.7089 151.241Z" fill="white"/>
<path d="M104.791 151.185L32.5562 223.421L104.791 295.656L177.026 223.421L104.791 151.185Z" fill="white"/>
<path d="M249.219 151.202L176.983 223.437L249.219 295.673L321.454 223.437L249.219 151.202Z" fill="white"/>
<path d="M-39.7255 295.669L-111.961 367.904L-39.7255 440.139L32.5096 367.904L-39.7255 295.669Z" fill="white"/>
<path d="M104.774 295.613L32.5393 367.848L104.774 440.083L177.01 367.848L104.774 295.613Z" fill="white"/>
<path d="M249.202 295.629L176.967 367.865L249.202 440.1L321.437 367.865L249.202 295.629Z" fill="white"/>
</g>
<g opacity="0.1">
<path d="M395.917 0.0578384L321.454 74.5212L395.917 148.985L470.381 74.5212L395.917 0.0578384Z" fill="white"/>
<path d="M544.875 -2.2907e-05L470.411 74.4634L544.875 148.927L619.338 74.4634L544.875 -2.2907e-05Z" fill="white"/>
<path d="M693.757 0.0174331L619.294 74.4808L693.757 148.944L768.221 74.4808L693.757 0.0174331Z" fill="white"/>
<path d="M395.975 149.015L321.511 223.479L395.975 297.942L470.438 223.479L395.975 149.015Z" fill="white"/>
<path d="M544.933 148.958L470.469 223.421L544.933 297.884L619.396 223.421L544.933 148.958Z" fill="white"/>
<path d="M693.815 148.975L619.352 223.438L693.815 297.902L768.278 223.438L693.815 148.975Z" fill="white"/>
<path d="M395.958 297.898L321.494 372.361L395.958 446.824L470.421 372.361L395.958 297.898Z" fill="white"/>
<path d="M544.915 297.84L470.452 372.303L544.915 446.767L619.378 372.303L544.915 297.84Z" fill="white"/>
<path d="M693.798 297.857L619.334 372.321L693.798 446.784L768.261 372.321L693.798 297.857Z" fill="white"/>
</g>
<g opacity="0.1">
<path d="M-37.5366 449.975L-112 524.438L-37.5366 598.902L36.9268 524.438L-37.5366 449.975Z" fill="white"/>
<path d="M111.421 449.917L36.9573 524.38L111.421 598.844L185.884 524.38L111.421 449.917Z" fill="white"/>
<path d="M260.303 449.934L185.84 524.398L260.303 598.861L334.767 524.398L260.303 449.934Z" fill="white"/>
<path d="M-37.479 598.932L-111.942 673.396L-37.479 747.859L36.9844 673.396L-37.479 598.932Z" fill="white"/>
<path d="M111.479 598.874L37.0154 673.338L111.479 747.801L185.942 673.338L111.479 598.874Z" fill="white"/>
<path d="M260.361 598.892L185.898 673.355L260.361 747.818L334.825 673.355L260.361 598.892Z" fill="white"/>
<path d="M-37.4961 747.815L-111.959 822.278L-37.4961 896.741L36.9673 822.278L-37.4961 747.815Z" fill="white"/>
<path d="M111.461 747.757L36.9978 822.22L111.461 896.684L185.925 822.22L111.461 747.757Z" fill="white"/>
<path d="M260.344 747.774L185.88 822.238L260.344 896.701L334.807 822.238L260.344 747.774Z" fill="white"/>
</g>
<g opacity="0.1">
<path d="M409.288 449.975L334.824 524.438L409.288 598.902L483.751 524.438L409.288 449.975Z" fill="white"/>
<path d="M558.245 449.917L483.782 524.38L558.245 598.844L632.709 524.38L558.245 449.917Z" fill="white"/>
<path d="M707.128 449.934L632.664 524.398L707.128 598.861L781.591 524.398L707.128 449.934Z" fill="white"/>
<path d="M409.345 598.932L334.882 673.396L409.345 747.859L483.809 673.396L409.345 598.932Z" fill="white"/>
<path d="M558.303 598.874L483.84 673.338L558.303 747.801L632.767 673.338L558.303 598.874Z" fill="white"/>
<path d="M707.186 598.892L632.722 673.355L707.186 747.818L781.649 673.355L707.186 598.892Z" fill="white"/>
<path d="M409.328 747.815L334.865 822.278L409.328 896.741L483.792 822.278L409.328 747.815Z" fill="white"/>
<path d="M558.286 747.757L483.822 822.22L558.286 896.684L632.749 822.22L558.286 747.757Z" fill="white"/>
<path d="M707.168 747.774L632.705 822.238L707.168 896.701L781.632 822.238L707.168 747.774Z" fill="white"/>
</g>
</g>
</svg>
