<svg width="1440" height="266" viewBox="0 0 1440 266" fill="none" xmlns="http://www.w3.org/2000/svg">
<rect width="1876" height="70" transform="translate(-100.703) rotate(5.98361)" fill="#2049DB"/>
<path d="M-72.3434 47.4021C-74.6512 49.035 -77.8563 49.6364 -81.9589 49.2064C-86.051 48.7775 -89.0618 47.5245 -90.9912 45.4475C-92.9196 43.3601 -93.6725 40.3014 -93.2501 36.2714C-92.8277 32.2414 -91.4574 29.4105 -89.1393 27.7786C-86.8211 26.1468 -83.616 25.5454 -79.5238 25.9743C-75.4213 26.4043 -72.4105 27.6573 -70.4914 29.7332C-68.562 31.8102 -67.8085 34.8638 -68.2309 38.8938C-68.6533 42.9238 -70.0242 45.7599 -72.3434 47.4021ZM-75.0775 32.5675C-75.9935 31.2146 -77.6222 30.4155 -79.9636 30.1701C-82.2946 29.9257 -84.0536 30.3698 -85.2406 31.5022C-86.4172 32.6357 -87.1348 34.4353 -87.3932 36.901C-87.6506 39.3563 -87.3212 41.2604 -86.4052 42.6132C-85.4777 43.9568 -83.8484 44.7508 -81.5175 44.9951C-79.1761 45.2405 -77.4177 44.8016 -76.2421 43.6785C-75.0654 42.545 -74.3484 40.7506 -74.0911 38.2953C-73.8326 35.8296 -74.1615 33.9203 -75.0775 32.5675ZM-43.9434 52.0284C-43.9901 52.4739 -44.2777 52.6689 -44.806 52.6136L-48.5356 52.2226C-48.9293 52.1814 -49.3497 51.9959 -49.7969 51.6662C-50.2327 51.3273 -50.5538 50.9428 -50.7601 50.5127L-52.9686 46.1022C-53.8783 44.2891 -55.105 43.3017 -56.6486 43.1399L-60.4403 42.7425L-61.1407 49.4246C-61.1831 49.8287 -61.3645 50.1605 -61.6849 50.4202C-61.994 50.6706 -62.3505 50.7746 -62.7546 50.7323L-65.6761 50.4261C-66.0801 50.3837 -66.4125 50.2075 -66.6732 49.8974C-66.9329 49.5769 -67.0416 49.2146 -66.9992 48.8106L-64.9714 29.4634C-64.929 29.0594 -64.7528 28.727 -64.4427 28.4662C-64.1325 28.2055 -63.7755 28.0963 -63.3714 28.1386L-50.551 29.4824C-48.1786 29.7311 -46.3029 30.5718 -44.9239 32.0046C-43.5346 33.4385 -42.9534 35.2381 -43.1803 37.4033C-43.4963 40.418 -45.6473 42.104 -49.6334 42.4613C-49.0357 42.7543 -48.502 43.2083 -48.0322 43.8231C-47.5614 44.4276 -47.0395 45.294 -46.4665 46.4223L-44.109 51.2098C-43.9736 51.5173 -43.9185 51.7901 -43.9434 52.0284ZM-59.9794 38.3447L-53.3594 39.0386C-52.2923 39.1504 -51.3325 39.0363 -50.4799 38.6963C-49.6169 38.3573 -49.1366 37.7216 -49.0389 36.7892C-48.9411 35.8568 -49.2792 35.1354 -50.0531 34.6248C-50.8167 34.1154 -51.732 33.8047 -52.7991 33.6929L-59.419 32.999L-59.9794 38.3447ZM-42.2232 51.4389L-40.1954 32.0918C-40.1508 31.667 -39.9683 31.3248 -39.6479 31.0651C-39.3274 30.8054 -38.9651 30.6968 -38.5611 30.7391L-29.8743 31.6496C-25.3781 32.1209 -22.204 33.3648 -20.352 35.3813C-18.4886 37.3886 -17.7584 40.314 -18.1612 44.1575C-18.563 47.9907 -19.8834 50.6959 -22.1226 52.2732C-24.3513 53.8515 -27.7138 54.4051 -32.21 53.9338L-40.8968 53.0233C-41.3008 52.981 -41.6338 52.8099 -41.8956 52.5101C-42.1564 52.2 -42.2656 51.8429 -42.2232 51.4389ZM-36.0536 49.0848L-31.92 49.5181C-29.1332 49.8102 -27.1841 49.5013 -26.0728 48.5913C-24.9615 47.6814 -24.2771 45.9988 -24.0198 43.5435C-23.7613 41.0778 -24.0813 39.2847 -24.9798 38.1641C-25.8773 37.0331 -27.7194 36.3216 -30.5062 36.0295L-34.6398 35.5962L-36.0536 49.0848ZM-16.9402 54.0261L-14.9123 34.679C-14.87 34.2749 -14.6891 33.9482 -14.3697 33.6989C-14.0503 33.4496 -13.6886 33.3461 -13.2845 33.3885L4.63292 35.2665C5.03696 35.3089 5.36364 35.4897 5.61295 35.8091C5.87262 36.1296 5.98128 36.4919 5.93894 36.8959L5.78583 38.3567C5.74348 38.7607 5.56206 39.0925 5.24158 39.3522C4.93254 39.6026 4.57601 39.7066 4.17197 39.6643L-9.36326 38.2456L-9.83724 42.7677L1.81766 43.9893C2.2217 44.0317 2.54837 44.2125 2.79769 44.5319C3.05845 44.842 3.16765 45.1991 3.1253 45.6032L2.97219 47.0639C2.92984 47.4679 2.74843 47.7998 2.42795 48.0595C2.11891 48.3099 1.76237 48.4139 1.35834 48.3716L-10.2966 47.1499L-10.7771 51.7342L2.72708 53.1496C3.12076 53.1909 3.4428 53.3661 3.69319 53.6751C3.94359 53.9841 4.04762 54.3407 4.00527 54.7447L3.8489 56.2365C3.80655 56.6406 3.62514 56.9724 3.30466 57.2321C2.98526 57.4814 2.62354 57.5849 2.21951 57.5425L-15.6203 55.6727C-16.0243 55.6303 -16.3567 55.4541 -16.6175 55.144C-16.8771 54.8235 -16.9847 54.4509 -16.9402 54.0261ZM28.8714 59.6605C28.8247 60.106 28.5372 60.301 28.0089 60.2457L24.2793 59.8547C23.8856 59.8135 23.4652 59.628 23.0179 59.2983C22.5821 58.9594 22.2611 58.5749 22.0548 58.1448L19.8463 53.7343C18.9366 51.9212 17.7099 50.9338 16.1663 50.772L12.3746 50.3746L11.6742 57.0567C11.6318 57.4608 11.4504 57.7926 11.1299 58.0523C10.8209 58.3027 10.4643 58.4067 10.0603 58.3644L7.13881 58.0582C6.73477 58.0158 6.40238 57.8396 6.14162 57.5294C5.88194 57.209 5.77328 56.8467 5.81563 56.4427L7.8435 37.0955C7.88585 36.6915 8.06209 36.3591 8.37221 36.0983C8.68233 35.8376 9.03941 35.7284 9.44345 35.7707L22.2638 37.1145C24.6363 37.3632 26.512 38.2039 27.8909 39.6367C29.2803 41.0706 29.8615 42.8702 29.6345 45.0354C29.3186 48.0501 27.1675 49.7361 23.1815 50.0934C23.7792 50.3864 24.3129 50.8404 24.7826 51.4552C25.2534 52.0596 25.7753 52.9261 26.3483 54.0544L28.7059 58.8419C28.8412 59.1494 28.8964 59.4222 28.8714 59.6605ZM12.8355 45.9768L19.4555 46.6707C20.5226 46.7825 21.4824 46.6684 22.335 46.3284C23.1979 45.9894 23.6783 45.3537 23.776 44.4213C23.8737 43.4889 23.5356 42.7675 22.7617 42.2569C21.9982 41.7475 21.0829 41.4368 20.0158 41.325L13.3958 40.6311L12.8355 45.9768ZM39.9681 55.7334C40.0322 55.1221 40.2591 54.706 40.6489 54.485C41.0397 54.2537 41.406 54.1559 41.7479 54.1918L43.5972 54.3856C44.5296 54.4833 45.186 55.0653 45.5665 56.1316C45.947 57.198 46.9868 57.8201 48.6858 57.9982L54.1133 58.6771C55.9367 58.8682 56.9108 58.3681 57.0357 57.1767C57.1301 56.2754 56.0908 55.449 53.9177 54.6975C52.9482 54.355 51.8745 54.0068 50.6966 53.6529C49.5198 53.2887 48.3542 52.868 47.1997 52.3909C46.0556 51.9149 45.0113 51.3865 44.0667 50.8057C43.1221 50.2249 42.3824 49.4875 41.8477 48.5935C41.3244 47.6903 41.1219 46.6741 41.2403 45.5449C41.4586 43.4625 42.3671 41.9395 43.9658 40.976C45.5656 40.002 48.1733 39.7045 51.789 40.0835L55.7263 40.5904C57.8501 40.813 59.7039 41.5625 61.2879 42.8387C62.8832 44.1057 63.5951 45.5576 63.4236 47.1944C63.3595 47.8057 63.1321 48.227 62.7412 48.4583C62.3504 48.6897 61.9892 48.788 61.6577 48.7532L59.8085 48.5594C58.8761 48.4617 58.2196 47.8797 57.8391 46.8133C57.4597 45.7367 56.4205 45.1093 54.7215 44.9312L50.0537 44.3477C48.2304 44.1566 47.2563 44.6567 47.1314 45.8481C47.063 46.5008 47.582 47.0946 48.6886 47.6295C49.8054 48.1655 51.1655 48.6799 52.7687 49.1726C54.3833 49.6561 55.9961 50.2074 57.607 50.8266C59.2179 51.4459 60.5446 52.3285 61.587 53.4747C62.6409 54.6116 63.088 55.9415 62.9284 57.4644C62.7101 59.5467 61.7959 61.0744 60.1857 62.0472C58.587 63.0108 55.985 63.3037 52.3797 62.9258L47.6809 62.339C45.5572 62.1164 43.6976 61.3716 42.1022 60.1047C40.5079 58.8273 39.7966 57.3702 39.9681 55.7334ZM64.6479 62.5778L66.6757 43.2306C66.7181 42.8266 66.899 42.4999 67.2184 42.2506C67.5377 42.0013 67.8995 41.8978 68.3035 41.9401L86.221 43.8182C86.625 43.8605 86.9517 44.0414 87.201 44.3608C87.4607 44.6813 87.5693 45.0435 87.527 45.4476L87.3739 46.9083C87.3315 47.3123 87.1501 47.6442 86.8296 47.9039C86.5206 48.1543 86.1641 48.2583 85.76 48.216L72.2248 46.7973L71.7508 51.3194L83.4057 52.541C83.8097 52.5833 84.1364 52.7642 84.3857 53.0836C84.6465 53.3937 84.7557 53.7508 84.7133 54.1548L84.5602 55.6156C84.5179 56.0196 84.3365 56.3515 84.016 56.6111C83.707 56.8615 83.3504 56.9656 82.9464 56.9232L71.2915 55.7016L70.811 60.2859L84.3151 61.7013C84.7088 61.7426 85.0308 61.9177 85.2812 62.2267C85.5316 62.5358 85.6357 62.8923 85.5933 63.2964L85.4369 64.7882C85.3946 65.1922 85.2132 65.5241 84.8927 65.7838C84.5733 66.0331 84.2116 66.1365 83.8076 66.0942L65.9678 64.2243C65.5637 64.182 65.2313 64.0057 64.9706 63.6956C64.7109 63.3751 64.6033 63.0025 64.6479 62.5778ZM110.383 68.1885C110.336 68.6443 110.042 68.844 109.504 68.7875L105.945 68.4145C105.541 68.3722 105.121 68.1867 104.684 67.8581C104.248 67.5192 103.922 67.1341 103.705 66.703L101.424 62.0807C100.883 60.9555 100.308 60.0941 99.7001 59.4962C99.0935 58.888 98.324 58.535 97.3916 58.4373L94.0506 58.0871L93.259 65.6395C93.2166 66.0435 93.0357 66.3702 92.7163 66.6195C92.4084 66.8595 92.0524 66.9584 91.6484 66.916L88.7269 66.6098C88.3228 66.5675 87.991 66.3861 87.7313 66.0656C87.4727 65.7347 87.3646 65.3673 87.4069 64.9633L89.4316 45.6472C89.4739 45.2432 89.6559 44.9061 89.9774 44.6361C90.299 44.3661 90.6618 44.2522 91.0658 44.2946L93.9873 44.6008C94.3914 44.6431 94.7175 44.8292 94.9657 45.1589C95.2243 45.4898 95.3324 45.8572 95.2901 46.2613L94.5099 53.7049L97.851 54.055C98.7626 54.1506 99.5864 53.9856 100.322 53.56C101.069 53.1354 101.811 52.4015 102.548 51.3581L105.407 47.3216C106.06 46.3846 106.858 45.9603 107.802 46.0488L111.392 46.425C111.889 46.4772 112.115 46.7208 112.069 47.1559C112.045 47.3942 111.927 47.6699 111.716 47.9829L107.703 53.7366C107.123 54.5765 106.497 55.2545 105.825 55.7706C105.163 56.2878 104.333 56.6145 103.334 56.7507C104.003 56.9674 104.657 57.4706 105.297 58.2604C105.947 59.0512 106.503 59.895 106.964 60.7917L110.201 67.3838C110.345 67.7027 110.406 67.9709 110.383 68.1885ZM109.911 67.3848L115.362 52.9997C116.841 49.0805 120.492 47.4208 126.316 48.0207L134.692 48.8986C135.075 48.9388 135.376 49.117 135.594 49.4331C135.823 49.7503 135.917 50.1006 135.877 50.4839L133.842 69.8932C133.8 70.2973 133.619 70.6239 133.3 70.8732C132.981 71.1122 132.62 71.2105 132.216 71.1681L129.295 70.8619C128.87 70.8174 128.532 70.6458 128.28 70.3471C128.04 70.0392 127.942 69.6728 127.987 69.2481L128.397 65.332L117.349 64.1739L115.897 67.9809C115.749 68.3948 115.479 68.7226 115.087 68.9643C114.696 69.1956 114.299 69.2901 113.895 69.2478L110.833 68.9269C110.429 68.8845 110.151 68.7402 109.999 68.4938C109.848 68.2371 109.781 68.0206 109.8 67.8445C109.829 67.6695 109.866 67.5163 109.911 67.3848ZM118.959 59.8967L128.858 60.9342L129.709 52.8224L125.28 52.3582C124.285 52.254 123.385 52.4477 122.579 52.9393C121.785 53.4216 121.209 54.1258 120.85 55.0517L118.959 59.8967ZM160.391 73.4457C160.344 73.8912 160.057 74.0863 159.528 74.0309L155.799 73.64C155.405 73.5987 154.985 73.4132 154.537 73.0836C154.102 72.7446 153.781 72.3601 153.574 71.93L151.366 67.5195C150.456 65.7065 149.229 64.719 147.686 64.5572L143.894 64.1598L143.194 70.842C143.151 71.246 142.97 71.5779 142.649 71.8375C142.34 72.0879 141.984 72.192 141.58 72.1496L138.658 71.8434C138.254 71.801 137.922 71.6248 137.661 71.3147C137.401 70.9942 137.293 70.6319 137.335 70.2279L139.363 50.8808C139.405 50.4767 139.582 50.1443 139.892 49.8836C140.202 49.6228 140.559 49.5136 140.963 49.556L153.783 50.8997C156.156 51.1484 158.031 51.9891 159.41 53.4219C160.8 54.8558 161.381 56.6554 161.154 58.8206C160.838 61.8353 158.687 63.5213 154.701 63.8786C155.299 64.1717 155.832 64.6256 156.302 65.2404C156.773 65.8449 157.295 66.7113 157.868 67.8397L160.225 72.6271C160.361 72.9346 160.416 73.2075 160.391 73.4457ZM144.355 59.762L150.975 60.4559C152.042 60.5678 153.002 60.4536 153.854 60.1136C154.717 59.7746 155.198 59.1389 155.296 58.2065C155.393 57.2742 155.055 56.5527 154.281 56.0421C153.518 55.5327 152.602 55.222 151.535 55.1102L144.915 54.4163L144.355 59.762ZM160.277 72.664L165.729 58.2789C167.208 54.3596 170.859 52.7 176.682 53.2999L185.058 54.1778C185.442 54.218 185.742 54.3961 185.961 54.7123C186.189 55.0295 186.283 55.3798 186.243 55.7631L184.209 75.1724C184.166 75.5764 183.986 75.9031 183.666 76.1524C183.348 76.3914 182.987 76.4897 182.583 76.4473L179.661 76.1411C179.236 76.0966 178.898 75.925 178.647 75.6263C178.407 75.3184 178.309 74.952 178.354 74.5272L178.764 70.6112L167.715 69.4531L166.264 73.26C166.115 73.6739 165.845 74.0017 165.453 74.2434C165.063 74.4748 164.665 74.5693 164.261 74.527L161.2 74.2061C160.796 74.1637 160.518 74.0194 160.365 73.773C160.214 73.5162 160.148 73.2998 160.166 73.1237C160.195 72.9487 160.232 72.7954 160.277 72.664ZM169.326 65.1759L179.225 66.2134L180.075 58.1016L175.646 57.6374C174.652 57.5332 173.752 57.7268 172.946 58.2184C172.152 58.7008 171.575 59.4049 171.216 60.3309L169.326 65.1759ZM187.702 75.5071L189.73 56.1599C189.772 55.7559 189.948 55.4235 190.258 55.1627C190.568 54.902 190.926 54.7928 191.33 54.8351L195.898 55.314C196.261 55.352 196.629 55.5372 197.003 55.8697C197.376 56.2021 197.671 56.5839 197.888 57.0151L205.761 72.4354L207.277 57.9678C207.32 57.5638 207.495 57.2365 207.804 56.9861C208.124 56.7368 208.486 56.6333 208.89 56.6757L211.562 56.9558C211.967 56.9982 212.294 57.1739 212.544 57.4829C212.805 57.793 212.913 58.1605 212.868 58.5852L210.841 77.9324C210.798 78.3364 210.617 78.6683 210.296 78.9279C209.987 79.1783 209.631 79.2824 209.227 79.24L204.068 78.6993C203.663 78.6569 203.264 78.4736 202.868 78.1494C202.474 77.8148 202.174 77.4324 201.967 77.0023L194.771 62.7684L193.374 76.1016C193.331 76.5056 193.15 76.8375 192.83 77.0972C192.521 77.3476 192.164 77.4516 191.76 77.4092L189.025 77.1226C188.621 77.0802 188.289 76.904 188.028 76.5939C187.768 76.2734 187.659 75.9111 187.702 75.5071ZM223.581 80.8703C220.142 80.5098 217.597 79.3057 215.947 77.2579C214.308 75.2113 213.688 72.2818 214.088 68.4693C214.489 64.6465 215.743 61.9187 217.852 60.2859C219.972 58.6438 222.954 58.0242 226.798 58.427L230.263 58.7903C232.553 59.0303 234.557 59.7954 236.275 61.0858C238.005 62.3668 238.785 63.8258 238.613 65.4627C238.549 66.0739 238.322 66.4952 237.931 66.7266C237.541 66.9476 237.175 67.0401 236.833 67.0043L234.984 66.8105C234.093 66.7171 233.437 66.1351 233.015 65.0644C232.593 63.9938 231.341 63.3493 229.258 63.131L226.492 62.8411C224.223 62.6033 222.634 62.929 221.724 63.8181C220.814 64.7072 220.222 66.4572 219.948 69.0679C219.674 71.6786 219.848 73.5244 220.467 74.6053C221.088 75.6759 222.331 76.3089 224.196 76.5043L227.382 76.8382C229.05 77.0131 230.274 76.822 231.055 76.2649C231.837 75.6975 232.301 74.8192 232.447 73.63L228.935 73.2619C228.531 73.2195 228.198 73.0433 227.938 72.7332C227.688 72.4138 227.585 72.0521 227.627 71.648L227.754 70.4359C227.797 70.0319 227.972 69.7047 228.281 69.4543C228.602 69.1946 228.964 69.0859 229.368 69.1283L237.169 69.946C237.573 69.9883 237.9 70.1692 238.149 70.4886C238.41 70.7987 238.519 71.1558 238.477 71.5598L238.296 73.2847C237.992 76.1855 236.888 78.3269 234.983 79.7088C233.08 81.0803 230.445 81.5897 227.078 81.2368L223.581 80.8703Z" fill="white"/>
<g clip-path="url(#clip0_84_368)">
<path d="M306.025 62.7688L301.973 62.3441L301.797 64.0241C301.775 64.2343 301.587 64.3872 301.376 64.3652L300.494 64.2727C300.284 64.2507 300.131 64.062 300.153 63.8519L300.329 62.1718L296.277 61.7471C295.973 61.7152 295.701 61.9358 295.669 62.2397L294.763 70.8868C294.731 71.1909 294.952 71.4629 295.256 71.4948L305.004 72.5165C305.307 72.5484 305.58 72.3281 305.611 72.0239L306.518 63.3767C306.55 63.0729 306.329 62.8006 306.025 62.7688Z" fill="white"/>
<path d="M297.26 91.9584C294.798 91.7004 293.005 89.488 293.263 87.0261C293.522 84.5642 295.734 82.7714 298.196 83.0294C300.658 83.2875 302.451 85.5001 302.193 87.962C301.934 90.4239 299.722 92.2165 297.26 91.9584ZM297.96 85.2793C296.739 85.1513 295.641 86.0408 295.513 87.2619C295.385 88.4828 296.275 89.5809 297.495 89.7089C298.717 89.8369 299.815 88.9471 299.943 87.7262C300.07 86.5051 299.181 85.4073 297.96 85.2793Z" fill="white"/>
<path d="M272.504 89.3637C270.042 89.1056 268.249 86.8932 268.507 84.4313C268.765 81.9693 270.978 80.1766 273.44 80.4346C275.901 80.6927 277.694 82.9052 277.436 85.3672C277.178 87.8291 274.965 89.6217 272.504 89.3637ZM273.204 82.6845C271.982 82.5565 270.885 83.446 270.757 84.6671C270.629 85.888 271.518 86.9861 272.739 87.1141C273.961 87.2421 275.058 86.3523 275.186 85.1314C275.314 83.9103 274.425 82.8125 273.204 82.6845Z" fill="white"/>
<path d="M300.775 78.9804L300.904 77.7569L304.016 78.0831C304.72 78.1569 305.35 77.6463 305.424 76.9422L305.519 76.0347C305.593 75.3309 305.082 74.7003 304.378 74.6265L288.781 72.9916C288.076 72.9178 287.446 73.4287 287.372 74.1325L287.275 75.0535C287.202 75.7575 287.713 76.3881 288.417 76.4619L290.141 76.6426L289.628 81.5419L280.987 80.6363C280.458 79.5828 279.717 78.6467 278.815 77.8889L283.498 65.9877L286.639 66.317C287.343 66.3908 287.974 65.8795 288.048 65.1756C288.121 64.4718 287.611 63.8412 286.906 63.7674C286.906 63.7674 283.602 63.421 282.442 63.2994C282.283 63.2828 281.999 63.3204 281.857 63.373C281.65 63.4504 281.463 63.5803 281.318 63.7553L270.852 76.3674C270.54 76.7365 270.289 77.2147 270.392 77.6687C270.552 78.3742 271.308 78.6998 272.133 78.5463C272.76 78.4298 273.272 78.4038 273.914 78.471C277.235 78.8191 279.654 81.8042 279.306 85.1253C279.232 85.8294 279.742 86.4601 280.446 86.5339L290.342 87.5711C291.046 87.6449 291.677 87.1338 291.75 86.4297C292.099 83.1086 295.083 80.6899 298.404 81.038C301.725 81.3861 304.144 84.3712 303.796 87.6922C303.722 88.3963 304.233 89.0271 304.937 89.1009C305.641 89.1747 306.272 88.6636 306.345 87.9595C306.764 83.9683 304.374 80.3182 300.775 78.9804Z" fill="white"/>
</g>
<path d="M338.537 91.2855L340.565 71.9383C340.607 71.5343 340.788 71.2076 341.107 70.9583C341.427 70.709 341.788 70.6055 342.192 70.6478L360.11 72.5259C360.514 72.5682 360.84 72.7491 361.09 73.0685C361.349 73.389 361.458 73.7512 361.416 74.1553L361.263 75.616C361.22 76.02 361.039 76.3519 360.718 76.6116C360.409 76.862 360.053 76.966 359.649 76.9237L346.114 75.505L345.54 80.975L356.558 82.1298C356.962 82.1722 357.289 82.353 357.538 82.6724C357.798 82.9929 357.907 83.35 357.866 83.7437L357.711 85.22C357.669 85.624 357.487 85.9559 357.167 86.2155C356.858 86.4659 356.501 86.57 356.097 86.5276L345.079 85.3728L344.395 91.8995C344.351 92.3243 344.168 92.6665 343.848 92.9262C343.539 93.1766 343.182 93.2806 342.778 93.2382L339.857 92.932C339.453 92.8897 339.12 92.7134 338.859 92.4033C338.6 92.0828 338.492 91.7102 338.537 91.2855ZM384.037 96.8873C383.991 97.3328 383.703 97.5278 383.175 97.4724L379.445 97.0815C379.052 97.0403 378.631 96.8548 378.184 96.5251C377.748 96.1862 377.427 95.8017 377.221 95.3716L375.012 90.9611C374.103 89.148 372.876 88.1606 371.332 87.9988L367.541 87.6014L366.84 94.2835C366.798 94.6876 366.616 95.0194 366.296 95.2791C365.987 95.5295 365.63 95.6335 365.226 95.5912L362.305 95.2849C361.901 95.2426 361.568 95.0664 361.308 94.7562C361.048 94.4358 360.939 94.0735 360.982 93.6695L363.01 74.3223C363.052 73.9183 363.228 73.5859 363.538 73.3251C363.848 73.0644 364.205 72.9552 364.609 72.9975L377.43 74.3413C379.802 74.5899 381.678 75.4307 383.057 76.8635C384.446 78.2974 385.028 80.0969 384.801 82.2622C384.485 85.2769 382.334 86.9629 378.348 87.3202C378.945 87.6132 379.479 88.0672 379.949 88.682C380.419 89.2864 380.941 90.1529 381.514 91.2812L383.872 96.0687C384.007 96.3761 384.062 96.649 384.037 96.8873ZM368.002 83.2036L374.622 83.8975C375.689 84.0093 376.648 83.8952 377.501 83.5551C378.364 83.2162 378.844 82.5805 378.942 81.6481C379.04 80.7157 378.702 79.9942 377.928 79.4837C377.164 78.9742 376.249 78.6636 375.182 78.5517L368.562 77.8579L368.002 83.2036ZM385.764 96.2356L387.792 76.8885C387.834 76.4844 388.015 76.1578 388.335 75.9085C388.654 75.6591 389.016 75.5557 389.42 75.598L407.337 77.476C407.741 77.5184 408.068 77.6992 408.317 78.0186C408.577 78.3391 408.686 78.7014 408.643 79.1054L408.49 80.5662C408.448 80.9702 408.266 81.3021 407.946 81.5617C407.637 81.8121 407.28 81.9162 406.876 81.8738L393.341 80.4551L392.867 84.9772L404.522 86.1988C404.926 86.2412 405.253 86.422 405.502 86.7414C405.763 87.0516 405.872 87.4086 405.83 87.8127L405.677 89.2734C405.634 89.6775 405.453 90.0093 405.132 90.269C404.823 90.5194 404.467 90.6234 404.063 90.5811L392.408 89.3595L391.927 93.9437L405.431 95.3592C405.825 95.4004 406.147 95.5756 406.398 95.8846C406.648 96.1936 406.752 96.5502 406.71 96.9542L406.553 98.446C406.511 98.8501 406.33 99.1819 406.009 99.4416C405.69 99.6909 405.328 99.7944 404.924 99.7521L387.084 97.8822C386.68 97.8398 386.348 97.6636 386.087 97.3535C385.827 97.033 385.72 96.6604 385.764 96.2356ZM408.523 98.6211L410.551 79.274C410.593 78.8699 410.774 78.5433 411.094 78.2939C411.413 78.0446 411.775 77.9412 412.179 77.9835L430.096 79.8615C430.5 79.9039 430.827 80.0847 431.076 80.4041C431.336 80.7246 431.445 81.0869 431.402 81.4909L431.249 82.9517C431.207 83.3557 431.025 83.6876 430.705 83.9472C430.396 84.1976 430.039 84.3017 429.635 84.2593L416.1 82.8406L415.626 87.3627L427.281 88.5843C427.685 88.6267 428.012 88.8075 428.261 89.1269C428.522 89.4371 428.631 89.7941 428.589 90.1982L428.436 91.6589C428.393 92.063 428.212 92.3948 427.891 92.6545C427.582 92.9049 427.226 93.0089 426.822 92.9666L415.167 91.745L414.686 96.3292L428.191 97.7447C428.584 97.7859 428.906 97.9611 429.157 98.2701C429.407 98.5791 429.511 98.9357 429.469 99.3397L429.312 100.832C429.27 101.236 429.089 101.567 428.768 101.827C428.449 102.076 428.087 102.18 427.683 102.138L409.843 100.268C409.439 100.225 409.107 100.049 408.846 99.739C408.586 99.4185 408.479 99.0459 408.523 98.6211ZM462.129 103.423C459.821 105.056 456.616 105.657 452.514 105.227C448.421 104.798 445.411 103.545 443.481 101.468C441.553 99.3809 440.8 96.3222 441.222 92.2922C441.645 88.2622 443.015 85.4313 445.333 83.7995C447.651 82.1676 450.857 81.5662 454.949 81.9951C459.051 82.4251 462.062 83.6781 463.981 85.754C465.91 87.8311 466.664 90.8846 466.242 94.9146C465.819 98.9446 464.448 101.781 462.129 103.423ZM459.395 88.5883C458.479 87.2354 456.85 86.4363 454.509 86.1909C452.178 85.9465 450.419 86.3906 449.232 87.523C448.055 88.6565 447.338 90.4561 447.079 92.9218C446.822 95.3771 447.151 97.2812 448.067 98.634C448.995 99.9776 450.624 100.772 452.955 101.016C455.296 101.261 457.055 100.822 458.23 99.6993C459.407 98.5658 460.124 96.7714 460.381 94.3161C460.64 91.8504 460.311 89.9411 459.395 88.5883ZM467.473 104.831L469.501 85.4842C469.544 85.0802 469.72 84.7478 470.03 84.4871C470.34 84.2263 470.697 84.1171 471.101 84.1594L475.67 84.6383C476.032 84.6763 476.401 84.8615 476.774 85.194C477.148 85.5264 477.443 85.9082 477.66 86.3394L485.533 101.76L487.049 87.2921C487.091 86.8881 487.267 86.5608 487.576 86.3104C487.895 86.0611 488.257 85.9576 488.661 86L491.334 86.2802C491.738 86.3225 492.065 86.4982 492.316 86.8072C492.576 87.1174 492.685 87.4848 492.64 87.9095L490.612 107.257C490.57 107.661 490.388 107.993 490.068 108.252C489.759 108.503 489.402 108.607 488.998 108.564L483.839 108.024C483.435 107.981 483.035 107.798 482.64 107.474C482.246 107.139 481.945 106.757 481.739 106.327L474.543 92.0927L473.145 105.426C473.103 105.83 472.922 106.162 472.601 106.421C472.292 106.672 471.936 106.776 471.531 106.734L468.796 106.447C468.392 106.405 468.06 106.228 467.799 105.918C467.54 105.598 467.431 105.235 467.473 104.831ZM503.353 110.195C499.913 109.834 497.369 108.63 495.719 106.582C494.08 104.536 493.46 101.606 493.859 97.7936C494.26 93.9708 495.515 91.243 497.624 89.6102C499.744 87.9681 502.726 87.3485 506.569 87.7514L510.035 88.1146C512.324 88.3546 514.328 89.1197 516.047 90.4101C517.777 91.6911 518.556 93.1501 518.385 94.787C518.321 95.3982 518.093 95.8195 517.702 96.0509C517.313 96.2719 516.947 96.3644 516.605 96.3286L514.756 96.1348C513.865 96.0414 513.208 95.4594 512.786 94.3887C512.364 93.3181 511.112 92.6736 509.03 92.4554L506.264 92.1654C503.995 91.9276 502.405 92.2533 501.495 93.1424C500.585 94.0315 499.993 95.7815 499.72 98.3922C499.446 101.003 499.619 102.849 500.239 103.93C500.86 105 502.103 105.633 503.968 105.829L507.153 106.163C508.821 106.337 510.046 106.146 510.827 105.589C511.609 105.022 512.073 104.144 512.218 102.954L508.706 102.586C508.302 102.544 507.97 102.368 507.709 102.057C507.46 101.738 507.356 101.376 507.399 100.972L507.526 99.7602C507.568 99.3562 507.744 99.029 508.053 98.7786C508.373 98.5189 508.736 98.4102 509.14 98.4526L516.941 99.2703C517.345 99.3126 517.671 99.4935 517.921 99.8129C518.181 100.123 518.291 100.48 518.248 100.884L518.067 102.609C517.763 105.51 516.659 107.651 514.755 109.033C512.851 110.405 510.216 110.914 506.849 110.561L503.353 110.195ZM542.498 113.481C542.45 113.936 542.157 114.136 541.618 114.08L538.06 113.707C537.656 113.664 537.235 113.479 536.798 113.15C536.362 112.811 536.036 112.426 535.82 111.995L533.539 107.373C532.997 106.248 532.422 105.386 531.815 104.788C531.208 104.18 530.439 103.827 529.506 103.729L526.165 103.379L525.373 110.932C525.331 111.336 525.15 111.662 524.831 111.912C524.523 112.152 524.167 112.251 523.763 112.208L520.841 111.902C520.437 111.86 520.105 111.678 519.846 111.358C519.587 111.027 519.479 110.659 519.521 110.255L521.546 90.9393C521.588 90.5353 521.77 90.1983 522.092 89.9282C522.414 89.6582 522.776 89.5444 523.18 89.5867L526.102 89.8929C526.506 89.9353 526.832 90.1213 527.08 90.4511C527.339 90.7819 527.447 91.1494 527.405 91.5534L526.624 98.997L529.965 99.3472C530.877 99.4427 531.701 99.2777 532.437 98.8521C533.183 98.4276 533.925 97.6937 534.663 96.6503L537.521 92.6138C538.174 91.6768 538.973 91.2525 539.917 91.3409L543.506 91.7172C544.004 91.7693 544.23 92.0129 544.184 92.4481C544.159 92.6863 544.041 92.962 543.83 93.2751L539.818 99.0288C539.238 99.8687 538.611 100.547 537.939 101.063C537.278 101.58 536.448 101.907 535.449 102.043C536.117 102.26 536.771 102.763 537.411 103.553C538.062 104.343 538.617 105.187 539.078 106.084L542.315 112.676C542.46 112.995 542.521 113.263 542.498 113.481ZM543.859 112.869L545.89 93.491C545.933 93.0869 546.114 92.7551 546.434 92.4954C546.755 92.2357 547.117 92.1271 547.521 92.1694L550.412 92.4724C550.836 92.5169 551.173 92.6989 551.423 93.0183C551.682 93.3387 551.791 93.701 551.749 94.105L549.721 113.452C549.679 113.856 549.492 114.188 549.161 114.446C548.842 114.695 548.48 114.799 548.076 114.757L545.185 114.454C544.781 114.411 544.449 114.24 544.187 113.94C543.926 113.63 543.817 113.273 543.859 112.869ZM576.282 117.037C576.235 117.483 575.948 117.678 575.419 117.623L571.69 117.232C571.296 117.19 570.876 117.005 570.428 116.675C569.993 116.336 569.671 115.952 569.465 115.522L567.257 111.111C566.347 109.298 565.12 108.311 563.577 108.149L559.785 107.751L559.085 114.434C559.042 114.838 558.861 115.17 558.54 115.429C558.231 115.68 557.875 115.784 557.471 115.741L554.549 115.435C554.145 115.393 553.813 115.216 553.552 114.906C553.292 114.586 553.184 114.224 553.226 113.82L555.254 94.4724C555.296 94.0684 555.472 93.736 555.783 93.4752C556.093 93.2145 556.45 93.1053 556.854 93.1476L569.674 94.4914C572.047 94.7401 573.922 95.5808 575.301 97.0136C576.691 98.4475 577.272 100.247 577.045 102.412C576.729 105.427 574.578 107.113 570.592 107.47C571.19 107.763 571.723 108.217 572.193 108.832C572.664 109.437 573.186 110.303 573.759 111.431L576.116 116.219C576.252 116.526 576.307 116.799 576.282 117.037ZM560.246 103.354L566.866 104.048C567.933 104.159 568.893 104.045 569.745 103.705C570.608 103.366 571.089 102.731 571.186 101.798C571.284 100.866 570.946 100.144 570.172 99.6338C569.409 99.1244 568.493 98.8137 567.426 98.7019L560.806 98.008L560.246 103.354Z" fill="white"/>
<g clip-path="url(#clip1_84_368)">
<path d="M620.881 99.2616L624.077 107.138L631.119 111.898L623.243 115.094L618.483 122.136L615.287 114.26L608.245 109.5L616.121 106.304L620.881 99.2616Z" fill="white"/>
</g>
<path d="M683.516 126.628C681.208 128.26 678.003 128.862 673.9 128.432C669.808 128.003 666.797 126.75 664.868 124.673C662.94 122.586 662.187 119.527 662.609 115.497C663.031 111.467 664.402 108.636 666.72 107.004C669.038 105.372 672.243 104.771 676.335 105.2C680.438 105.63 683.449 106.883 685.368 108.959C687.297 111.036 688.051 114.089 687.628 118.119C687.206 122.149 685.835 124.985 683.516 126.628ZM680.782 111.793C679.866 110.44 678.237 109.641 675.896 109.396C673.565 109.151 671.806 109.595 670.619 110.728C669.442 111.861 668.724 113.661 668.466 116.126C668.209 118.582 668.538 120.486 669.454 121.839C670.381 123.182 672.011 123.976 674.342 124.221C676.683 124.466 678.441 124.027 679.617 122.904C680.794 121.77 681.511 119.976 681.768 117.521C682.026 115.055 681.698 113.146 680.782 111.793ZM711.916 131.254C711.869 131.699 711.581 131.894 711.053 131.839L707.324 131.448C706.93 131.407 706.509 131.221 706.062 130.892C705.626 130.553 705.305 130.168 705.099 129.738L702.891 125.328C701.981 123.515 700.754 122.527 699.211 122.365L695.419 121.968L694.718 128.65C694.676 129.054 694.495 129.386 694.174 129.646C693.865 129.896 693.509 130 693.105 129.958L690.183 129.652C689.779 129.609 689.447 129.433 689.186 129.123C688.926 128.802 688.818 128.44 688.86 128.036L690.888 108.689C690.93 108.285 691.106 107.952 691.416 107.692C691.727 107.431 692.084 107.322 692.488 107.364L705.308 108.708C707.681 108.957 709.556 109.797 710.935 111.23C712.325 112.664 712.906 114.464 712.679 116.629C712.363 119.643 710.212 121.329 706.226 121.687C706.823 121.98 707.357 122.434 707.827 123.049C708.298 123.653 708.82 124.519 709.393 125.648L711.75 130.435C711.885 130.743 711.941 131.016 711.916 131.254ZM695.88 117.57L702.5 118.264C703.567 118.376 704.527 118.262 705.379 117.922C706.242 117.583 706.723 116.947 706.82 116.015C706.918 115.082 706.58 114.361 705.806 113.85C705.042 113.341 704.127 113.03 703.06 112.918L696.44 112.224L695.88 117.57ZM713.636 130.664L715.664 111.317C715.708 110.892 715.891 110.55 716.211 110.291C716.532 110.031 716.894 109.922 717.298 109.965L725.985 110.875C730.481 111.346 733.655 112.59 735.507 114.607C737.37 116.614 738.101 119.539 737.698 123.383C737.296 127.216 735.976 129.921 733.737 131.499C731.508 133.077 728.145 133.631 723.649 133.159L714.962 132.249C714.558 132.206 714.225 132.035 713.964 131.736C713.703 131.425 713.594 131.068 713.636 130.664ZM719.806 128.31L723.939 128.744C726.726 129.036 728.675 128.727 729.786 127.817C730.898 126.907 731.582 125.224 731.839 122.769C732.098 120.303 731.778 118.51 730.879 117.39C729.982 116.259 728.14 115.547 725.353 115.255L721.219 114.822L719.806 128.31ZM738.919 133.252L740.947 113.904C740.989 113.5 741.17 113.174 741.489 112.924C741.809 112.675 742.171 112.572 742.575 112.614L760.492 114.492C760.896 114.534 761.223 114.715 761.472 115.035C761.732 115.355 761.84 115.717 761.798 116.121L761.645 117.582C761.603 117.986 761.421 118.318 761.101 118.578C760.792 118.828 760.435 118.932 760.031 118.89L746.496 117.471L746.022 121.993L757.677 123.215C758.081 123.257 758.408 123.438 758.657 123.757C758.918 124.068 759.027 124.425 758.984 124.829L758.831 126.289C758.789 126.693 758.608 127.025 758.287 127.285C757.978 127.535 757.622 127.639 757.217 127.597L745.563 126.375L745.082 130.96L758.586 132.375C758.98 132.416 759.302 132.592 759.552 132.901C759.803 133.21 759.907 133.566 759.864 133.97L759.708 135.462C759.666 135.866 759.484 136.198 759.164 136.458C758.844 136.707 758.483 136.81 758.079 136.768L740.239 134.898C739.835 134.856 739.502 134.68 739.242 134.369C738.982 134.049 738.874 133.676 738.919 133.252ZM784.731 138.886C784.684 139.331 784.396 139.526 783.868 139.471L780.138 139.08C779.745 139.039 779.324 138.853 778.877 138.524C778.441 138.185 778.12 137.8 777.914 137.37L775.705 132.96C774.796 131.147 773.569 130.159 772.025 129.997L768.234 129.6L767.533 136.282C767.491 136.686 767.31 137.018 766.989 137.278C766.68 137.528 766.323 137.632 765.919 137.59L762.998 137.284C762.594 137.241 762.262 137.065 762.001 136.755C761.741 136.434 761.632 136.072 761.675 135.668L763.703 116.321C763.745 115.917 763.921 115.585 764.231 115.324C764.541 115.063 764.899 114.954 765.303 114.996L778.123 116.34C780.495 116.589 782.371 117.429 783.75 118.862C785.139 120.296 785.721 122.096 785.494 124.261C785.178 127.276 783.027 128.962 779.041 129.319C779.638 129.612 780.172 130.066 780.642 130.681C781.113 131.285 781.634 132.152 782.207 133.28L784.565 138.067C784.7 138.375 784.756 138.648 784.731 138.886ZM768.695 125.202L775.315 125.896C776.382 126.008 777.342 125.894 778.194 125.554C779.057 125.215 779.537 124.579 779.635 123.647C779.733 122.714 779.395 121.993 778.621 121.482C777.857 120.973 776.942 120.662 775.875 120.55L769.255 119.857L768.695 125.202ZM795.827 134.959C795.891 134.348 796.118 133.931 796.508 133.711C796.899 133.479 797.265 133.381 797.607 133.417L799.456 133.611C800.389 133.709 801.045 134.291 801.426 135.357C801.806 136.423 802.846 137.046 804.545 137.224L809.972 137.903C811.796 138.094 812.77 137.594 812.895 136.402C812.989 135.501 811.95 134.674 809.777 133.923C808.807 133.58 807.734 133.232 806.556 132.878C805.379 132.514 804.213 132.093 803.059 131.616C801.915 131.14 800.87 130.612 799.926 130.031C798.981 129.45 798.242 128.713 797.707 127.819C797.184 126.916 796.981 125.9 797.099 124.77C797.318 122.688 798.226 121.165 799.825 120.201C801.425 119.227 804.032 118.93 807.648 119.309L811.585 119.816C813.709 120.039 815.563 120.788 817.147 122.064C818.742 123.331 819.454 124.783 819.283 126.42C819.219 127.031 818.991 127.452 818.6 127.684C818.21 127.915 817.848 128.013 817.517 127.979L815.668 127.785C814.735 127.687 814.079 127.105 813.698 126.039C813.319 124.962 812.28 124.335 810.581 124.157L805.913 123.573C804.09 123.382 803.115 123.882 802.991 125.074C802.922 125.726 803.441 126.32 804.548 126.855C805.665 127.391 807.025 127.905 808.628 128.398C810.242 128.882 811.855 129.433 813.466 130.052C815.077 130.671 816.404 131.554 817.446 132.7C818.5 133.837 818.947 135.167 818.788 136.69C818.569 138.772 817.655 140.3 816.045 141.273C814.446 142.236 811.844 142.529 808.239 142.151L803.54 141.564C801.416 141.342 799.557 140.597 797.961 139.33C796.367 138.053 795.656 136.596 795.827 134.959ZM820.507 141.803L822.535 122.456C822.577 122.052 822.758 121.725 823.077 121.476C823.397 121.227 823.759 121.123 824.163 121.166L842.08 123.044C842.484 123.086 842.811 123.267 843.06 123.586C843.32 123.907 843.428 124.269 843.386 124.673L843.233 126.134C843.191 126.538 843.009 126.87 842.689 127.129C842.38 127.38 842.023 127.484 841.619 127.441L828.084 126.023L827.61 130.545L839.265 131.766C839.669 131.809 839.996 131.99 840.245 132.309C840.506 132.619 840.615 132.976 840.572 133.38L840.419 134.841C840.377 135.245 840.196 135.577 839.875 135.837C839.566 136.087 839.21 136.191 838.806 136.149L827.151 134.927L826.67 139.511L840.174 140.927C840.568 140.968 840.89 141.143 841.14 141.452C841.391 141.761 841.495 142.118 841.452 142.522L841.296 144.014C841.254 144.418 841.072 144.75 840.752 145.009C840.432 145.259 840.071 145.362 839.667 145.32L821.827 143.45C821.423 143.407 821.09 143.231 820.83 142.921C820.57 142.601 820.462 142.228 820.507 141.803ZM866.243 147.414C866.195 147.87 865.902 148.069 865.363 148.013L861.804 147.64C861.4 147.598 860.98 147.412 860.543 147.084C860.107 146.745 859.781 146.36 859.564 145.928L857.284 141.306C856.742 140.181 856.167 139.32 855.559 138.722C854.953 138.113 854.183 137.76 853.251 137.663L849.91 137.313L849.118 144.865C849.076 145.269 848.895 145.596 848.575 145.845C848.268 146.085 847.912 146.184 847.507 146.141L844.586 145.835C844.182 145.793 843.85 145.612 843.59 145.291C843.332 144.96 843.224 144.593 843.266 144.189L845.291 124.873C845.333 124.469 845.515 124.132 845.837 123.862C846.158 123.592 846.521 123.478 846.925 123.52L849.846 123.826C850.251 123.869 850.577 124.055 850.825 124.384C851.083 124.715 851.192 125.083 851.149 125.487L850.369 132.93L853.71 133.281C854.622 133.376 855.446 133.211 856.181 132.785C856.928 132.361 857.67 131.627 858.407 130.584L861.266 126.547C861.919 125.61 862.718 125.186 863.661 125.274L867.251 125.651C867.748 125.703 867.974 125.946 867.929 126.381C867.904 126.62 867.786 126.895 867.575 127.208L863.563 132.962C862.982 133.802 862.356 134.48 861.684 134.996C861.022 135.513 860.192 135.84 859.193 135.976C859.862 136.193 860.516 136.696 861.156 137.486C861.806 138.277 862.362 139.12 862.823 140.017L866.06 146.609C866.204 146.928 866.265 147.196 866.243 147.414ZM865.77 146.61L871.221 132.225C872.7 128.306 876.351 126.646 882.175 127.246L890.551 128.124C890.934 128.164 891.235 128.342 891.453 128.659C891.682 128.976 891.776 129.326 891.736 129.709L889.701 149.119C889.659 149.523 889.478 149.849 889.159 150.099C888.84 150.338 888.479 150.436 888.075 150.394L885.154 150.087C884.729 150.043 884.391 149.871 884.139 149.573C883.899 149.265 883.802 148.898 883.846 148.474L884.257 144.557L873.208 143.399L871.756 147.206C871.608 147.62 871.338 147.948 870.946 148.19C870.555 148.421 870.158 148.516 869.754 148.473L866.692 148.152C866.288 148.11 866.01 147.966 865.858 147.719C865.707 147.463 865.641 147.246 865.659 147.07C865.688 146.895 865.725 146.742 865.77 146.61ZM874.819 139.122L884.718 140.16L885.568 132.048L881.139 131.584C880.144 131.479 879.244 131.673 878.439 132.165C877.644 132.647 877.068 133.351 876.709 134.277L874.819 139.122ZM916.25 152.671C916.203 153.117 915.916 153.312 915.387 153.256L911.658 152.865C911.264 152.824 910.844 152.639 910.397 152.309C909.961 151.97 909.64 151.586 909.433 151.155L907.225 146.745C906.315 144.932 905.089 143.945 903.545 143.783L899.753 143.385L899.053 150.067C899.01 150.471 898.829 150.803 898.509 151.063C898.2 151.313 897.843 151.417 897.439 151.375L894.517 151.069C894.113 151.027 893.781 150.85 893.52 150.54C893.261 150.22 893.152 149.857 893.194 149.453L895.222 130.106C895.264 129.702 895.441 129.37 895.751 129.109C896.061 128.848 896.418 128.739 896.822 128.781L909.642 130.125C912.015 130.374 913.891 131.215 915.27 132.647C916.659 134.081 917.24 135.881 917.013 138.046C916.697 141.061 914.546 142.747 910.56 143.104C911.158 143.397 911.692 143.851 912.161 144.466C912.632 145.07 913.154 145.937 913.727 147.065L916.085 151.853C916.22 152.16 916.275 152.433 916.25 152.671ZM900.214 138.987L906.834 139.681C907.901 139.793 908.861 139.679 909.714 139.339C910.577 139 911.057 138.364 911.155 137.432C911.252 136.5 910.914 135.778 910.14 135.268C909.377 134.758 908.462 134.448 907.394 134.336L900.774 133.642L900.214 138.987ZM916.137 151.889L921.588 137.504C923.067 133.585 926.718 131.925 932.541 132.525L940.917 133.403C941.301 133.443 941.601 133.622 941.82 133.938C942.048 134.255 942.143 134.605 942.102 134.989L940.068 154.398C940.026 154.802 939.845 155.129 939.525 155.378C939.207 155.617 938.846 155.715 938.442 155.673L935.52 155.367C935.096 155.322 934.757 155.15 934.506 154.852C934.266 154.544 934.168 154.177 934.213 153.753L934.623 149.837L923.574 148.679L922.123 152.485C921.975 152.899 921.705 153.227 921.313 153.469C920.922 153.7 920.524 153.795 920.12 153.752L917.059 153.432C916.655 153.389 916.377 153.245 916.225 152.998C916.073 152.742 916.007 152.525 916.026 152.349C916.054 152.174 916.091 152.021 916.137 151.889ZM925.185 144.401L935.084 145.439L935.934 137.327L931.505 136.863C930.511 136.759 929.611 136.952 928.805 137.444C928.011 137.926 927.434 138.63 927.076 139.556L925.185 144.401ZM943.561 154.733L945.589 135.385C945.631 134.981 945.807 134.649 946.117 134.388C946.428 134.127 946.785 134.018 947.189 134.061L951.757 134.539C952.12 134.577 952.488 134.763 952.862 135.095C953.235 135.428 953.531 135.809 953.747 136.241L961.62 151.661L963.137 137.193C963.179 136.789 963.355 136.462 963.664 136.212C963.983 135.962 964.345 135.859 964.749 135.901L967.422 136.181C967.826 136.224 968.153 136.399 968.403 136.708C968.664 137.019 968.772 137.386 968.728 137.811L966.7 157.158C966.657 157.562 966.476 157.894 966.156 158.153C965.846 158.404 965.49 158.508 965.086 158.465L959.927 157.925C959.523 157.882 959.123 157.699 958.727 157.375C958.333 157.04 958.033 156.658 957.826 156.228L950.63 141.994L949.233 155.327C949.191 155.731 949.009 156.063 948.689 156.323C948.38 156.573 948.023 156.677 947.619 156.635L944.884 156.348C944.48 156.306 944.148 156.129 943.887 155.819C943.627 155.499 943.519 155.137 943.561 154.733ZM979.44 160.096C976.001 159.735 973.456 158.531 971.807 156.483C970.167 154.437 969.547 151.507 969.947 147.695C970.348 143.872 971.602 141.144 973.711 139.511C975.831 137.869 978.813 137.25 982.657 137.653L986.122 138.016C988.412 138.256 990.416 139.021 992.134 140.311C993.865 141.592 994.644 143.051 994.472 144.688C994.408 145.299 994.181 145.721 993.79 145.952C993.4 146.173 993.034 146.266 992.692 146.23L990.843 146.036C989.952 145.943 989.296 145.361 988.874 144.29C988.452 143.219 987.2 142.575 985.117 142.357L982.351 142.067C980.082 141.829 978.493 142.154 977.583 143.044C976.673 143.933 976.081 145.683 975.807 148.293C975.534 150.904 975.707 152.75 976.327 153.831C976.947 154.901 978.19 155.534 980.055 155.73L983.241 156.064C984.909 156.239 986.133 156.047 986.914 155.49C987.696 154.923 988.16 154.045 988.306 152.855L984.794 152.487C984.39 152.445 984.058 152.269 983.797 151.959C983.547 151.639 983.444 151.278 983.486 150.874L983.613 149.661C983.656 149.257 983.831 148.93 984.14 148.68C984.461 148.42 984.823 148.311 985.227 148.354L993.028 149.171C993.432 149.214 993.759 149.395 994.008 149.714C994.269 150.024 994.378 150.381 994.336 150.785L994.155 152.51C993.851 155.411 992.747 157.552 990.842 158.934C988.939 160.306 986.304 160.815 982.937 160.462L979.44 160.096Z" fill="white"/>
<g clip-path="url(#clip2_84_368)">
<path d="M1061.88 141.994L1057.83 141.57L1057.66 143.25C1057.63 143.46 1057.45 143.613 1057.24 143.591L1056.35 143.498C1056.14 143.476 1055.99 143.287 1056.01 143.077L1056.19 141.397L1052.14 140.973C1051.83 140.941 1051.56 141.161 1051.53 141.465L1050.62 150.112C1050.59 150.416 1050.81 150.688 1051.11 150.72L1060.86 151.742C1061.17 151.774 1061.44 151.554 1061.47 151.249L1062.38 142.602C1062.41 142.298 1062.19 142.026 1061.88 141.994Z" fill="white"/>
<path d="M1053.12 171.184C1050.66 170.926 1048.86 168.714 1049.12 166.252C1049.38 163.79 1051.59 161.997 1054.05 162.255C1056.52 162.513 1058.31 164.726 1058.05 167.187C1057.79 169.649 1055.58 171.442 1053.12 171.184ZM1053.82 164.505C1052.6 164.377 1051.5 165.266 1051.37 166.487C1051.24 167.708 1052.13 168.806 1053.35 168.934C1054.58 169.062 1055.67 168.173 1055.8 166.952C1055.93 165.731 1055.04 164.633 1053.82 164.505Z" fill="white"/>
<path d="M1028.36 168.589C1025.9 168.331 1024.11 166.119 1024.37 163.657C1024.62 161.195 1026.84 159.402 1029.3 159.66C1031.76 159.918 1033.55 162.131 1033.3 164.593C1033.04 167.055 1030.82 168.847 1028.36 168.589ZM1029.06 161.91C1027.84 161.782 1026.74 162.671 1026.62 163.893C1026.49 165.113 1027.38 166.212 1028.6 166.34C1029.82 166.468 1030.92 165.578 1031.05 164.357C1031.17 163.136 1030.28 162.038 1029.06 161.91Z" fill="white"/>
<path d="M1056.63 158.206L1056.76 156.982L1059.87 157.309C1060.58 157.382 1061.21 156.872 1061.28 156.168L1061.38 155.26C1061.45 154.556 1060.94 153.926 1060.24 153.852L1044.64 152.217C1043.94 152.143 1043.3 152.654 1043.23 153.358L1043.13 154.279C1043.06 154.983 1043.57 155.614 1044.28 155.687L1046 155.868L1045.49 160.767L1036.85 159.862C1036.32 158.808 1035.58 157.872 1034.67 157.114L1039.36 145.213L1042.5 145.542C1043.2 145.616 1043.83 145.105 1043.91 144.401C1043.98 143.697 1043.47 143.067 1042.77 142.993C1042.77 142.993 1039.46 142.646 1038.3 142.525C1038.14 142.508 1037.86 142.546 1037.72 142.598C1037.51 142.676 1037.32 142.806 1037.18 142.981L1026.71 155.593C1026.4 155.962 1026.15 156.44 1026.25 156.894C1026.41 157.6 1027.17 157.925 1027.99 157.772C1028.62 157.655 1029.13 157.629 1029.77 157.697C1033.09 158.045 1035.51 161.03 1035.16 164.351C1035.09 165.055 1035.6 165.686 1036.31 165.759L1046.2 166.797C1046.91 166.87 1047.54 166.359 1047.61 165.655C1047.96 162.334 1050.94 159.915 1054.26 160.263C1057.58 160.612 1060 163.597 1059.66 166.918C1059.58 167.622 1060.09 168.253 1060.8 168.326C1061.5 168.4 1062.13 167.889 1062.2 167.185C1062.62 163.194 1060.23 159.544 1056.63 158.206Z" fill="white"/>
</g>
<path d="M1094.4 170.511L1096.42 151.164C1096.47 150.76 1096.65 150.433 1096.97 150.184C1097.29 149.934 1097.65 149.831 1098.05 149.873L1115.97 151.751C1116.37 151.794 1116.7 151.975 1116.95 152.294C1117.21 152.614 1117.32 152.977 1117.28 153.381L1117.12 154.841C1117.08 155.246 1116.9 155.577 1116.58 155.837C1116.27 156.087 1115.91 156.191 1115.51 156.149L1101.97 154.73L1101.4 160.2L1112.42 161.355C1112.82 161.398 1113.15 161.579 1113.4 161.898C1113.66 162.218 1113.77 162.575 1113.73 162.969L1113.57 164.445C1113.53 164.849 1113.35 165.181 1113.03 165.441C1112.72 165.691 1112.36 165.795 1111.96 165.753L1100.94 164.598L1100.25 171.125C1100.21 171.55 1100.03 171.892 1099.71 172.152C1099.4 172.402 1099.04 172.506 1098.64 172.464L1095.72 172.157C1095.31 172.115 1094.98 171.939 1094.72 171.629C1094.46 171.308 1094.35 170.936 1094.4 170.511ZM1139.9 176.113C1139.85 176.558 1139.56 176.753 1139.03 176.698L1135.3 176.307C1134.91 176.266 1134.49 176.08 1134.04 175.751C1133.61 175.412 1133.29 175.027 1133.08 174.597L1130.87 170.187C1129.96 168.373 1128.74 167.386 1127.19 167.224L1123.4 166.827L1122.7 173.509C1122.66 173.913 1122.48 174.245 1122.16 174.505C1121.85 174.755 1121.49 174.859 1121.09 174.817L1118.16 174.51C1117.76 174.468 1117.43 174.292 1117.17 173.982C1116.91 173.661 1116.8 173.299 1116.84 172.895L1118.87 153.548C1118.91 153.144 1119.09 152.811 1119.4 152.551C1119.71 152.29 1120.06 152.181 1120.47 152.223L1133.29 153.567C1135.66 153.815 1137.54 154.656 1138.92 156.089C1140.31 157.523 1140.89 159.322 1140.66 161.488C1140.34 164.502 1138.19 166.188 1134.21 166.546C1134.8 166.839 1135.34 167.293 1135.81 167.907C1136.28 168.512 1136.8 169.378 1137.37 170.507L1139.73 175.294C1139.87 175.602 1139.92 175.874 1139.9 176.113ZM1123.86 162.429L1130.48 163.123C1131.55 163.235 1132.51 163.121 1133.36 162.781C1134.22 162.442 1134.7 161.806 1134.8 160.874C1134.9 159.941 1134.56 159.22 1133.79 158.709C1133.02 158.2 1132.11 157.889 1131.04 157.777L1124.42 157.083L1123.86 162.429ZM1141.62 175.461L1143.65 156.114C1143.69 155.71 1143.87 155.383 1144.19 155.134C1144.51 154.885 1144.88 154.781 1145.28 154.823L1163.2 156.701C1163.6 156.744 1163.93 156.925 1164.18 157.244C1164.44 157.565 1164.55 157.927 1164.5 158.331L1164.35 159.792C1164.31 160.196 1164.13 160.528 1163.81 160.787C1163.5 161.038 1163.14 161.142 1162.74 161.099L1149.2 159.681L1148.73 164.203L1160.38 165.424C1160.79 165.467 1161.11 165.648 1161.36 165.967C1161.62 166.277 1161.73 166.634 1161.69 167.038L1161.54 168.499C1161.49 168.903 1161.31 169.235 1160.99 169.494C1160.68 169.745 1160.33 169.849 1159.92 169.807L1148.27 168.585L1147.79 173.169L1161.29 174.585C1161.68 174.626 1162.01 174.801 1162.26 175.11C1162.51 175.419 1162.61 175.776 1162.57 176.18L1162.41 177.672C1162.37 178.076 1162.19 178.407 1161.87 178.667C1161.55 178.916 1161.19 179.02 1160.78 178.978L1142.94 177.108C1142.54 177.065 1142.21 176.889 1141.95 176.579C1141.69 176.258 1141.58 175.886 1141.62 175.461ZM1164.38 177.847L1166.41 158.499C1166.45 158.095 1166.63 157.769 1166.95 157.519C1167.27 157.27 1167.63 157.167 1168.04 157.209L1185.96 159.087C1186.36 159.129 1186.69 159.31 1186.94 159.63C1187.2 159.95 1187.3 160.312 1187.26 160.716L1187.11 162.177C1187.07 162.581 1186.88 162.913 1186.56 163.173C1186.26 163.423 1185.9 163.527 1185.49 163.485L1171.96 162.066L1171.49 166.588L1183.14 167.81C1183.54 167.852 1183.87 168.033 1184.12 168.352C1184.38 168.663 1184.49 169.02 1184.45 169.424L1184.3 170.884C1184.25 171.288 1184.07 171.62 1183.75 171.88C1183.44 172.13 1183.09 172.234 1182.68 172.192L1171.03 170.97L1170.55 175.555L1184.05 176.97C1184.44 177.011 1184.77 177.187 1185.02 177.496C1185.27 177.805 1185.37 178.161 1185.33 178.565L1185.17 180.057C1185.13 180.461 1184.95 180.793 1184.63 181.053C1184.31 181.302 1183.95 181.405 1183.54 181.363L1165.7 179.493C1165.3 179.451 1164.97 179.275 1164.71 178.964C1164.45 178.644 1164.34 178.271 1164.38 177.847ZM1217.99 182.648C1215.68 184.281 1212.48 184.883 1208.37 184.453C1204.28 184.024 1201.27 182.771 1199.34 180.694C1197.41 178.606 1196.66 175.548 1197.08 171.518C1197.5 167.488 1198.87 164.657 1201.19 163.025C1203.51 161.393 1206.72 160.792 1210.81 161.221C1214.91 161.651 1217.92 162.904 1219.84 164.979C1221.77 167.057 1222.52 170.11 1222.1 174.14C1221.68 178.17 1220.31 181.006 1217.99 182.648ZM1215.25 167.814C1214.34 166.461 1212.71 165.662 1210.37 165.416C1208.04 165.172 1206.28 165.616 1205.09 166.748C1203.91 167.882 1203.2 169.682 1202.94 172.147C1202.68 174.603 1203.01 176.507 1203.93 177.86C1204.85 179.203 1206.48 179.997 1208.81 180.241C1211.16 180.487 1212.91 180.048 1214.09 178.925C1215.27 177.791 1215.98 175.997 1216.24 173.542C1216.5 171.076 1216.17 169.167 1215.25 167.814ZM1223.33 184.057L1225.36 164.71C1225.4 164.306 1225.58 163.973 1225.89 163.713C1226.2 163.452 1226.56 163.343 1226.96 163.385L1231.53 163.864C1231.89 163.902 1232.26 164.087 1232.63 164.419C1233.01 164.752 1233.3 165.134 1233.52 165.565L1241.39 180.985L1242.91 166.518C1242.95 166.114 1243.13 165.786 1243.44 165.536C1243.75 165.287 1244.12 165.183 1244.52 165.225L1247.19 165.506C1247.6 165.548 1247.92 165.724 1248.18 166.033C1248.44 166.343 1248.54 166.71 1248.5 167.135L1246.47 186.482C1246.43 186.886 1246.25 187.218 1245.93 187.478C1245.62 187.728 1245.26 187.832 1244.86 187.79L1239.7 187.249C1239.29 187.207 1238.89 187.023 1238.5 186.699C1238.1 186.365 1237.8 185.982 1237.6 185.552L1230.4 171.318L1229 184.651C1228.96 185.055 1228.78 185.387 1228.46 185.647C1228.15 185.897 1227.79 186.001 1227.39 185.959L1224.66 185.672C1224.25 185.63 1223.92 185.454 1223.66 185.144C1223.4 184.823 1223.29 184.461 1223.33 184.057ZM1259.21 189.42C1255.77 189.06 1253.23 187.855 1251.58 185.808C1249.94 183.761 1249.32 180.832 1249.72 177.019C1250.12 173.196 1251.37 170.468 1253.48 168.836C1255.6 167.194 1258.59 166.574 1262.43 166.977L1265.89 167.34C1268.18 167.58 1270.19 168.345 1271.91 169.636C1273.64 170.917 1274.42 172.376 1274.24 174.012C1274.18 174.624 1273.95 175.045 1273.56 175.276C1273.17 175.497 1272.81 175.59 1272.46 175.554L1270.61 175.36C1269.72 175.267 1269.07 174.685 1268.65 173.614C1268.22 172.544 1266.97 171.899 1264.89 171.681L1262.12 171.391C1259.85 171.153 1258.26 171.479 1257.35 172.368C1256.44 173.257 1255.85 175.007 1255.58 177.618C1255.31 180.228 1255.48 182.074 1256.1 183.155C1256.72 184.226 1257.96 184.859 1259.83 185.054L1263.01 185.388C1264.68 185.563 1265.91 185.372 1266.69 184.815C1267.47 184.247 1267.93 183.369 1268.08 182.18L1264.57 181.812C1264.16 181.769 1263.83 181.593 1263.57 181.283C1263.32 180.964 1263.22 180.602 1263.26 180.198L1263.39 178.986C1263.43 178.582 1263.6 178.254 1263.91 178.004C1264.23 177.744 1264.59 177.636 1265 177.678L1272.8 178.496C1273.2 178.538 1273.53 178.719 1273.78 179.038C1274.04 179.348 1274.15 179.706 1274.11 180.11L1273.93 181.835C1273.62 184.735 1272.52 186.877 1270.61 188.259C1268.71 189.63 1266.08 190.139 1262.71 189.787L1259.21 189.42ZM1298.36 192.706C1298.31 193.162 1298.02 193.362 1297.48 193.305L1293.92 192.932C1293.51 192.89 1293.09 192.704 1292.66 192.376C1292.22 192.037 1291.9 191.652 1291.68 191.221L1289.4 186.598C1288.86 185.473 1288.28 184.612 1287.67 184.014C1287.07 183.406 1286.3 183.053 1285.37 182.955L1282.02 182.605L1281.23 190.157C1281.19 190.561 1281.01 190.888 1280.69 191.137C1280.38 191.377 1280.03 191.476 1279.62 191.434L1276.7 191.127C1276.3 191.085 1275.96 190.904 1275.71 190.583C1275.45 190.252 1275.34 189.885 1275.38 189.481L1277.41 170.165C1277.45 169.761 1277.63 169.424 1277.95 169.154C1278.27 168.884 1278.64 168.77 1279.04 168.812L1281.96 169.118C1282.37 169.161 1282.69 169.347 1282.94 169.677C1283.2 170.007 1283.31 170.375 1283.26 170.779L1282.48 178.222L1285.82 178.573C1286.74 178.668 1287.56 178.503 1288.3 178.078C1289.04 177.653 1289.78 176.919 1290.52 175.876L1293.38 171.839C1294.03 170.902 1294.83 170.478 1295.78 170.566L1299.37 170.943C1299.86 170.995 1300.09 171.238 1300.04 171.674C1300.02 171.912 1299.9 172.187 1299.69 172.501L1295.68 178.254C1295.1 179.094 1294.47 179.772 1293.8 180.288C1293.14 180.805 1292.31 181.132 1291.31 181.268C1291.98 181.485 1292.63 181.988 1293.27 182.778C1293.92 183.569 1294.48 184.413 1294.94 185.309L1298.17 191.901C1298.32 192.22 1298.38 192.489 1298.36 192.706ZM1299.72 192.095L1301.75 172.716C1301.79 172.312 1301.97 171.981 1302.29 171.721C1302.61 171.461 1302.98 171.353 1303.38 171.395L1306.27 171.698C1306.7 171.742 1307.03 171.924 1307.28 172.244C1307.54 172.564 1307.65 172.926 1307.61 173.33L1305.58 192.678C1305.54 193.082 1305.35 193.413 1305.02 193.672C1304.7 193.921 1304.34 194.024 1303.94 193.982L1301.04 193.679C1300.64 193.637 1300.31 193.466 1300.05 193.166C1299.79 192.856 1299.68 192.499 1299.72 192.095ZM1332.14 196.263C1332.09 196.708 1331.81 196.903 1331.28 196.848L1327.55 196.457C1327.16 196.416 1326.73 196.23 1326.29 195.901C1325.85 195.562 1325.53 195.177 1325.32 194.747L1323.12 190.337C1322.21 188.524 1320.98 187.536 1319.44 187.374L1315.64 186.977L1314.94 193.659C1314.9 194.063 1314.72 194.395 1314.4 194.655C1314.09 194.905 1313.73 195.009 1313.33 194.967L1310.41 194.661C1310 194.618 1309.67 194.442 1309.41 194.132C1309.15 193.811 1309.04 193.449 1309.09 193.045L1311.11 173.698C1311.16 173.294 1311.33 172.961 1311.64 172.701C1311.95 172.44 1312.31 172.331 1312.71 172.373L1325.53 173.717C1327.91 173.966 1329.78 174.806 1331.16 176.239C1332.55 177.673 1333.13 179.473 1332.9 181.638C1332.59 184.652 1330.44 186.338 1326.45 186.696C1327.05 186.989 1327.58 187.443 1328.05 188.058C1328.52 188.662 1329.05 189.528 1329.62 190.657L1331.98 195.444C1332.11 195.752 1332.17 196.025 1332.14 196.263ZM1316.11 182.579L1322.73 183.273C1323.79 183.385 1324.75 183.271 1325.6 182.931C1326.47 182.592 1326.95 181.956 1327.05 181.024C1327.14 180.091 1326.81 179.37 1326.03 178.859C1325.27 178.35 1324.35 178.039 1323.29 177.927L1316.67 177.233L1316.11 182.579Z" fill="white"/>
<g clip-path="url(#clip3_84_368)">
<path d="M1376.74 178.487L1379.94 186.363L1386.98 191.123L1379.1 194.32L1374.34 201.362L1371.15 193.486L1364.1 188.726L1371.98 185.529L1376.74 178.487Z" fill="white"/>
</g>
<path d="M1439.38 205.853C1437.07 207.486 1433.86 208.087 1429.76 207.657C1425.67 207.228 1422.66 205.975 1420.73 203.898C1418.8 201.811 1418.05 198.752 1418.47 194.722C1418.89 190.692 1420.26 187.861 1422.58 186.23C1424.9 184.598 1428.1 183.996 1432.19 184.425C1436.3 184.855 1439.31 186.108 1441.23 188.184C1443.16 190.261 1443.91 193.315 1443.49 197.345C1443.07 201.375 1441.69 204.211 1439.38 205.853ZM1436.64 191.018C1435.72 189.666 1434.1 188.866 1431.75 188.621C1429.42 188.377 1427.66 188.821 1426.48 189.953C1425.3 191.087 1424.58 192.886 1424.33 195.352C1424.07 197.807 1424.4 199.711 1425.31 201.064C1426.24 202.408 1427.87 203.202 1430.2 203.446C1432.54 203.691 1434.3 203.253 1435.48 202.129C1436.65 200.996 1437.37 199.201 1437.63 196.746C1437.89 194.281 1437.56 192.371 1436.64 191.018ZM1467.78 210.479C1467.73 210.925 1467.44 211.12 1466.91 211.064L1463.18 210.674C1462.79 210.632 1462.37 210.447 1461.92 210.117C1461.49 209.778 1461.16 209.394 1460.96 208.964L1458.75 204.553C1457.84 202.74 1456.61 201.753 1455.07 201.591L1451.28 201.193L1450.58 207.876C1450.54 208.28 1450.35 208.611 1450.03 208.871C1449.72 209.122 1449.37 209.226 1448.96 209.183L1446.04 208.877C1445.64 208.835 1445.31 208.658 1445.05 208.348C1444.79 208.028 1444.68 207.666 1444.72 207.262L1446.75 187.914C1446.79 187.51 1446.97 187.178 1447.28 186.917C1447.59 186.656 1447.94 186.547 1448.35 186.59L1461.17 187.933C1463.54 188.182 1465.42 189.023 1466.79 190.456C1468.18 191.889 1468.77 193.689 1468.54 195.854C1468.22 198.869 1466.07 200.555 1462.09 200.912C1462.68 201.205 1463.22 201.659 1463.69 202.274C1464.16 202.878 1464.68 203.745 1465.25 204.873L1467.61 209.661C1467.74 209.968 1467.8 210.241 1467.78 210.479ZM1451.74 196.796L1458.36 197.49C1459.43 197.601 1460.39 197.487 1461.24 197.147C1462.1 196.808 1462.58 196.173 1462.68 195.24C1462.78 194.308 1462.44 193.586 1461.67 193.076C1460.9 192.566 1459.99 192.256 1458.92 192.144L1452.3 191.45L1451.74 196.796ZM1469.5 209.89L1471.52 190.543C1471.57 190.118 1471.75 189.776 1472.07 189.516C1472.39 189.256 1472.75 189.148 1473.16 189.19L1481.84 190.101C1486.34 190.572 1489.51 191.816 1491.37 193.832C1493.23 195.84 1493.96 198.765 1493.56 202.608C1493.16 206.442 1491.84 209.147 1489.6 210.724C1487.37 212.302 1484 212.856 1479.51 212.385L1470.82 211.474C1470.42 211.432 1470.08 211.261 1469.82 210.961C1469.56 210.651 1469.45 210.294 1469.5 209.89ZM1475.66 207.536L1479.8 207.969C1482.59 208.261 1484.53 207.952 1485.65 207.042C1486.76 206.132 1487.44 204.45 1487.7 201.994C1487.96 199.529 1487.64 197.736 1486.74 196.615C1485.84 195.484 1484 194.773 1481.21 194.48L1477.08 194.047L1475.66 207.536ZM1494.78 212.477L1496.81 193.13C1496.85 192.726 1497.03 192.399 1497.35 192.15C1497.67 191.901 1498.03 191.797 1498.43 191.839L1516.35 193.717C1516.76 193.76 1517.08 193.941 1517.33 194.26C1517.59 194.581 1517.7 194.943 1517.66 195.347L1517.5 196.808C1517.46 197.212 1517.28 197.543 1516.96 197.803C1516.65 198.054 1516.29 198.158 1515.89 198.115L1502.36 196.697L1501.88 201.219L1513.54 202.44C1513.94 202.483 1514.27 202.663 1514.52 202.983C1514.78 203.293 1514.89 203.65 1514.84 204.054L1514.69 205.515C1514.65 205.919 1514.47 206.251 1514.15 206.51C1513.84 206.761 1513.48 206.865 1513.08 206.822L1501.42 205.601L1500.94 210.185L1514.45 211.601C1514.84 211.642 1515.16 211.817 1515.41 212.126C1515.66 212.435 1515.77 212.792 1515.72 213.196L1515.57 214.687C1515.53 215.091 1515.34 215.423 1515.02 215.683C1514.7 215.932 1514.34 216.036 1513.94 215.993L1496.1 214.124C1495.69 214.081 1495.36 213.905 1495.1 213.595C1494.84 213.274 1494.73 212.902 1494.78 212.477ZM1540.59 218.111C1540.54 218.557 1540.26 218.752 1539.73 218.697L1536 218.306C1535.6 218.264 1535.18 218.079 1534.74 217.749C1534.3 217.41 1533.98 217.026 1533.77 216.596L1531.56 212.185C1530.66 210.372 1529.43 209.385 1527.88 209.223L1524.09 208.826L1523.39 215.508C1523.35 215.912 1523.17 216.244 1522.85 216.503C1522.54 216.754 1522.18 216.858 1521.78 216.815L1518.86 216.509C1518.45 216.467 1518.12 216.29 1517.86 215.98C1517.6 215.66 1517.49 215.298 1517.53 214.894L1519.56 195.546C1519.6 195.142 1519.78 194.81 1520.09 194.549C1520.4 194.289 1520.76 194.179 1521.16 194.222L1533.98 195.565C1536.35 195.814 1538.23 196.655 1539.61 198.088C1541 199.522 1541.58 201.321 1541.35 203.486C1541.04 206.501 1538.89 208.187 1534.9 208.544C1535.5 208.837 1536.03 209.291 1536.5 209.906C1536.97 210.511 1537.49 211.377 1538.07 212.505L1540.42 217.293C1540.56 217.6 1540.61 217.873 1540.59 218.111ZM1524.55 204.428L1531.17 205.122C1532.24 205.233 1533.2 205.119 1534.05 204.779C1534.92 204.44 1535.4 203.805 1535.49 202.872C1535.59 201.94 1535.25 201.218 1534.48 200.708C1533.72 200.198 1532.8 199.888 1531.73 199.776L1525.11 199.082L1524.55 204.428ZM1551.69 214.184C1551.75 213.573 1551.98 213.157 1552.37 212.936C1552.76 212.705 1553.12 212.607 1553.47 212.643L1555.32 212.837C1556.25 212.934 1556.9 213.516 1557.29 214.583C1557.67 215.649 1558.71 216.271 1560.4 216.449L1565.83 217.128C1567.66 217.319 1568.63 216.819 1568.75 215.628C1568.85 214.726 1567.81 213.9 1565.64 213.148C1564.67 212.806 1563.59 212.458 1562.42 212.104C1561.24 211.74 1560.07 211.319 1558.92 210.842C1557.77 210.366 1556.73 209.837 1555.79 209.257C1554.84 208.676 1554.1 207.938 1553.57 207.044C1553.04 206.141 1552.84 205.125 1552.96 203.996C1553.18 201.913 1554.09 200.39 1555.68 199.427C1557.28 198.453 1559.89 198.155 1563.51 198.534L1567.44 199.041C1569.57 199.264 1571.42 200.013 1573.01 201.29C1574.6 202.557 1575.31 204.009 1575.14 205.645C1575.08 206.257 1574.85 206.678 1574.46 206.909C1574.07 207.141 1573.71 207.239 1573.38 207.204L1571.53 207.01C1570.59 206.913 1569.94 206.331 1569.56 205.264C1569.18 204.188 1568.14 203.56 1566.44 203.382L1561.77 202.799C1559.95 202.608 1558.97 203.108 1558.85 204.299C1558.78 204.952 1559.3 205.546 1560.41 206.08C1561.52 206.616 1562.88 207.131 1564.49 207.624C1566.1 208.107 1567.71 208.658 1569.33 209.278C1570.94 209.897 1572.26 210.779 1573.31 211.926C1574.36 213.063 1574.81 214.392 1574.65 215.915C1574.43 217.998 1573.51 219.525 1571.9 220.498C1570.31 221.462 1567.7 221.755 1564.1 221.377L1559.4 220.79C1557.28 220.567 1555.42 219.823 1553.82 218.556C1552.23 217.278 1551.52 215.821 1551.69 214.184ZM1576.37 221.029L1578.39 201.682C1578.44 201.278 1578.62 200.951 1578.94 200.702C1579.26 200.452 1579.62 200.349 1580.02 200.391L1597.94 202.269C1598.34 202.311 1598.67 202.492 1598.92 202.812C1599.18 203.132 1599.29 203.494 1599.25 203.898L1599.09 205.359C1599.05 205.763 1598.87 206.095 1598.55 206.355C1598.24 206.605 1597.88 206.709 1597.48 206.667L1583.94 205.248L1583.47 209.77L1595.12 210.992C1595.53 211.034 1595.85 211.215 1596.1 211.535C1596.36 211.845 1596.47 212.202 1596.43 212.606L1596.28 214.066C1596.24 214.471 1596.05 214.802 1595.73 215.062C1595.43 215.312 1595.07 215.416 1594.66 215.374L1583.01 214.153L1582.53 218.737L1596.03 220.152C1596.43 220.193 1596.75 220.369 1597 220.678C1597.25 220.987 1597.35 221.343 1597.31 221.747L1597.16 223.239C1597.11 223.643 1596.93 223.975 1596.61 224.235C1596.29 224.484 1595.93 224.587 1595.53 224.545L1577.69 222.675C1577.28 222.633 1576.95 222.457 1576.69 222.147C1576.43 221.826 1576.32 221.453 1576.37 221.029ZM1622.1 226.639C1622.05 227.095 1621.76 227.295 1621.22 227.238L1617.66 226.865C1617.26 226.823 1616.84 226.638 1616.4 226.309C1615.97 225.97 1615.64 225.585 1615.42 225.154L1613.14 220.532C1612.6 219.406 1612.03 218.545 1611.42 217.947C1610.81 217.339 1610.04 216.986 1609.11 216.888L1605.77 216.538L1604.98 224.09C1604.94 224.494 1604.75 224.821 1604.43 225.07C1604.13 225.31 1603.77 225.409 1603.37 225.367L1600.45 225.061C1600.04 225.018 1599.71 224.837 1599.45 224.516C1599.19 224.186 1599.08 223.818 1599.13 223.414L1601.15 204.098C1601.19 203.694 1601.37 203.357 1601.7 203.087C1602.02 202.817 1602.38 202.703 1602.78 202.745L1605.71 203.052C1606.11 203.094 1606.44 203.28 1606.68 203.61C1606.94 203.941 1607.05 204.308 1607.01 204.712L1606.23 212.156L1609.57 212.506C1610.48 212.602 1611.3 212.437 1612.04 212.011C1612.79 211.586 1613.53 210.852 1614.27 209.809L1617.13 205.773C1617.78 204.836 1618.58 204.411 1619.52 204.5L1623.11 204.876C1623.61 204.928 1623.83 205.172 1623.79 205.607C1623.76 205.845 1623.65 206.121 1623.43 206.434L1619.42 212.188C1618.84 213.027 1618.22 213.705 1617.54 214.222C1616.88 214.739 1616.05 215.065 1615.05 215.202C1615.72 215.418 1616.38 215.922 1617.02 216.711C1617.67 217.502 1618.22 218.346 1618.68 219.243L1621.92 225.835C1622.06 226.154 1622.12 226.422 1622.1 226.639ZM1621.63 225.836L1627.08 211.451C1628.56 207.531 1632.21 205.872 1638.03 206.472L1646.41 207.35C1646.79 207.39 1647.09 207.568 1647.31 207.884C1647.54 208.201 1647.64 208.552 1647.6 208.935L1645.56 228.344C1645.52 228.748 1645.34 229.075 1645.02 229.324C1644.7 229.563 1644.34 229.661 1643.93 229.619L1641.01 229.313C1640.59 229.268 1640.25 229.097 1640 228.798C1639.76 228.49 1639.66 228.124 1639.71 227.699L1640.12 223.783L1629.07 222.625L1627.62 226.432C1627.47 226.846 1627.2 227.173 1626.81 227.415C1626.41 227.647 1626.02 227.741 1625.61 227.699L1622.55 227.378C1622.15 227.335 1621.87 227.191 1621.72 226.945C1621.57 226.688 1621.5 226.472 1621.52 226.295C1621.55 226.12 1621.58 225.967 1621.63 225.836ZM1630.68 218.348L1640.58 219.385L1641.43 211.273L1637 210.809C1636 210.705 1635.1 210.899 1634.3 211.39C1633.5 211.873 1632.93 212.577 1632.57 213.503L1630.68 218.348ZM1672.11 231.897C1672.06 232.342 1671.78 232.537 1671.25 232.482L1667.52 232.091C1667.12 232.05 1666.7 231.864 1666.26 231.534C1665.82 231.196 1665.5 230.811 1665.29 230.381L1663.08 225.97C1662.17 224.157 1660.95 223.17 1659.4 223.008L1655.61 222.611L1654.91 229.293C1654.87 229.697 1654.69 230.029 1654.37 230.288C1654.06 230.539 1653.7 230.643 1653.3 230.601L1650.38 230.294C1649.97 230.252 1649.64 230.076 1649.38 229.766C1649.12 229.445 1649.01 229.083 1649.05 228.679L1651.08 209.332C1651.12 208.928 1651.3 208.595 1651.61 208.334C1651.92 208.074 1652.28 207.965 1652.68 208.007L1665.5 209.351C1667.87 209.599 1669.75 210.44 1671.13 211.873C1672.52 213.307 1673.1 215.106 1672.87 217.272C1672.56 220.286 1670.41 221.972 1666.42 222.33C1667.02 222.623 1667.55 223.077 1668.02 223.691C1668.49 224.296 1669.01 225.162 1669.59 226.291L1671.94 231.078C1672.08 231.386 1672.13 231.658 1672.11 231.897ZM1656.07 218.213L1662.69 218.907C1663.76 219.019 1664.72 218.905 1665.57 218.565C1666.44 218.226 1666.92 217.59 1667.01 216.657C1667.11 215.725 1666.77 215.004 1666 214.493C1665.24 213.984 1664.32 213.673 1663.25 213.561L1656.63 212.867L1656.07 218.213ZM1672 231.115L1677.45 216.73C1678.93 212.811 1682.58 211.151 1688.4 211.751L1696.78 212.629C1697.16 212.669 1697.46 212.847 1697.68 213.163C1697.91 213.48 1698 213.831 1697.96 214.214L1695.93 233.623C1695.88 234.027 1695.7 234.354 1695.38 234.603C1695.07 234.842 1694.71 234.941 1694.3 234.898L1691.38 234.592C1690.95 234.548 1690.62 234.376 1690.37 234.077C1690.13 233.769 1690.03 233.403 1690.07 232.978L1690.48 229.062L1679.43 227.904L1677.98 231.711C1677.83 232.125 1677.56 232.453 1677.17 232.694C1676.78 232.926 1676.38 233.02 1675.98 232.978L1672.92 232.657C1672.51 232.615 1672.24 232.47 1672.08 232.224C1671.93 231.967 1671.87 231.751 1671.88 231.575C1671.91 231.4 1671.95 231.246 1672 231.115ZM1681.04 223.627L1690.94 224.664L1691.79 216.553L1687.36 216.088C1686.37 215.984 1685.47 216.178 1684.66 216.669C1683.87 217.152 1683.29 217.856 1682.93 218.782L1681.04 223.627ZM1699.42 233.958L1701.45 214.611C1701.49 214.207 1701.67 213.874 1701.98 213.614C1702.29 213.353 1702.64 213.244 1703.05 213.286L1707.62 213.765C1707.98 213.803 1708.35 213.988 1708.72 214.321C1709.09 214.653 1709.39 215.035 1709.61 215.466L1717.48 230.886L1719 216.419C1719.04 216.015 1719.21 215.687 1719.52 215.437C1719.84 215.188 1720.2 215.084 1720.61 215.127L1723.28 215.407C1723.69 215.449 1724.01 215.625 1724.26 215.934C1724.52 216.244 1724.63 216.611 1724.59 217.036L1722.56 236.383C1722.52 236.787 1722.34 237.119 1722.01 237.379C1721.71 237.629 1721.35 237.733 1720.95 237.691L1715.79 237.15C1715.38 237.108 1714.98 236.925 1714.59 236.6C1714.19 236.266 1713.89 235.883 1713.69 235.453L1706.49 221.219L1705.09 234.553C1705.05 234.957 1704.87 235.288 1704.55 235.548C1704.24 235.798 1703.88 235.903 1703.48 235.86L1700.74 235.573C1700.34 235.531 1700.01 235.355 1699.75 235.045C1699.49 234.724 1699.38 234.362 1699.42 233.958ZM1735.3 239.321C1731.86 238.961 1729.32 237.757 1727.67 235.709C1726.03 233.662 1725.41 230.733 1725.81 226.92C1726.21 223.097 1727.46 220.37 1729.57 218.737C1731.69 217.095 1734.67 216.475 1738.52 216.878L1741.98 217.241C1744.27 217.481 1746.28 218.246 1747.99 219.537C1749.72 220.818 1750.5 222.277 1750.33 223.914C1750.27 224.525 1750.04 224.946 1749.65 225.177C1749.26 225.398 1748.89 225.491 1748.55 225.455L1746.7 225.261C1745.81 225.168 1745.16 224.586 1744.73 223.515C1744.31 222.445 1743.06 221.8 1740.98 221.582L1738.21 221.292C1735.94 221.054 1734.35 221.38 1733.44 222.269C1732.53 223.158 1731.94 224.908 1731.67 227.519C1731.39 230.129 1731.57 231.975 1732.19 233.056C1732.81 234.127 1734.05 234.76 1735.91 234.955L1739.1 235.289C1740.77 235.464 1741.99 235.273 1742.77 234.716C1743.56 234.148 1744.02 233.27 1744.17 232.081L1740.65 231.713C1740.25 231.67 1739.92 231.494 1739.66 231.184C1739.41 230.865 1739.3 230.503 1739.35 230.099L1739.47 228.887C1739.52 228.483 1739.69 228.156 1740 227.905C1740.32 227.646 1740.68 227.537 1741.09 227.579L1748.89 228.397C1749.29 228.439 1749.62 228.62 1749.87 228.94C1750.13 229.25 1750.24 229.607 1750.2 230.011L1750.01 231.736C1749.71 234.636 1748.61 236.778 1746.7 238.16C1744.8 239.531 1742.16 240.041 1738.8 239.688L1735.3 239.321Z" fill="white"/>
<defs>
<clipPath id="clip0_84_368">
<rect width="38" height="38" fill="white" transform="translate(271.581 55.1086) rotate(5.98361)"/>
</clipPath>
<clipPath id="clip1_84_368">
<rect width="24" height="24" fill="white" transform="translate(608.999 97.5134) rotate(5.98361)"/>
</clipPath>
<clipPath id="clip2_84_368">
<rect width="38" height="38" fill="white" transform="translate(1027.44 134.334) rotate(5.98361)"/>
</clipPath>
<clipPath id="clip3_84_368">
<rect width="24" height="24" fill="white" transform="translate(1364.86 176.739) rotate(5.98361)"/>
</clipPath>
</defs>
</svg>
