<svg xmlns="http://www.w3.org/2000/svg" xmlns:xlink="http://www.w3.org/1999/xlink" width="1366" zoomAndPan="magnify" viewBox="0 0 1024.5 576" height="768" preserveAspectRatio="xMidYMid meet" version="1.2"><defs><clipPath id="ad533e6d40"><path d="M 0 0.140625 L 1024 0.140625 L 1024 57.710938 L 0 57.710938 Z M 0 0.140625 "/></clipPath><clipPath id="20a206f137"><path d="M 282.285156 16.542969 L 327.261719 16.542969 L 327.261719 41 L 282.285156 41 Z M 282.285156 16.542969 "/></clipPath><clipPath id="053af394af"><path d="M 291 39 L 319 39 L 319 44.277344 L 291 44.277344 Z M 291 39 "/></clipPath><clipPath id="254e3627eb"><path d="M 620 12.90625 L 664.960938 12.90625 L 664.960938 37 L 620 37 Z M 620 12.90625 "/></clipPath><clipPath id="2926872257"><path d="M 629 36 L 656 36 L 656 40.640625 L 629 40.640625 Z M 629 36 "/></clipPath><clipPath id="4f9307a023"><path d="M 957.496094 15.089844 L 1002.476562 15.089844 L 1002.476562 39 L 957.496094 39 Z M 957.496094 15.089844 "/></clipPath><clipPath id="85c0a0c7ec"><path d="M 966 38 L 994 38 L 994 42.828125 L 966 42.828125 Z M 966 38 "/></clipPath></defs><g id="0c7b0e1254"><g clip-rule="nonzero" clip-path="url(#ad533e6d40)"><path style=" stroke:none;fill-rule:nonzero;fill:#b91c1c;fill-opacity:1;" d="M 0 0.140625 L 1023.925781 0.140625 L 1023.925781 57.710938 L 0 57.710938 Z M 0 0.140625 "/></g><g clip-rule="nonzero" clip-path="url(#20a206f137)"><path style=" stroke:none;fill-rule:nonzero;fill:#ffffff;fill-opacity:1;" d="M 318.347656 39.960938 C 309.304688 37.488281 300.230469 37.59375 291.09375 40.015625 C 289.621094 34.847656 287.339844 30.011719 284.652344 25.367188 C 283.53125 25.59375 282.894531 25.363281 282.574219 24.65625 C 282.285156 24.023438 282.492188 23.269531 283.058594 22.875 C 283.617188 22.488281 284.351562 22.539062 284.847656 22.992188 C 285.425781 23.527344 285.445312 24.234375 284.871094 25.199219 C 287.46875 27.90625 290.117188 30.558594 293.890625 31.640625 C 296.648438 32.429688 298.941406 31.6875 300.75 29.46875 C 302.285156 27.585938 303.113281 25.363281 303.773438 23.070312 C 304.015625 22.234375 304.203125 21.382812 304.410156 20.554688 C 303.035156 19.789062 302.613281 19.070312 302.902344 18.042969 C 303.148438 17.152344 303.957031 16.5625 304.859375 16.609375 C 305.738281 16.652344 306.507812 17.320312 306.664062 18.164062 C 306.851562 19.191406 306.382812 19.9375 305.113281 20.519531 C 305.324219 21.359375 305.523438 22.226562 305.765625 23.078125 C 306.359375 25.195312 307.128906 27.238281 308.4375 29.035156 C 309.792969 30.894531 311.554688 32.066406 313.929688 31.957031 C 315.351562 31.886719 316.710938 31.4375 317.964844 30.742188 C 320.542969 29.304688 322.703125 27.363281 324.683594 25.144531 C 324.589844 24.988281 324.492188 24.835938 324.410156 24.675781 C 324.101562 24.066406 324.246094 23.351562 324.757812 22.917969 C 325.25 22.503906 325.972656 22.472656 326.5 22.839844 C 327.050781 23.226562 327.261719 23.929688 327.011719 24.558594 C 326.773438 25.171875 326.097656 25.609375 325.453125 25.417969 C 324.945312 25.261719 324.796875 25.496094 324.601562 25.84375 C 323.058594 28.609375 321.550781 31.394531 320.4375 34.367188 C 319.746094 36.21875 319.054688 38.070312 318.347656 39.960938 Z M 318.347656 39.960938 "/></g><g clip-rule="nonzero" clip-path="url(#053af394af)"><path style=" stroke:none;fill-rule:nonzero;fill:#ffffff;fill-opacity:1;" d="M 291.941406 44.132812 C 291.800781 43.3125 291.667969 42.558594 291.515625 41.671875 C 300.351562 39.316406 309.148438 39.167969 318.027344 41.621094 C 317.941406 42.105469 317.867188 42.507812 317.796875 42.910156 C 317.730469 43.296875 317.667969 43.683594 317.601562 44.09375 C 309.042969 41.917969 300.511719 42.011719 291.941406 44.132812 Z M 291.941406 44.132812 "/></g><path style=" stroke:none;fill-rule:nonzero;fill:#ffffff;fill-opacity:1;" d="M 295.460938 25.445312 C 296.453125 27.085938 297.4375 28.714844 298.4375 30.371094 C 297.714844 31.09375 295.625 31.4375 294.617188 30.957031 C 294.792969 29.128906 294.96875 27.316406 295.140625 25.546875 C 293.933594 24.988281 293.601562 24.585938 293.703125 23.878906 C 293.78125 23.300781 294.230469 22.839844 294.796875 22.746094 C 295.371094 22.652344 295.9375 22.945312 296.199219 23.464844 C 296.507812 24.082031 296.324219 24.65625 295.460938 25.445312 Z M 295.460938 25.445312 "/><path style=" stroke:none;fill-rule:nonzero;fill:#ffffff;fill-opacity:1;" d="M 314.0625 25.449219 C 313.171875 24.597656 313.007812 24.054688 313.351562 23.421875 C 313.625 22.914062 314.222656 22.636719 314.78125 22.753906 C 315.371094 22.875 315.800781 23.386719 315.824219 23.996094 C 315.855469 24.71875 315.492188 25.125 314.394531 25.488281 C 314.5625 27.28125 314.738281 29.113281 314.917969 30.960938 C 313.839844 31.390625 312.113281 31.132812 311.074219 30.394531 C 312.082031 28.734375 313.082031 27.074219 314.0625 25.449219 Z M 314.0625 25.449219 "/><g style="fill:#ffffff;fill-opacity:1;"><g transform="translate(13.234855, 40.163495)"><path style="stroke:none" d="M 30.890625 0 L 23.078125 0 L 21.34375 -3.015625 L 9.734375 -3.015625 L 8.015625 0 L 0.1875 0 L 11.953125 -18.375 L 19.125 -18.375 Z M 18.734375 -7.5625 L 15.546875 -13.140625 L 12.34375 -7.5625 Z M 18.734375 -7.5625 "/></g><g transform="translate(44.312953, 40.163495)"><path style="stroke:none" d="M 29.34375 0 L 20.15625 0 L 9.765625 -12.453125 L 9.765625 0 L 2.046875 0 L 2.046875 -18.390625 L 11.234375 -18.390625 L 21.625 -6.015625 L 21.625 -18.390625 L 29.34375 -18.390625 Z M 29.34375 0 "/></g><g transform="translate(75.698627, 40.163495)"><path style="stroke:none" d="M 30.890625 0 L 23.078125 0 L 21.34375 -3.015625 L 9.734375 -3.015625 L 8.015625 0 L 0.1875 0 L 11.953125 -18.375 L 19.125 -18.375 Z M 18.734375 -7.5625 L 15.546875 -13.140625 L 12.34375 -7.5625 Z M 18.734375 -7.5625 "/></g><g transform="translate(106.776724, 40.163495)"><path style="stroke:none" d=""/></g><g transform="translate(113.287105, 40.163495)"><path style="stroke:none" d="M 27.171875 0 L 19.453125 0 L 19.453125 -7.421875 L 9.765625 -7.421875 L 9.765625 0 L 2.046875 0 L 2.046875 -18.390625 L 9.765625 -18.390625 L 9.765625 -10.953125 L 19.453125 -10.953125 L 19.453125 -18.390625 L 27.171875 -18.390625 Z M 27.171875 0 "/></g><g transform="translate(142.506925, 40.163495)"><path style="stroke:none" d="M 17.9375 0 L 10.234375 0 L 10.234375 -8.71875 L 0.1875 -18.390625 L 8.734375 -18.390625 L 14.09375 -12.890625 L 19.421875 -18.390625 L 27.96875 -18.390625 L 17.9375 -8.71875 Z M 17.9375 0 "/></g><g transform="translate(170.66304, 40.163495)"><path style="stroke:none" d="M 12.9375 0.390625 C 8.445312 0.390625 5.285156 -0.535156 3.453125 -2.390625 C 1.921875 -3.960938 1.15625 -6.222656 1.15625 -9.171875 L 1.15625 -18.375 L 8.875 -18.375 L 8.875 -9.171875 C 8.875 -7.890625 9.085938 -6.878906 9.515625 -6.140625 C 10.140625 -5.066406 11.28125 -4.53125 12.9375 -4.53125 C 14.601562 -4.53125 15.742188 -5.066406 16.359375 -6.140625 C 16.796875 -6.910156 17.015625 -7.921875 17.015625 -9.171875 L 17.015625 -18.375 L 24.71875 -18.375 L 24.71875 -9.078125 C 24.71875 -6.191406 23.957031 -3.960938 22.4375 -2.390625 C 20.59375 -0.535156 17.425781 0.390625 12.9375 0.390625 Z M 12.9375 0.390625 "/></g><g transform="translate(196.537959, 40.163495)"><path style="stroke:none" d="M 29.34375 0 L 20.15625 0 L 9.765625 -12.453125 L 9.765625 0 L 2.046875 0 L 2.046875 -18.390625 L 11.234375 -18.390625 L 21.625 -6.015625 L 21.625 -18.390625 L 29.34375 -18.390625 Z M 29.34375 0 "/></g><g transform="translate(227.923634, 40.163495)"><path style="stroke:none" d="M 30.890625 0 L 23.078125 0 L 21.34375 -3.015625 L 9.734375 -3.015625 L 8.015625 0 L 0.1875 0 L 11.953125 -18.375 L 19.125 -18.375 Z M 18.734375 -7.5625 L 15.546875 -13.140625 L 12.34375 -7.5625 Z M 18.734375 -7.5625 "/></g></g><g style="fill:#ffffff;fill-opacity:1;"><g transform="translate(350.792954, 40.163495)"><path style="stroke:none" d="M 30.890625 0 L 23.078125 0 L 21.34375 -3.015625 L 9.734375 -3.015625 L 8.015625 0 L 0.1875 0 L 11.953125 -18.375 L 19.125 -18.375 Z M 18.734375 -7.5625 L 15.546875 -13.140625 L 12.34375 -7.5625 Z M 18.734375 -7.5625 "/></g><g transform="translate(381.871051, 40.163495)"><path style="stroke:none" d="M 29.34375 0 L 20.15625 0 L 9.765625 -12.453125 L 9.765625 0 L 2.046875 0 L 2.046875 -18.390625 L 11.234375 -18.390625 L 21.625 -6.015625 L 21.625 -18.390625 L 29.34375 -18.390625 Z M 29.34375 0 "/></g><g transform="translate(413.256725, 40.163495)"><path style="stroke:none" d="M 30.890625 0 L 23.078125 0 L 21.34375 -3.015625 L 9.734375 -3.015625 L 8.015625 0 L 0.1875 0 L 11.953125 -18.375 L 19.125 -18.375 Z M 18.734375 -7.5625 L 15.546875 -13.140625 L 12.34375 -7.5625 Z M 18.734375 -7.5625 "/></g><g transform="translate(444.334823, 40.163495)"><path style="stroke:none" d=""/></g><g transform="translate(450.845204, 40.163495)"><path style="stroke:none" d="M 27.171875 0 L 19.453125 0 L 19.453125 -7.421875 L 9.765625 -7.421875 L 9.765625 0 L 2.046875 0 L 2.046875 -18.390625 L 9.765625 -18.390625 L 9.765625 -10.953125 L 19.453125 -10.953125 L 19.453125 -18.390625 L 27.171875 -18.390625 Z M 27.171875 0 "/></g><g transform="translate(480.065023, 40.163495)"><path style="stroke:none" d="M 17.9375 0 L 10.234375 0 L 10.234375 -8.71875 L 0.1875 -18.390625 L 8.734375 -18.390625 L 14.09375 -12.890625 L 19.421875 -18.390625 L 27.96875 -18.390625 L 17.9375 -8.71875 Z M 17.9375 0 "/></g><g transform="translate(508.221139, 40.163495)"><path style="stroke:none" d="M 12.9375 0.390625 C 8.445312 0.390625 5.285156 -0.535156 3.453125 -2.390625 C 1.921875 -3.960938 1.15625 -6.222656 1.15625 -9.171875 L 1.15625 -18.375 L 8.875 -18.375 L 8.875 -9.171875 C 8.875 -7.890625 9.085938 -6.878906 9.515625 -6.140625 C 10.140625 -5.066406 11.28125 -4.53125 12.9375 -4.53125 C 14.601562 -4.53125 15.742188 -5.066406 16.359375 -6.140625 C 16.796875 -6.910156 17.015625 -7.921875 17.015625 -9.171875 L 17.015625 -18.375 L 24.71875 -18.375 L 24.71875 -9.078125 C 24.71875 -6.191406 23.957031 -3.960938 22.4375 -2.390625 C 20.59375 -0.535156 17.425781 0.390625 12.9375 0.390625 Z M 12.9375 0.390625 "/></g><g transform="translate(534.096058, 40.163495)"><path style="stroke:none" d="M 29.34375 0 L 20.15625 0 L 9.765625 -12.453125 L 9.765625 0 L 2.046875 0 L 2.046875 -18.390625 L 11.234375 -18.390625 L 21.625 -6.015625 L 21.625 -18.390625 L 29.34375 -18.390625 Z M 29.34375 0 "/></g><g transform="translate(565.481732, 40.163495)"><path style="stroke:none" d="M 30.890625 0 L 23.078125 0 L 21.34375 -3.015625 L 9.734375 -3.015625 L 8.015625 0 L 0.1875 0 L 11.953125 -18.375 L 19.125 -18.375 Z M 18.734375 -7.5625 L 15.546875 -13.140625 L 12.34375 -7.5625 Z M 18.734375 -7.5625 "/></g></g><g clip-rule="nonzero" clip-path="url(#254e3627eb)"><path style=" stroke:none;fill-rule:nonzero;fill:#ffffff;fill-opacity:1;" d="M 656.046875 36.324219 C 647 33.851562 637.929688 33.957031 628.792969 36.378906 C 627.320312 31.210938 625.035156 26.375 622.347656 21.734375 C 621.230469 21.957031 620.589844 21.726562 620.269531 21.019531 C 619.984375 20.390625 620.191406 19.632812 620.753906 19.242188 C 621.3125 18.855469 622.050781 18.902344 622.542969 19.359375 C 623.121094 19.890625 623.140625 20.597656 622.570312 21.5625 C 625.164062 24.269531 627.816406 26.921875 631.589844 28.003906 C 634.34375 28.796875 636.640625 28.054688 638.449219 25.832031 C 639.984375 23.953125 640.808594 21.726562 641.472656 19.433594 C 641.714844 18.601562 641.902344 17.746094 642.109375 16.921875 C 640.734375 16.152344 640.3125 15.433594 640.597656 14.40625 C 640.847656 13.515625 641.65625 12.925781 642.558594 12.972656 C 643.4375 13.019531 644.207031 13.683594 644.359375 14.53125 C 644.546875 15.554688 644.078125 16.300781 642.8125 16.882812 C 643.023438 17.722656 643.21875 18.589844 643.460938 19.445312 C 644.058594 21.558594 644.828125 23.605469 646.136719 25.398438 C 647.492188 27.257812 649.253906 28.429688 651.625 28.320312 C 653.050781 28.253906 654.410156 27.800781 655.660156 27.105469 C 658.238281 25.671875 660.398438 23.726562 662.378906 21.507812 C 662.289062 21.351562 662.1875 21.203125 662.109375 21.042969 C 661.800781 20.429688 661.941406 19.714844 662.457031 19.28125 C 662.945312 18.867188 663.671875 18.835938 664.199219 19.203125 C 664.75 19.589844 664.960938 20.292969 664.710938 20.925781 C 664.46875 21.539062 663.792969 21.976562 663.152344 21.78125 C 662.644531 21.628906 662.496094 21.859375 662.300781 22.207031 C 660.757812 24.976562 659.25 27.757812 658.136719 30.734375 C 657.445312 32.582031 656.753906 34.433594 656.046875 36.324219 Z M 656.046875 36.324219 "/></g><g clip-rule="nonzero" clip-path="url(#2926872257)"><path style=" stroke:none;fill-rule:nonzero;fill:#ffffff;fill-opacity:1;" d="M 629.636719 40.496094 C 629.496094 39.675781 629.367188 38.921875 629.214844 38.035156 C 638.046875 35.683594 646.84375 35.53125 655.726562 37.984375 C 655.640625 38.46875 655.566406 38.871094 655.496094 39.273438 C 655.429688 39.660156 655.367188 40.050781 655.296875 40.460938 C 646.738281 38.28125 638.210938 38.375 629.636719 40.496094 Z M 629.636719 40.496094 "/></g><path style=" stroke:none;fill-rule:nonzero;fill:#ffffff;fill-opacity:1;" d="M 633.160156 21.808594 C 634.148438 23.449219 635.136719 25.078125 636.136719 26.734375 C 635.414062 27.457031 633.324219 27.800781 632.316406 27.320312 C 632.492188 25.492188 632.667969 23.679688 632.835938 21.910156 C 631.628906 21.351562 631.300781 20.949219 631.398438 20.242188 C 631.480469 19.667969 631.925781 19.207031 632.496094 19.109375 C 633.066406 19.015625 633.636719 19.308594 633.898438 19.828125 C 634.207031 20.445312 634.023438 21.019531 633.160156 21.808594 Z M 633.160156 21.808594 "/><path style=" stroke:none;fill-rule:nonzero;fill:#ffffff;fill-opacity:1;" d="M 651.761719 21.816406 C 650.871094 20.964844 650.707031 20.417969 651.050781 19.785156 C 651.324219 19.28125 651.917969 19 652.480469 19.117188 C 653.070312 19.238281 653.5 19.75 653.523438 20.359375 C 653.550781 21.082031 653.1875 21.492188 652.089844 21.851562 C 652.261719 23.644531 652.4375 25.476562 652.613281 27.324219 C 651.539062 27.753906 649.808594 27.5 648.773438 26.757812 C 649.777344 25.097656 650.78125 23.4375 651.761719 21.816406 Z M 651.761719 21.816406 "/><g style="fill:#ffffff;fill-opacity:1;"><g transform="translate(688.49067, 36.527538)"><path style="stroke:none" d="M 30.890625 0 L 23.078125 0 L 21.34375 -3.015625 L 9.734375 -3.015625 L 8.015625 0 L 0.1875 0 L 11.953125 -18.375 L 19.125 -18.375 Z M 18.734375 -7.5625 L 15.546875 -13.140625 L 12.34375 -7.5625 Z M 18.734375 -7.5625 "/></g><g transform="translate(719.568768, 36.527538)"><path style="stroke:none" d="M 29.34375 0 L 20.15625 0 L 9.765625 -12.453125 L 9.765625 0 L 2.046875 0 L 2.046875 -18.390625 L 11.234375 -18.390625 L 21.625 -6.015625 L 21.625 -18.390625 L 29.34375 -18.390625 Z M 29.34375 0 "/></g><g transform="translate(750.954442, 36.527538)"><path style="stroke:none" d="M 30.890625 0 L 23.078125 0 L 21.34375 -3.015625 L 9.734375 -3.015625 L 8.015625 0 L 0.1875 0 L 11.953125 -18.375 L 19.125 -18.375 Z M 18.734375 -7.5625 L 15.546875 -13.140625 L 12.34375 -7.5625 Z M 18.734375 -7.5625 "/></g><g transform="translate(782.032539, 36.527538)"><path style="stroke:none" d=""/></g><g transform="translate(788.54292, 36.527538)"><path style="stroke:none" d="M 27.171875 0 L 19.453125 0 L 19.453125 -7.421875 L 9.765625 -7.421875 L 9.765625 0 L 2.046875 0 L 2.046875 -18.390625 L 9.765625 -18.390625 L 9.765625 -10.953125 L 19.453125 -10.953125 L 19.453125 -18.390625 L 27.171875 -18.390625 Z M 27.171875 0 "/></g><g transform="translate(817.76274, 36.527538)"><path style="stroke:none" d="M 17.9375 0 L 10.234375 0 L 10.234375 -8.71875 L 0.1875 -18.390625 L 8.734375 -18.390625 L 14.09375 -12.890625 L 19.421875 -18.390625 L 27.96875 -18.390625 L 17.9375 -8.71875 Z M 17.9375 0 "/></g><g transform="translate(845.918855, 36.527538)"><path style="stroke:none" d="M 12.9375 0.390625 C 8.445312 0.390625 5.285156 -0.535156 3.453125 -2.390625 C 1.921875 -3.960938 1.15625 -6.222656 1.15625 -9.171875 L 1.15625 -18.375 L 8.875 -18.375 L 8.875 -9.171875 C 8.875 -7.890625 9.085938 -6.878906 9.515625 -6.140625 C 10.140625 -5.066406 11.28125 -4.53125 12.9375 -4.53125 C 14.601562 -4.53125 15.742188 -5.066406 16.359375 -6.140625 C 16.796875 -6.910156 17.015625 -7.921875 17.015625 -9.171875 L 17.015625 -18.375 L 24.71875 -18.375 L 24.71875 -9.078125 C 24.71875 -6.191406 23.957031 -3.960938 22.4375 -2.390625 C 20.59375 -0.535156 17.425781 0.390625 12.9375 0.390625 Z M 12.9375 0.390625 "/></g><g transform="translate(871.793774, 36.527538)"><path style="stroke:none" d="M 29.34375 0 L 20.15625 0 L 9.765625 -12.453125 L 9.765625 0 L 2.046875 0 L 2.046875 -18.390625 L 11.234375 -18.390625 L 21.625 -6.015625 L 21.625 -18.390625 L 29.34375 -18.390625 Z M 29.34375 0 "/></g><g transform="translate(903.179448, 36.527538)"><path style="stroke:none" d="M 30.890625 0 L 23.078125 0 L 21.34375 -3.015625 L 9.734375 -3.015625 L 8.015625 0 L 0.1875 0 L 11.953125 -18.375 L 19.125 -18.375 Z M 18.734375 -7.5625 L 15.546875 -13.140625 L 12.34375 -7.5625 Z M 18.734375 -7.5625 "/></g></g><g clip-rule="nonzero" clip-path="url(#4f9307a023)"><path style=" stroke:none;fill-rule:nonzero;fill:#ffffff;fill-opacity:1;" d="M 993.5625 38.511719 C 984.515625 36.035156 975.445312 36.140625 966.308594 38.566406 C 964.832031 33.394531 962.550781 28.558594 959.863281 23.917969 C 958.746094 24.140625 958.105469 23.914062 957.785156 23.203125 C 957.5 22.574219 957.707031 21.816406 958.269531 21.425781 C 958.828125 21.039062 959.566406 21.085938 960.058594 21.542969 C 960.636719 22.074219 960.65625 22.78125 960.085938 23.746094 C 962.679688 26.457031 965.332031 29.105469 969.105469 30.191406 C 971.859375 30.980469 974.15625 30.238281 975.964844 28.019531 C 977.5 26.136719 978.324219 23.914062 978.988281 21.621094 C 979.230469 20.785156 979.417969 19.933594 979.625 19.105469 C 978.25 18.335938 977.828125 17.617188 978.113281 16.589844 C 978.363281 15.703125 979.171875 15.109375 980.074219 15.15625 C 980.953125 15.203125 981.722656 15.867188 981.875 16.714844 C 982.0625 17.742188 981.59375 18.484375 980.328125 19.066406 C 980.539062 19.910156 980.734375 20.777344 980.976562 21.628906 C 981.574219 23.746094 982.34375 25.789062 983.652344 27.585938 C 985.007812 29.445312 986.769531 30.617188 989.140625 30.503906 C 990.566406 30.4375 991.925781 29.984375 993.175781 29.289062 C 995.753906 27.855469 997.914062 25.910156 999.894531 23.695312 C 999.804688 23.535156 999.703125 23.386719 999.625 23.226562 C 999.316406 22.617188 999.457031 21.902344 999.972656 21.46875 C 1000.460938 21.054688 1001.1875 21.019531 1001.714844 21.386719 C 1002.265625 21.773438 1002.476562 22.480469 1002.226562 23.109375 C 1001.984375 23.722656 1001.308594 24.160156 1000.667969 23.964844 C 1000.160156 23.8125 1000.011719 24.042969 999.816406 24.394531 C 998.273438 27.160156 996.765625 29.941406 995.652344 32.917969 C 994.960938 34.765625 994.269531 36.617188 993.5625 38.511719 Z M 993.5625 38.511719 "/></g><g clip-rule="nonzero" clip-path="url(#85c0a0c7ec)"><path style=" stroke:none;fill-rule:nonzero;fill:#ffffff;fill-opacity:1;" d="M 967.152344 42.679688 C 967.011719 41.859375 966.882812 41.105469 966.730469 40.21875 C 975.5625 37.867188 984.359375 37.714844 993.242188 40.167969 C 993.15625 40.65625 993.082031 41.054688 993.011719 41.460938 C 992.945312 41.847656 992.882812 42.234375 992.8125 42.644531 C 984.253906 40.464844 975.726562 40.558594 967.152344 42.679688 Z M 967.152344 42.679688 "/></g><path style=" stroke:none;fill-rule:nonzero;fill:#ffffff;fill-opacity:1;" d="M 970.675781 23.992188 C 971.664062 25.632812 972.652344 27.265625 973.652344 28.917969 C 972.929688 29.640625 970.839844 29.984375 969.832031 29.507812 C 970.007812 27.675781 970.183594 25.863281 970.351562 24.097656 C 969.144531 23.535156 968.816406 23.132812 968.914062 22.425781 C 968.996094 21.851562 969.441406 21.390625 970.011719 21.296875 C 970.582031 21.199219 971.152344 21.492188 971.414062 22.011719 C 971.722656 22.632812 971.539062 23.207031 970.675781 23.992188 Z M 970.675781 23.992188 "/><path style=" stroke:none;fill-rule:nonzero;fill:#ffffff;fill-opacity:1;" d="M 989.277344 24 C 988.386719 23.148438 988.222656 22.601562 988.566406 21.96875 C 988.839844 21.464844 989.433594 21.1875 989.996094 21.300781 C 990.585938 21.421875 991.015625 21.933594 991.039062 22.542969 C 991.066406 23.265625 990.703125 23.675781 989.605469 24.035156 C 989.777344 25.828125 989.953125 27.660156 990.128906 29.507812 C 989.054688 29.9375 987.324219 29.683594 986.289062 28.945312 C 987.292969 27.28125 988.296875 25.621094 989.277344 24 Z M 989.277344 24 "/></g></svg>